<svg width="62" height="85" viewBox="0 0 62 85" fill="none" xmlns="http://www.w3.org/2000/svg">
<g id="Group 37747">
<rect id="Rectangle 6477" x="16.1626" y="0.102539" width="29.6748" height="55.5922" rx="14.8374" fill="white"/>
<path id="Union" fill-rule="evenodd" clip-rule="evenodd" d="M0.183339 49.695C-0.388863 47.6388 1.26179 45.7366 3.3961 45.7366C5.08249 45.7366 6.50405 46.9491 7.00412 48.5596C10.1812 58.7919 19.7228 66.2225 30.9999 66.2225C42.277 66.2225 51.8186 58.7918 54.9957 48.5596C55.4958 46.9491 56.9173 45.7366 58.6037 45.7366C60.738 45.7366 62.3887 47.6388 61.8165 49.695C58.3837 62.0304 47.7433 71.3635 34.7181 72.8715V80.9794C34.7181 83.0327 33.0535 84.6973 31.0002 84.6973C28.9468 84.6973 27.2823 83.0327 27.2823 80.9794V72.8715C14.2568 71.3638 3.61615 62.0306 0.183339 49.695Z" fill="white"/>
</g>
</svg>
