<svg width="20" height="21" viewBox="0 0 20 21" fill="#8A898E" xmlns="http://www.w3.org/2000/svg">
<g id="Group 37752">
<rect id="Rectangle 6477" x="6.70166" y="0.562988" width="6.82509" height="13.1435" rx="3.41254" fill="#8A898E"/>
<path id="Union" fill-rule="evenodd" clip-rule="evenodd" d="M3.01849 12.2576C2.89277 11.7857 3.27103 11.3516 3.7594 11.3516C4.14879 11.3516 4.4766 11.6331 4.58656 12.0066C5.31381 14.4772 7.53941 16.2391 10.1142 16.2391C12.6889 16.2391 14.9145 14.4772 15.6418 12.0066C15.7517 11.6331 16.0795 11.3516 16.4689 11.3516C16.9573 11.3516 17.3356 11.7857 17.2098 12.2576C16.4289 15.1889 13.9752 17.4093 10.9691 17.767V19.7078C10.9691 20.1801 10.5863 20.5629 10.114 20.5629C9.64177 20.5629 9.25893 20.1801 9.25893 19.7078V17.767C6.25303 17.4092 3.79936 15.1888 3.01849 12.2576Z" fill="#8A898E"/>
</g>
</svg>
