<svg width="70" height="75" viewBox="0 0 70 75" fill="none" xmlns="http://www.w3.org/2000/svg">
<path d="M45.8913 13.1889C46.2631 12.7805 46.8955 12.7509 47.3039 13.1226L58.0181 22.8763C58.4265 23.2481 58.4562 23.8806 58.0844 24.289L22.5432 63.3301C22.4306 63.4537 22.2888 63.5472 22.1308 63.6019L7.82907 68.5505C7.08092 68.8093 6.34291 68.1375 6.53058 67.3684L10.1181 52.6661C10.1577 52.5036 10.2375 52.3537 10.3501 52.23L45.8913 13.1889Z" fill="white"/>
<path d="M54.4422 3.79698C56.3011 1.75498 59.4635 1.60658 61.5055 3.46553L66.3039 7.83375C68.3459 9.6927 68.4943 12.855 66.6353 14.897L61.5665 20.465C61.1947 20.8734 60.5622 20.9031 60.1538 20.5313L49.4396 10.7776C49.0312 10.4058 49.0016 9.77338 49.3733 9.36498L54.4422 3.79698Z" fill="white"/>
</svg>
