<svg width="340" height="38" viewBox="0 0 340 38" fill="none" xmlns="http://www.w3.org/2000/svg">
<path d="M0.644043 5.56201C0.644043 3.90516 1.98719 2.56201 3.64404 2.56201H335.644C337.301 2.56201 338.644 3.90516 338.644 5.56201V8.823C338.644 10.4799 337.301 11.823 335.644 11.823H3.64404C1.98718 11.823 0.644043 10.4799 0.644043 8.823V5.56201Z" fill="url(#paint0_linear_79_11614)"/>
<path d="M1.35596 28.6523C1.35596 26.9955 2.6991 25.6523 4.35596 25.6523H336.356C338.013 25.6523 339.356 26.9955 339.356 28.6523V31.9133C339.356 33.5702 338.013 34.9133 336.356 34.9133H4.35595C2.6991 34.9133 1.35596 33.5702 1.35596 31.9133V28.6523Z" fill="url(#paint1_linear_79_11614)"/>
<path d="M14.2031 8.71875H325.083V30.2829H14.2031V8.71875Z" fill="url(#paint2_linear_79_11614)"/>
<path d="M6.03711 3.29785C6.03711 1.641 7.38026 0.297852 9.03711 0.297852H328.825C330.482 0.297852 331.825 1.641 331.825 3.29785V11.9673C331.825 13.6241 330.482 14.9673 328.825 14.9673H9.03711C7.38025 14.9673 6.03711 13.6241 6.03711 11.9673V3.29785Z" fill="url(#paint3_linear_79_11614)"/>
<path d="M6.74951 25.9482C6.74951 24.2914 8.09266 22.9482 9.74951 22.9482H329.537C331.194 22.9482 332.537 24.2914 332.537 25.9482V34.6177C332.537 36.2745 331.194 37.6177 329.537 37.6177H9.74951C8.09265 37.6177 6.74951 36.2745 6.74951 34.6177V25.9482Z" fill="url(#paint4_linear_79_11614)"/>
<defs>
<linearGradient id="paint0_linear_79_11614" x1="169.644" y1="2.56201" x2="169.644" y2="11.823" gradientUnits="userSpaceOnUse">
<stop stop-color="#A17540"/>
<stop offset="0.291667" stop-color="#FFD177"/>
<stop offset="0.645833" stop-color="#CF9C2F"/>
<stop offset="1" stop-color="#A06500"/>
</linearGradient>
<linearGradient id="paint1_linear_79_11614" x1="170.356" y1="25.6523" x2="170.356" y2="34.9133" gradientUnits="userSpaceOnUse">
<stop stop-color="#A17540"/>
<stop offset="0.291667" stop-color="#FFD177"/>
<stop offset="0.645833" stop-color="#CF9C2F"/>
<stop offset="1" stop-color="#A06500"/>
</linearGradient>
<linearGradient id="paint2_linear_79_11614" x1="168.328" y1="8.58901" x2="168.385" y2="30.2864" gradientUnits="userSpaceOnUse">
<stop stop-color="#FFDE73"/>
<stop offset="0.255208" stop-color="#FFF8B6"/>
<stop offset="0.4375" stop-color="#FFF7C8"/>
<stop offset="0.8125" stop-color="#FFE27C"/>
<stop offset="1" stop-color="#FFD584"/>
</linearGradient>
<linearGradient id="paint3_linear_79_11614" x1="168.931" y1="0.297852" x2="168.931" y2="14.9673" gradientUnits="userSpaceOnUse">
<stop stop-color="#ECB87B"/>
<stop offset="0.223958" stop-color="#FFF8B6"/>
<stop offset="0.5625" stop-color="#FAD78C"/>
<stop offset="1" stop-color="#F5C87B"/>
</linearGradient>
<linearGradient id="paint4_linear_79_11614" x1="169.643" y1="22.9482" x2="169.643" y2="37.6177" gradientUnits="userSpaceOnUse">
<stop stop-color="#ECB87B"/>
<stop offset="0.223958" stop-color="#FFF8B6"/>
<stop offset="0.5625" stop-color="#FAD78C"/>
<stop offset="1" stop-color="#F5C87B"/>
</linearGradient>
</defs>
</svg>
