<svg width="290" height="353" viewBox="0 0 290 353" fill="none" xmlns="http://www.w3.org/2000/svg">
<path d="M287.827 146.46C287.827 225.884 223.975 290.243 145.243 290.243C66.5106 290.243 2.65886 225.884 2.65886 146.46C2.65886 67.0357 66.5106 2.67656 145.243 2.67656C223.975 2.67656 287.827 67.0357 287.827 146.46Z" fill="url(#paint0_linear_63_6516)" stroke="url(#paint1_linear_63_6516)" stroke-width="3.79502"/>
<g filter="url(#filter0_d_63_6516)">
<ellipse cx="240.071" cy="56.5029" rx="6.15933" ry="6.21046" fill="url(#paint2_linear_63_6516)"/>
<path d="M245.472 56.5029C245.472 59.5196 243.048 61.9544 240.071 61.9544C237.095 61.9544 234.671 59.5196 234.671 56.5029C234.671 53.4863 237.095 51.0515 240.071 51.0515C243.048 51.0515 245.472 53.4863 245.472 56.5029Z" stroke="url(#paint3_linear_63_6516)" stroke-width="1.51801"/>
</g>
<g filter="url(#filter1_d_63_6516)">
<ellipse cx="276.098" cy="146.46" rx="6.15933" ry="6.21046" fill="url(#paint4_linear_63_6516)"/>
<path d="M281.499 146.46C281.499 149.477 279.075 151.911 276.098 151.911C273.122 151.911 270.698 149.477 270.698 146.46C270.698 143.443 273.122 141.009 276.098 141.009C279.075 141.009 281.499 143.443 281.499 146.46Z" stroke="url(#paint5_linear_63_6516)" stroke-width="1.51801"/>
</g>
<g filter="url(#filter2_d_63_6516)">
<ellipse cx="240.071" cy="239.395" rx="6.15933" ry="6.21046" fill="url(#paint6_linear_63_6516)"/>
<path d="M245.472 239.395C245.472 242.411 243.048 244.846 240.071 244.846C237.095 244.846 234.671 242.411 234.671 239.395C234.671 236.378 237.095 233.943 240.071 233.943C243.048 233.943 245.472 236.378 245.472 239.395Z" stroke="url(#paint7_linear_63_6516)" stroke-width="1.51801"/>
</g>
<g filter="url(#filter3_d_63_6516)">
<ellipse cx="145.244" cy="277.327" rx="6.15933" ry="6.21046" fill="url(#paint8_linear_63_6516)"/>
<path d="M150.644 277.327C150.644 280.344 148.221 282.778 145.244 282.778C142.267 282.778 139.844 280.344 139.844 277.327C139.844 274.31 142.267 271.875 145.244 271.875C148.221 271.875 150.644 274.31 150.644 277.327Z" stroke="url(#paint9_linear_63_6516)" stroke-width="1.51801"/>
</g>
<g filter="url(#filter4_d_63_6516)">
<ellipse cx="51.9905" cy="239.395" rx="6.15933" ry="6.21046" fill="url(#paint10_linear_63_6516)"/>
<path d="M57.3908 239.395C57.3908 242.411 54.9671 244.846 51.9905 244.846C49.0139 244.846 46.5902 242.411 46.5902 239.395C46.5902 236.378 49.0139 233.943 51.9905 233.943C54.9671 233.943 57.3908 236.378 57.3908 239.395Z" stroke="url(#paint11_linear_63_6516)" stroke-width="1.51801"/>
</g>
<g filter="url(#filter5_d_63_6516)">
<ellipse cx="14.388" cy="146.46" rx="6.15933" ry="6.21046" fill="url(#paint12_linear_63_6516)"/>
<path d="M19.7883 146.46C19.7883 149.477 17.3646 151.911 14.388 151.911C11.4114 151.911 8.98764 149.477 8.98764 146.46C8.98764 143.443 11.4114 141.009 14.388 141.009C17.3646 141.009 19.7883 143.443 19.7883 146.46Z" stroke="url(#paint13_linear_63_6516)" stroke-width="1.51801"/>
</g>
<g filter="url(#filter6_d_63_6516)">
<ellipse cx="51.9905" cy="56.5029" rx="6.15933" ry="6.21046" fill="url(#paint14_linear_63_6516)"/>
<path d="M57.3908 56.5029C57.3908 59.5196 54.9671 61.9544 51.9905 61.9544C49.0139 61.9544 46.5902 59.5196 46.5902 56.5029C46.5902 53.4863 49.0139 51.0515 51.9905 51.0515C54.9671 51.0515 57.3908 53.4863 57.3908 56.5029Z" stroke="url(#paint15_linear_63_6516)" stroke-width="1.51801"/>
</g>
<mask id="path-16-inside-1_63_6516" fill="white">
<path fill-rule="evenodd" clip-rule="evenodd" d="M96.6369 287.428L59.5304 340.305C56.0008 345.334 59.5987 352.255 65.7433 352.255H224.744C230.872 352.255 234.474 345.367 230.977 340.334L194.122 287.288C178.876 292.964 162.392 296.064 145.19 296.064C128.13 296.064 111.777 293.015 96.6369 287.428Z"/>
</mask>
<path fill-rule="evenodd" clip-rule="evenodd" d="M96.6369 287.428L59.5304 340.305C56.0008 345.334 59.5987 352.255 65.7433 352.255H224.744C230.872 352.255 234.474 345.367 230.977 340.334L194.122 287.288C178.876 292.964 162.392 296.064 145.19 296.064C128.13 296.064 111.777 293.015 96.6369 287.428Z" fill="url(#paint16_linear_63_6516)"/>
<path d="M59.5304 340.305L62.6368 342.485L59.5304 340.305ZM96.6369 287.428L97.9506 283.868L95.2091 282.856L93.5304 285.248L96.6369 287.428ZM230.977 340.334L227.861 342.499V342.499L230.977 340.334ZM194.122 287.288L197.239 285.122L195.558 282.704L192.798 283.731L194.122 287.288ZM62.6368 342.485L99.7433 289.608L93.5304 285.248L56.424 338.125L62.6368 342.485ZM65.7433 348.459C62.671 348.459 60.872 344.999 62.6368 342.485L56.424 338.125C51.1295 345.669 56.5264 356.05 65.7433 356.05V348.459ZM224.744 348.459H65.7433V356.05H224.744V348.459ZM227.861 342.499C229.609 345.016 227.808 348.459 224.744 348.459V356.05C233.937 356.05 239.339 345.718 234.094 338.168L227.861 342.499ZM191.006 289.453L227.861 342.499L234.094 338.168L197.239 285.122L191.006 289.453ZM192.798 283.731C177.969 289.252 161.933 292.269 145.19 292.269V299.859C162.851 299.859 179.783 296.676 195.446 290.844L192.798 283.731ZM145.19 292.269C128.586 292.269 112.677 289.302 97.9506 283.868L95.3231 290.989C110.877 296.728 127.675 299.859 145.19 299.859V292.269Z" fill="url(#paint17_linear_63_6516)" mask="url(#path-16-inside-1_63_6516)"/>
<ellipse cx="145.243" cy="146.211" rx="119.91" ry="120.906" fill="white"/>
<defs>
<filter id="filter0_d_63_6516" x="232.394" y="50.2925" width="15.3547" height="15.4569" filterUnits="userSpaceOnUse" color-interpolation-filters="sRGB">
<feFlood flood-opacity="0" result="BackgroundImageFix"/>
<feColorMatrix in="SourceAlpha" type="matrix" values="0 0 0 0 0 0 0 0 0 0 0 0 0 0 0 0 0 0 127 0" result="hardAlpha"/>
<feOffset dy="1.51801"/>
<feGaussianBlur stdDeviation="0.759003"/>
<feComposite in2="hardAlpha" operator="out"/>
<feColorMatrix type="matrix" values="0 0 0 0 0 0 0 0 0 0 0 0 0 0 0 0 0 0 0.24 0"/>
<feBlend mode="normal" in2="BackgroundImageFix" result="effect1_dropShadow_63_6516"/>
<feBlend mode="normal" in="SourceGraphic" in2="effect1_dropShadow_63_6516" result="shape"/>
</filter>
<filter id="filter1_d_63_6516" x="268.421" y="140.25" width="15.3547" height="15.4569" filterUnits="userSpaceOnUse" color-interpolation-filters="sRGB">
<feFlood flood-opacity="0" result="BackgroundImageFix"/>
<feColorMatrix in="SourceAlpha" type="matrix" values="0 0 0 0 0 0 0 0 0 0 0 0 0 0 0 0 0 0 127 0" result="hardAlpha"/>
<feOffset dy="1.51801"/>
<feGaussianBlur stdDeviation="0.759003"/>
<feComposite in2="hardAlpha" operator="out"/>
<feColorMatrix type="matrix" values="0 0 0 0 0 0 0 0 0 0 0 0 0 0 0 0 0 0 0.24 0"/>
<feBlend mode="normal" in2="BackgroundImageFix" result="effect1_dropShadow_63_6516"/>
<feBlend mode="normal" in="SourceGraphic" in2="effect1_dropShadow_63_6516" result="shape"/>
</filter>
<filter id="filter2_d_63_6516" x="232.394" y="233.184" width="15.3547" height="15.4569" filterUnits="userSpaceOnUse" color-interpolation-filters="sRGB">
<feFlood flood-opacity="0" result="BackgroundImageFix"/>
<feColorMatrix in="SourceAlpha" type="matrix" values="0 0 0 0 0 0 0 0 0 0 0 0 0 0 0 0 0 0 127 0" result="hardAlpha"/>
<feOffset dy="1.51801"/>
<feGaussianBlur stdDeviation="0.759003"/>
<feComposite in2="hardAlpha" operator="out"/>
<feColorMatrix type="matrix" values="0 0 0 0 0 0 0 0 0 0 0 0 0 0 0 0 0 0 0.24 0"/>
<feBlend mode="normal" in2="BackgroundImageFix" result="effect1_dropShadow_63_6516"/>
<feBlend mode="normal" in="SourceGraphic" in2="effect1_dropShadow_63_6516" result="shape"/>
</filter>
<filter id="filter3_d_63_6516" x="137.567" y="271.116" width="15.3547" height="15.4569" filterUnits="userSpaceOnUse" color-interpolation-filters="sRGB">
<feFlood flood-opacity="0" result="BackgroundImageFix"/>
<feColorMatrix in="SourceAlpha" type="matrix" values="0 0 0 0 0 0 0 0 0 0 0 0 0 0 0 0 0 0 127 0" result="hardAlpha"/>
<feOffset dy="1.51801"/>
<feGaussianBlur stdDeviation="0.759003"/>
<feComposite in2="hardAlpha" operator="out"/>
<feColorMatrix type="matrix" values="0 0 0 0 0 0 0 0 0 0 0 0 0 0 0 0 0 0 0.24 0"/>
<feBlend mode="normal" in2="BackgroundImageFix" result="effect1_dropShadow_63_6516"/>
<feBlend mode="normal" in="SourceGraphic" in2="effect1_dropShadow_63_6516" result="shape"/>
</filter>
<filter id="filter4_d_63_6516" x="44.3132" y="233.184" width="15.3547" height="15.4569" filterUnits="userSpaceOnUse" color-interpolation-filters="sRGB">
<feFlood flood-opacity="0" result="BackgroundImageFix"/>
<feColorMatrix in="SourceAlpha" type="matrix" values="0 0 0 0 0 0 0 0 0 0 0 0 0 0 0 0 0 0 127 0" result="hardAlpha"/>
<feOffset dy="1.51801"/>
<feGaussianBlur stdDeviation="0.759003"/>
<feComposite in2="hardAlpha" operator="out"/>
<feColorMatrix type="matrix" values="0 0 0 0 0 0 0 0 0 0 0 0 0 0 0 0 0 0 0.24 0"/>
<feBlend mode="normal" in2="BackgroundImageFix" result="effect1_dropShadow_63_6516"/>
<feBlend mode="normal" in="SourceGraphic" in2="effect1_dropShadow_63_6516" result="shape"/>
</filter>
<filter id="filter5_d_63_6516" x="6.71063" y="140.25" width="15.3547" height="15.4569" filterUnits="userSpaceOnUse" color-interpolation-filters="sRGB">
<feFlood flood-opacity="0" result="BackgroundImageFix"/>
<feColorMatrix in="SourceAlpha" type="matrix" values="0 0 0 0 0 0 0 0 0 0 0 0 0 0 0 0 0 0 127 0" result="hardAlpha"/>
<feOffset dy="1.51801"/>
<feGaussianBlur stdDeviation="0.759003"/>
<feComposite in2="hardAlpha" operator="out"/>
<feColorMatrix type="matrix" values="0 0 0 0 0 0 0 0 0 0 0 0 0 0 0 0 0 0 0.24 0"/>
<feBlend mode="normal" in2="BackgroundImageFix" result="effect1_dropShadow_63_6516"/>
<feBlend mode="normal" in="SourceGraphic" in2="effect1_dropShadow_63_6516" result="shape"/>
</filter>
<filter id="filter6_d_63_6516" x="44.3132" y="50.2925" width="15.3547" height="15.4569" filterUnits="userSpaceOnUse" color-interpolation-filters="sRGB">
<feFlood flood-opacity="0" result="BackgroundImageFix"/>
<feColorMatrix in="SourceAlpha" type="matrix" values="0 0 0 0 0 0 0 0 0 0 0 0 0 0 0 0 0 0 127 0" result="hardAlpha"/>
<feOffset dy="1.51801"/>
<feGaussianBlur stdDeviation="0.759003"/>
<feComposite in2="hardAlpha" operator="out"/>
<feColorMatrix type="matrix" values="0 0 0 0 0 0 0 0 0 0 0 0 0 0 0 0 0 0 0.24 0"/>
<feBlend mode="normal" in2="BackgroundImageFix" result="effect1_dropShadow_63_6516"/>
<feBlend mode="normal" in="SourceGraphic" in2="effect1_dropShadow_63_6516" result="shape"/>
</filter>
<linearGradient id="paint0_linear_63_6516" x1="145.243" y1="0.779053" x2="145.243" y2="292.141" gradientUnits="userSpaceOnUse">
<stop stop-color="#969696"/>
<stop offset="1"/>
</linearGradient>
<linearGradient id="paint1_linear_63_6516" x1="54.0652" y1="16.1133" x2="145.243" y2="292.141" gradientUnits="userSpaceOnUse">
<stop/>
<stop offset="1" stop-color="#8C8C8C"/>
</linearGradient>
<linearGradient id="paint2_linear_63_6516" x1="233.912" y1="52.5105" x2="240.146" y2="62.6676" gradientUnits="userSpaceOnUse">
<stop stop-color="#FFE978"/>
<stop offset="1" stop-color="#FF9D2A"/>
</linearGradient>
<linearGradient id="paint3_linear_63_6516" x1="240.071" y1="50.2925" x2="240.071" y2="62.7134" gradientUnits="userSpaceOnUse">
<stop stop-color="white"/>
<stop offset="1" stop-color="#FFBA48"/>
</linearGradient>
<linearGradient id="paint4_linear_63_6516" x1="269.939" y1="142.468" x2="276.173" y2="152.625" gradientUnits="userSpaceOnUse">
<stop stop-color="#FFE978"/>
<stop offset="1" stop-color="#FF9D2A"/>
</linearGradient>
<linearGradient id="paint5_linear_63_6516" x1="276.098" y1="140.25" x2="276.098" y2="152.67" gradientUnits="userSpaceOnUse">
<stop stop-color="white"/>
<stop offset="1" stop-color="#FFBA48"/>
</linearGradient>
<linearGradient id="paint6_linear_63_6516" x1="233.912" y1="235.402" x2="240.146" y2="245.559" gradientUnits="userSpaceOnUse">
<stop stop-color="#FFE978"/>
<stop offset="1" stop-color="#FF9D2A"/>
</linearGradient>
<linearGradient id="paint7_linear_63_6516" x1="240.071" y1="233.184" x2="240.071" y2="245.605" gradientUnits="userSpaceOnUse">
<stop stop-color="white"/>
<stop offset="1" stop-color="#FFBA48"/>
</linearGradient>
<linearGradient id="paint8_linear_63_6516" x1="139.085" y1="273.334" x2="145.319" y2="283.492" gradientUnits="userSpaceOnUse">
<stop stop-color="#FFE978"/>
<stop offset="1" stop-color="#FF9D2A"/>
</linearGradient>
<linearGradient id="paint9_linear_63_6516" x1="145.244" y1="271.116" x2="145.244" y2="283.537" gradientUnits="userSpaceOnUse">
<stop stop-color="white"/>
<stop offset="1" stop-color="#FFBA48"/>
</linearGradient>
<linearGradient id="paint10_linear_63_6516" x1="45.8312" y1="235.402" x2="52.0651" y2="245.559" gradientUnits="userSpaceOnUse">
<stop stop-color="#FFE978"/>
<stop offset="1" stop-color="#FF9D2A"/>
</linearGradient>
<linearGradient id="paint11_linear_63_6516" x1="51.9905" y1="233.184" x2="51.9905" y2="245.605" gradientUnits="userSpaceOnUse">
<stop stop-color="white"/>
<stop offset="1" stop-color="#FFBA48"/>
</linearGradient>
<linearGradient id="paint12_linear_63_6516" x1="8.22864" y1="142.468" x2="14.4626" y2="152.625" gradientUnits="userSpaceOnUse">
<stop stop-color="#FFE978"/>
<stop offset="1" stop-color="#FF9D2A"/>
</linearGradient>
<linearGradient id="paint13_linear_63_6516" x1="14.388" y1="140.25" x2="14.388" y2="152.67" gradientUnits="userSpaceOnUse">
<stop stop-color="white"/>
<stop offset="1" stop-color="#FFBA48"/>
</linearGradient>
<linearGradient id="paint14_linear_63_6516" x1="45.8312" y1="52.5105" x2="52.0651" y2="62.6676" gradientUnits="userSpaceOnUse">
<stop stop-color="#FFE978"/>
<stop offset="1" stop-color="#FF9D2A"/>
</linearGradient>
<linearGradient id="paint15_linear_63_6516" x1="51.9905" y1="50.2925" x2="51.9905" y2="62.7134" gradientUnits="userSpaceOnUse">
<stop stop-color="white"/>
<stop offset="1" stop-color="#FFBA48"/>
</linearGradient>
<linearGradient id="paint16_linear_63_6516" x1="145.244" y1="287.288" x2="145.244" y2="352.254" gradientUnits="userSpaceOnUse">
<stop/>
<stop offset="1" stop-color="#A1A1A1"/>
</linearGradient>
<linearGradient id="paint17_linear_63_6516" x1="92.467" y1="287.288" x2="145.244" y2="352.254" gradientUnits="userSpaceOnUse">
<stop stop-color="#878787"/>
<stop offset="1"/>
</linearGradient>
</defs>
</svg>
