<svg width="331" height="387" viewBox="0 0 331 387" fill="none" xmlns="http://www.w3.org/2000/svg">
<g filter="url(#filter0_d_79_9797)">
<path d="M274.359 334.792C274.911 333.298 277.024 333.298 277.577 334.792L280.328 342.228C280.502 342.697 280.873 343.068 281.342 343.242L288.778 345.993C290.272 346.546 290.272 348.659 288.778 349.211L281.342 351.963C280.873 352.137 280.502 352.507 280.328 352.977L277.577 360.412C277.024 361.906 274.911 361.906 274.359 360.412L271.607 352.977C271.433 352.507 271.063 352.137 270.593 351.963L263.158 349.211C261.664 348.659 261.664 346.546 263.158 345.993L270.593 343.242C271.063 343.068 271.433 342.697 271.607 342.228L274.359 334.792Z" fill="url(#paint0_linear_79_9797)"/>
</g>
<g filter="url(#filter1_d_79_9797)">
<path d="M287.676 70.4469C287.952 69.7 289.009 69.7 289.285 70.4469L290.661 74.1646C290.748 74.3995 290.933 74.5846 291.168 74.6715L294.886 76.0472C295.633 76.3236 295.633 77.38 294.886 77.6564L291.168 79.0321C290.933 79.119 290.748 79.3041 290.661 79.539L289.285 83.2567C289.009 84.0036 287.952 84.0036 287.676 83.2567L286.3 79.539C286.214 79.3041 286.028 79.119 285.794 79.0321L282.076 77.6564C281.329 77.38 281.329 76.3236 282.076 76.0472L285.794 74.6715C286.028 74.5846 286.214 74.3995 286.3 74.1646L287.676 70.4469Z" fill="url(#paint1_linear_79_9797)"/>
</g>
<g filter="url(#filter2_d_79_9797)">
<path d="M302.333 296.724C302.499 296.274 303.135 296.274 303.301 296.724L304.129 298.961C304.181 299.102 304.293 299.214 304.434 299.266L306.671 300.094C307.121 300.26 307.121 300.896 306.671 301.062L304.434 301.89C304.293 301.942 304.181 302.054 304.129 302.195L303.301 304.432C303.135 304.882 302.499 304.882 302.333 304.432L301.505 302.195C301.453 302.054 301.341 301.942 301.2 301.89L298.963 301.062C298.513 300.896 298.513 300.26 298.963 300.094L301.2 299.266C301.341 299.214 301.453 299.102 301.505 298.961L302.333 296.724Z" fill="url(#paint2_linear_79_9797)"/>
</g>
<g filter="url(#filter3_d_79_9797)">
<path d="M81.9763 1.20169C82.389 0.0864154 83.9664 0.086414 84.3791 1.20169L86.4332 6.75279C86.563 7.10343 86.8394 7.37989 87.1901 7.50964L92.7412 9.56373C93.8565 9.97642 93.8565 11.5539 92.7412 11.9665L87.1901 14.0206C86.8394 14.1504 86.563 14.4268 86.4332 14.7775L84.3791 20.3286C83.9665 21.4439 82.389 21.4439 81.9763 20.3286L79.9222 14.7775C79.7925 14.4268 79.516 14.1504 79.1654 14.0206L73.6143 11.9665C72.499 11.5539 72.499 9.97642 73.6143 9.56373L79.1654 7.50964C79.516 7.37989 79.7925 7.10343 79.9222 6.75279L81.9763 1.20169Z" fill="url(#paint3_linear_79_9797)"/>
</g>
<g filter="url(#filter4_d_79_9797)">
<path d="M28.1834 377.386C28.596 378.501 30.1735 378.501 30.5862 377.386L32.6403 371.835C32.77 371.484 33.0465 371.208 33.3971 371.078L38.9482 369.024C40.0635 368.611 40.0635 367.034 38.9482 366.621L33.3971 364.567C33.0465 364.438 32.77 364.161 32.6403 363.81L30.5862 358.259C30.1735 357.144 28.596 357.144 28.1834 358.259L26.1293 363.81C25.9995 364.161 25.7231 364.438 25.3724 364.567L19.8213 366.621C18.706 367.034 18.706 368.611 19.8213 369.024L25.3724 371.078C25.7231 371.208 25.9995 371.484 26.1293 371.835L28.1834 377.386Z" fill="url(#paint4_linear_79_9797)"/>
</g>
<path d="M11.1357 78.6406V100.427" stroke="url(#paint5_linear_79_9797)" stroke-width="3"/>
<path d="M22.0288 89.5337L0.242676 89.5337" stroke="url(#paint6_linear_79_9797)" stroke-width="3"/>
<path d="M18.9849 81.9805L3.28679 97.087" stroke="url(#paint7_linear_79_9797)" stroke-width="3"/>
<path d="M18.8384 97.2363L3.43326 81.8312" stroke="url(#paint8_linear_79_9797)" stroke-width="3"/>
<path d="M322.93 141.401V157.028" stroke="url(#paint9_linear_79_9797)" stroke-width="3"/>
<path d="M315.116 149.215L330.743 149.215" stroke="url(#paint10_linear_79_9797)" stroke-width="3"/>
<path d="M317.3 143.796L328.56 154.632" stroke="url(#paint11_linear_79_9797)" stroke-width="3"/>
<path d="M317.405 154.74L328.455 143.69" stroke="url(#paint12_linear_79_9797)" stroke-width="3"/>
<path d="M18.9854 290.9V300.578" stroke="url(#paint13_linear_79_9797)"/>
<path d="M14.146 295.739L23.8237 295.739" stroke="url(#paint14_linear_79_9797)"/>
<path d="M15.4985 292.384L22.4719 299.094" stroke="url(#paint15_linear_79_9797)"/>
<path d="M15.563 299.161L22.4062 292.318" stroke="url(#paint16_linear_79_9797)"/>
<defs>
<filter id="filter0_d_79_9797" x="258.038" y="333.672" width="35.8604" height="35.8604" filterUnits="userSpaceOnUse" color-interpolation-filters="sRGB">
<feFlood flood-opacity="0" result="BackgroundImageFix"/>
<feColorMatrix in="SourceAlpha" type="matrix" values="0 0 0 0 0 0 0 0 0 0 0 0 0 0 0 0 0 0 127 0" result="hardAlpha"/>
<feOffset dy="4"/>
<feGaussianBlur stdDeviation="2"/>
<feComposite in2="hardAlpha" operator="out"/>
<feColorMatrix type="matrix" values="0 0 0 0 1 0 0 0 0 0.646056 0 0 0 0 0.230555 0 0 0 0.18 0"/>
<feBlend mode="normal" in2="BackgroundImageFix" result="effect1_dropShadow_79_9797"/>
<feBlend mode="normal" in="SourceGraphic" in2="effect1_dropShadow_79_9797" result="shape"/>
</filter>
<filter id="filter1_d_79_9797" x="277.516" y="69.8867" width="21.9302" height="21.9302" filterUnits="userSpaceOnUse" color-interpolation-filters="sRGB">
<feFlood flood-opacity="0" result="BackgroundImageFix"/>
<feColorMatrix in="SourceAlpha" type="matrix" values="0 0 0 0 0 0 0 0 0 0 0 0 0 0 0 0 0 0 127 0" result="hardAlpha"/>
<feOffset dy="4"/>
<feGaussianBlur stdDeviation="2"/>
<feComposite in2="hardAlpha" operator="out"/>
<feColorMatrix type="matrix" values="0 0 0 0 1 0 0 0 0 0.646056 0 0 0 0 0.230555 0 0 0 0.18 0"/>
<feBlend mode="normal" in2="BackgroundImageFix" result="effect1_dropShadow_79_9797"/>
<feBlend mode="normal" in="SourceGraphic" in2="effect1_dropShadow_79_9797" result="shape"/>
</filter>
<filter id="filter2_d_79_9797" x="294.625" y="296.387" width="16.3828" height="16.3828" filterUnits="userSpaceOnUse" color-interpolation-filters="sRGB">
<feFlood flood-opacity="0" result="BackgroundImageFix"/>
<feColorMatrix in="SourceAlpha" type="matrix" values="0 0 0 0 0 0 0 0 0 0 0 0 0 0 0 0 0 0 127 0" result="hardAlpha"/>
<feOffset dy="4"/>
<feGaussianBlur stdDeviation="2"/>
<feComposite in2="hardAlpha" operator="out"/>
<feColorMatrix type="matrix" values="0 0 0 0 1 0 0 0 0 0.646056 0 0 0 0 0.230555 0 0 0 0.18 0"/>
<feBlend mode="normal" in2="BackgroundImageFix" result="effect1_dropShadow_79_9797"/>
<feBlend mode="normal" in="SourceGraphic" in2="effect1_dropShadow_79_9797" result="shape"/>
</filter>
<filter id="filter3_d_79_9797" x="68.7778" y="0.365234" width="28.7998" height="28.7998" filterUnits="userSpaceOnUse" color-interpolation-filters="sRGB">
<feFlood flood-opacity="0" result="BackgroundImageFix"/>
<feColorMatrix in="SourceAlpha" type="matrix" values="0 0 0 0 0 0 0 0 0 0 0 0 0 0 0 0 0 0 127 0" result="hardAlpha"/>
<feOffset dy="4"/>
<feGaussianBlur stdDeviation="2"/>
<feComposite in2="hardAlpha" operator="out"/>
<feColorMatrix type="matrix" values="0 0 0 0 1 0 0 0 0 0.646056 0 0 0 0 0.230555 0 0 0 0.18 0"/>
<feBlend mode="normal" in2="BackgroundImageFix" result="effect1_dropShadow_79_9797"/>
<feBlend mode="normal" in="SourceGraphic" in2="effect1_dropShadow_79_9797" result="shape"/>
</filter>
<filter id="filter4_d_79_9797" x="14.9849" y="357.423" width="28.7998" height="28.7998" filterUnits="userSpaceOnUse" color-interpolation-filters="sRGB">
<feFlood flood-opacity="0" result="BackgroundImageFix"/>
<feColorMatrix in="SourceAlpha" type="matrix" values="0 0 0 0 0 0 0 0 0 0 0 0 0 0 0 0 0 0 127 0" result="hardAlpha"/>
<feOffset dy="4"/>
<feGaussianBlur stdDeviation="2"/>
<feComposite in2="hardAlpha" operator="out"/>
<feColorMatrix type="matrix" values="0 0 0 0 1 0 0 0 0 0.646056 0 0 0 0 0.230555 0 0 0 0.18 0"/>
<feBlend mode="normal" in2="BackgroundImageFix" result="effect1_dropShadow_79_9797"/>
<feBlend mode="normal" in="SourceGraphic" in2="effect1_dropShadow_79_9797" result="shape"/>
</filter>
<linearGradient id="paint0_linear_79_9797" x1="275.968" y1="333.672" x2="275.968" y2="361.532" gradientUnits="userSpaceOnUse">
<stop stop-color="white"/>
<stop offset="1" stop-color="#FFD93D"/>
</linearGradient>
<linearGradient id="paint1_linear_79_9797" x1="288.481" y1="69.8867" x2="288.481" y2="83.8169" gradientUnits="userSpaceOnUse">
<stop stop-color="white"/>
<stop offset="1" stop-color="#FFD93D"/>
</linearGradient>
<linearGradient id="paint2_linear_79_9797" x1="302.817" y1="296.387" x2="302.817" y2="304.77" gradientUnits="userSpaceOnUse">
<stop stop-color="white"/>
<stop offset="1" stop-color="#FFD93D"/>
</linearGradient>
<linearGradient id="paint3_linear_79_9797" x1="83.1777" y1="0.365234" x2="83.1777" y2="21.165" gradientUnits="userSpaceOnUse">
<stop stop-color="white"/>
<stop offset="1" stop-color="#FFD93D"/>
</linearGradient>
<linearGradient id="paint4_linear_79_9797" x1="29.3848" y1="378.223" x2="29.3848" y2="357.423" gradientUnits="userSpaceOnUse">
<stop stop-color="white"/>
<stop offset="1" stop-color="#FFC93D"/>
</linearGradient>
<linearGradient id="paint5_linear_79_9797" x1="11.6357" y1="78.6406" x2="11.6357" y2="100.427" gradientUnits="userSpaceOnUse">
<stop stop-color="#CEFF9E"/>
<stop offset="1" stop-color="white"/>
</linearGradient>
<linearGradient id="paint6_linear_79_9797" x1="22.0288" y1="90.0337" x2="0.242676" y2="90.0337" gradientUnits="userSpaceOnUse">
<stop stop-color="#CEFF9E"/>
<stop offset="1" stop-color="white"/>
</linearGradient>
<linearGradient id="paint7_linear_79_9797" x1="19.3316" y1="82.3407" x2="3.63349" y2="97.4472" gradientUnits="userSpaceOnUse">
<stop stop-color="#CEFF9E"/>
<stop offset="1" stop-color="white"/>
</linearGradient>
<linearGradient id="paint8_linear_79_9797" x1="18.4848" y1="97.5899" x2="3.0797" y2="82.1848" gradientUnits="userSpaceOnUse">
<stop stop-color="#CEFF9E"/>
<stop offset="1" stop-color="white"/>
</linearGradient>
<linearGradient id="paint9_linear_79_9797" x1="322.43" y1="141.401" x2="322.43" y2="157.028" gradientUnits="userSpaceOnUse">
<stop stop-color="#FFD2F5"/>
<stop offset="1" stop-color="white"/>
</linearGradient>
<linearGradient id="paint10_linear_79_9797" x1="315.116" y1="149.715" x2="330.743" y2="149.715" gradientUnits="userSpaceOnUse">
<stop stop-color="#FFD2F5"/>
<stop offset="1" stop-color="white"/>
</linearGradient>
<linearGradient id="paint11_linear_79_9797" x1="316.953" y1="144.157" x2="328.213" y2="154.992" gradientUnits="userSpaceOnUse">
<stop stop-color="#FFD2F5"/>
<stop offset="1" stop-color="white"/>
</linearGradient>
<linearGradient id="paint12_linear_79_9797" x1="317.758" y1="155.093" x2="328.808" y2="144.043" gradientUnits="userSpaceOnUse">
<stop stop-color="#FFD2F5"/>
<stop offset="1" stop-color="white"/>
</linearGradient>
<linearGradient id="paint13_linear_79_9797" x1="18.4854" y1="290.9" x2="18.4854" y2="300.578" gradientUnits="userSpaceOnUse">
<stop stop-color="#FFD2F5"/>
<stop offset="1" stop-color="white"/>
</linearGradient>
<linearGradient id="paint14_linear_79_9797" x1="14.146" y1="296.239" x2="23.8237" y2="296.239" gradientUnits="userSpaceOnUse">
<stop stop-color="#FFD2F5"/>
<stop offset="1" stop-color="white"/>
</linearGradient>
<linearGradient id="paint15_linear_79_9797" x1="15.1518" y1="292.744" x2="22.1252" y2="299.455" gradientUnits="userSpaceOnUse">
<stop stop-color="#FFD2F5"/>
<stop offset="1" stop-color="white"/>
</linearGradient>
<linearGradient id="paint16_linear_79_9797" x1="15.9165" y1="299.515" x2="22.7597" y2="292.671" gradientUnits="userSpaceOnUse">
<stop stop-color="#FFD2F5"/>
<stop offset="1" stop-color="white"/>
</linearGradient>
</defs>
</svg>
