<svg width="336" height="345" viewBox="0 0 336 345" fill="none" xmlns="http://www.w3.org/2000/svg">
<g filter="url(#filter0_d_79_9608)">
<path d="M278.612 1.32133C279.164 -0.17254 281.277 -0.172542 281.83 1.32133L284.581 8.75682C284.755 9.22649 285.126 9.59679 285.595 9.77058L293.031 12.522C294.525 13.0747 294.525 15.1877 293.031 15.7404L285.595 18.4918C285.126 18.6656 284.755 19.0359 284.581 19.5056L281.83 26.9411C281.277 28.4349 279.164 28.4349 278.612 26.9411L275.86 19.5056C275.686 19.0359 275.316 18.6656 274.846 18.4918L267.411 15.7404C265.917 15.1877 265.917 13.0747 267.411 12.522L274.846 9.77058C275.316 9.59679 275.686 9.22649 275.86 8.75682L278.612 1.32133Z" fill="url(#paint0_linear_79_9608)"/>
</g>
<g filter="url(#filter1_d_79_9608)">
<path d="M304.322 55.2677C304.598 54.5208 305.654 54.5208 305.931 55.2677L307.307 58.9854C307.393 59.2203 307.579 59.4054 307.813 59.4923L311.531 60.868C312.278 61.1444 312.278 62.2008 311.531 62.4772L307.813 63.8529C307.579 63.9398 307.393 64.1249 307.307 64.3598L305.931 68.0775C305.654 68.8244 304.598 68.8244 304.322 68.0775L302.946 64.3598C302.859 64.1249 302.674 63.9398 302.439 63.8529L298.721 62.4772C297.974 62.2008 297.974 61.1444 298.721 60.868L302.439 59.4923C302.674 59.4054 302.859 59.2203 302.946 58.9854L304.322 55.2677Z" fill="url(#paint1_linear_79_9608)"/>
</g>
<g filter="url(#filter2_d_79_9608)">
<path d="M23.092 39.1887C23.2583 38.7392 23.894 38.7392 24.0604 39.1887L24.8882 41.4259C24.9405 41.5672 25.0519 41.6786 25.1932 41.7309L27.4305 42.5588C27.8799 42.7251 27.8799 43.3608 27.4305 43.5272L25.1932 44.355C25.0519 44.4073 24.9405 44.5187 24.8882 44.66L24.0604 46.8973C23.894 47.3467 23.2583 47.3467 23.092 46.8973L22.2641 44.66C22.2118 44.5187 22.1004 44.4073 21.9591 44.355L19.7219 43.5272C19.2724 43.3608 19.2724 42.7251 19.7219 42.5588L21.9591 41.7309C22.1004 41.6786 22.2118 41.5672 22.2641 41.4259L23.092 39.1887Z" fill="url(#paint2_linear_79_9608)"/>
</g>
<g filter="url(#filter3_d_79_9608)">
<path d="M319.835 221.731C320.248 220.616 321.825 220.616 322.238 221.731L324.292 227.282C324.422 227.633 324.698 227.909 325.049 228.039L330.6 230.093C331.715 230.506 331.715 232.083 330.6 232.496L325.049 234.55C324.698 234.68 324.422 234.956 324.292 235.307L322.238 240.858C321.825 241.973 320.248 241.973 319.835 240.858L317.781 235.307C317.651 234.956 317.375 234.68 317.024 234.55L311.473 232.496C310.358 232.083 310.358 230.506 311.473 230.093L317.024 228.039C317.375 227.909 317.651 227.633 317.781 227.282L319.835 221.731Z" fill="url(#paint3_linear_79_9608)"/>
</g>
<g filter="url(#filter4_d_79_9608)">
<path d="M15.3259 319.755C15.7386 320.87 17.3161 320.87 17.7287 319.755L19.7828 314.204C19.9126 313.853 20.189 313.577 20.5397 313.447L26.0908 311.393C27.2061 310.98 27.2061 309.403 26.0908 308.99L20.5397 306.936C20.189 306.806 19.9126 306.53 19.7828 306.179L17.7288 300.628C17.3161 299.513 15.7386 299.513 15.3259 300.628L13.2718 306.179C13.1421 306.53 12.8656 306.806 12.515 306.936L6.9639 308.99C5.84862 309.403 5.84862 310.98 6.9639 311.393L12.515 313.447C12.8656 313.577 13.1421 313.853 13.2718 314.204L15.3259 319.755Z" fill="url(#paint4_linear_79_9608)"/>
</g>
<path d="M11.5356 60.4368V82.2229" stroke="url(#paint5_linear_79_9608)" stroke-width="3"/>
<path d="M22.4287 71.3298L0.642578 71.3298" stroke="url(#paint6_linear_79_9608)" stroke-width="3"/>
<path d="M19.3848 63.7766L3.6867 78.8831" stroke="url(#paint7_linear_79_9608)" stroke-width="3"/>
<path d="M19.2383 79.0325L3.83316 63.6273" stroke="url(#paint8_linear_79_9608)" stroke-width="3"/>
<path d="M274.696 328.808V344.435" stroke="url(#paint9_linear_79_9608)" stroke-width="3"/>
<path d="M266.882 336.622L282.509 336.622" stroke="url(#paint10_linear_79_9608)" stroke-width="3"/>
<path d="M269.066 331.204L280.326 342.039" stroke="url(#paint11_linear_79_9608)" stroke-width="3"/>
<path d="M269.171 342.147L280.221 331.097" stroke="url(#paint12_linear_79_9608)" stroke-width="3"/>
<path d="M30.3496 263.211V272.889" stroke="url(#paint13_linear_79_9608)"/>
<path d="M25.5103 268.05L35.188 268.05" stroke="url(#paint14_linear_79_9608)"/>
<path d="M26.8628 264.695L33.8361 271.405" stroke="url(#paint15_linear_79_9608)"/>
<path d="M26.9272 271.472L33.7704 264.628" stroke="url(#paint16_linear_79_9608)"/>
<defs>
<filter id="filter0_d_79_9608" x="262.291" y="0.200928" width="35.8604" height="35.8606" filterUnits="userSpaceOnUse" color-interpolation-filters="sRGB">
<feFlood flood-opacity="0" result="BackgroundImageFix"/>
<feColorMatrix in="SourceAlpha" type="matrix" values="0 0 0 0 0 0 0 0 0 0 0 0 0 0 0 0 0 0 127 0" result="hardAlpha"/>
<feOffset dy="4"/>
<feGaussianBlur stdDeviation="2"/>
<feComposite in2="hardAlpha" operator="out"/>
<feColorMatrix type="matrix" values="0 0 0 0 1 0 0 0 0 0.646056 0 0 0 0 0.230555 0 0 0 0.18 0"/>
<feBlend mode="normal" in2="BackgroundImageFix" result="effect1_dropShadow_79_9608"/>
<feBlend mode="normal" in="SourceGraphic" in2="effect1_dropShadow_79_9608" result="shape"/>
</filter>
<filter id="filter1_d_79_9608" x="294.161" y="54.7075" width="21.9302" height="21.9302" filterUnits="userSpaceOnUse" color-interpolation-filters="sRGB">
<feFlood flood-opacity="0" result="BackgroundImageFix"/>
<feColorMatrix in="SourceAlpha" type="matrix" values="0 0 0 0 0 0 0 0 0 0 0 0 0 0 0 0 0 0 127 0" result="hardAlpha"/>
<feOffset dy="4"/>
<feGaussianBlur stdDeviation="2"/>
<feComposite in2="hardAlpha" operator="out"/>
<feColorMatrix type="matrix" values="0 0 0 0 1 0 0 0 0 0.646056 0 0 0 0 0.230555 0 0 0 0.18 0"/>
<feBlend mode="normal" in2="BackgroundImageFix" result="effect1_dropShadow_79_9608"/>
<feBlend mode="normal" in="SourceGraphic" in2="effect1_dropShadow_79_9608" result="shape"/>
</filter>
<filter id="filter2_d_79_9608" x="15.3848" y="38.8516" width="16.3828" height="16.3828" filterUnits="userSpaceOnUse" color-interpolation-filters="sRGB">
<feFlood flood-opacity="0" result="BackgroundImageFix"/>
<feColorMatrix in="SourceAlpha" type="matrix" values="0 0 0 0 0 0 0 0 0 0 0 0 0 0 0 0 0 0 127 0" result="hardAlpha"/>
<feOffset dy="4"/>
<feGaussianBlur stdDeviation="2"/>
<feComposite in2="hardAlpha" operator="out"/>
<feColorMatrix type="matrix" values="0 0 0 0 1 0 0 0 0 0.646056 0 0 0 0 0.230555 0 0 0 0.18 0"/>
<feBlend mode="normal" in2="BackgroundImageFix" result="effect1_dropShadow_79_9608"/>
<feBlend mode="normal" in="SourceGraphic" in2="effect1_dropShadow_79_9608" result="shape"/>
</filter>
<filter id="filter3_d_79_9608" x="306.637" y="220.895" width="28.7998" height="28.7998" filterUnits="userSpaceOnUse" color-interpolation-filters="sRGB">
<feFlood flood-opacity="0" result="BackgroundImageFix"/>
<feColorMatrix in="SourceAlpha" type="matrix" values="0 0 0 0 0 0 0 0 0 0 0 0 0 0 0 0 0 0 127 0" result="hardAlpha"/>
<feOffset dy="4"/>
<feGaussianBlur stdDeviation="2"/>
<feComposite in2="hardAlpha" operator="out"/>
<feColorMatrix type="matrix" values="0 0 0 0 1 0 0 0 0 0.646056 0 0 0 0 0.230555 0 0 0 0.18 0"/>
<feBlend mode="normal" in2="BackgroundImageFix" result="effect1_dropShadow_79_9608"/>
<feBlend mode="normal" in="SourceGraphic" in2="effect1_dropShadow_79_9608" result="shape"/>
</filter>
<filter id="filter4_d_79_9608" x="2.12744" y="299.792" width="28.7998" height="28.7998" filterUnits="userSpaceOnUse" color-interpolation-filters="sRGB">
<feFlood flood-opacity="0" result="BackgroundImageFix"/>
<feColorMatrix in="SourceAlpha" type="matrix" values="0 0 0 0 0 0 0 0 0 0 0 0 0 0 0 0 0 0 127 0" result="hardAlpha"/>
<feOffset dy="4"/>
<feGaussianBlur stdDeviation="2"/>
<feComposite in2="hardAlpha" operator="out"/>
<feColorMatrix type="matrix" values="0 0 0 0 1 0 0 0 0 0.646056 0 0 0 0 0.230555 0 0 0 0.18 0"/>
<feBlend mode="normal" in2="BackgroundImageFix" result="effect1_dropShadow_79_9608"/>
<feBlend mode="normal" in="SourceGraphic" in2="effect1_dropShadow_79_9608" result="shape"/>
</filter>
<linearGradient id="paint0_linear_79_9608" x1="280.221" y1="0.200928" x2="280.221" y2="28.0615" gradientUnits="userSpaceOnUse">
<stop stop-color="white"/>
<stop offset="1" stop-color="#FFD93D"/>
</linearGradient>
<linearGradient id="paint1_linear_79_9608" x1="305.126" y1="54.7075" x2="305.126" y2="68.6377" gradientUnits="userSpaceOnUse">
<stop stop-color="white"/>
<stop offset="1" stop-color="#FFD93D"/>
</linearGradient>
<linearGradient id="paint2_linear_79_9608" x1="23.5762" y1="38.8516" x2="23.5762" y2="47.2344" gradientUnits="userSpaceOnUse">
<stop stop-color="white"/>
<stop offset="1" stop-color="#FFD93D"/>
</linearGradient>
<linearGradient id="paint3_linear_79_9608" x1="321.037" y1="220.895" x2="321.037" y2="241.695" gradientUnits="userSpaceOnUse">
<stop stop-color="white"/>
<stop offset="1" stop-color="#FFD93D"/>
</linearGradient>
<linearGradient id="paint4_linear_79_9608" x1="16.5273" y1="320.592" x2="16.5273" y2="299.792" gradientUnits="userSpaceOnUse">
<stop stop-color="white"/>
<stop offset="1" stop-color="#FFC93D"/>
</linearGradient>
<linearGradient id="paint5_linear_79_9608" x1="12.0356" y1="60.4368" x2="12.0356" y2="82.2229" gradientUnits="userSpaceOnUse">
<stop stop-color="#CEFF9E"/>
<stop offset="1" stop-color="white"/>
</linearGradient>
<linearGradient id="paint6_linear_79_9608" x1="22.4287" y1="71.8298" x2="0.642578" y2="71.8298" gradientUnits="userSpaceOnUse">
<stop stop-color="#CEFF9E"/>
<stop offset="1" stop-color="white"/>
</linearGradient>
<linearGradient id="paint7_linear_79_9608" x1="19.7315" y1="64.1369" x2="4.0334" y2="79.2434" gradientUnits="userSpaceOnUse">
<stop stop-color="#CEFF9E"/>
<stop offset="1" stop-color="white"/>
</linearGradient>
<linearGradient id="paint8_linear_79_9608" x1="18.8847" y1="79.386" x2="3.47961" y2="63.9809" gradientUnits="userSpaceOnUse">
<stop stop-color="#CEFF9E"/>
<stop offset="1" stop-color="white"/>
</linearGradient>
<linearGradient id="paint9_linear_79_9608" x1="274.196" y1="328.808" x2="274.196" y2="344.435" gradientUnits="userSpaceOnUse">
<stop stop-color="#FFD2F5"/>
<stop offset="1" stop-color="white"/>
</linearGradient>
<linearGradient id="paint10_linear_79_9608" x1="266.882" y1="337.122" x2="282.509" y2="337.122" gradientUnits="userSpaceOnUse">
<stop stop-color="#FFD2F5"/>
<stop offset="1" stop-color="white"/>
</linearGradient>
<linearGradient id="paint11_linear_79_9608" x1="268.719" y1="331.564" x2="279.979" y2="342.4" gradientUnits="userSpaceOnUse">
<stop stop-color="#FFD2F5"/>
<stop offset="1" stop-color="white"/>
</linearGradient>
<linearGradient id="paint12_linear_79_9608" x1="269.524" y1="342.501" x2="280.574" y2="331.451" gradientUnits="userSpaceOnUse">
<stop stop-color="#FFD2F5"/>
<stop offset="1" stop-color="white"/>
</linearGradient>
<linearGradient id="paint13_linear_79_9608" x1="29.8496" y1="263.211" x2="29.8496" y2="272.889" gradientUnits="userSpaceOnUse">
<stop stop-color="#FFD2F5"/>
<stop offset="1" stop-color="white"/>
</linearGradient>
<linearGradient id="paint14_linear_79_9608" x1="25.5103" y1="268.55" x2="35.188" y2="268.55" gradientUnits="userSpaceOnUse">
<stop stop-color="#FFD2F5"/>
<stop offset="1" stop-color="white"/>
</linearGradient>
<linearGradient id="paint15_linear_79_9608" x1="26.5161" y1="265.055" x2="33.4894" y2="271.765" gradientUnits="userSpaceOnUse">
<stop stop-color="#FFD2F5"/>
<stop offset="1" stop-color="white"/>
</linearGradient>
<linearGradient id="paint16_linear_79_9608" x1="27.2808" y1="271.825" x2="34.124" y2="264.982" gradientUnits="userSpaceOnUse">
<stop stop-color="#FFD2F5"/>
<stop offset="1" stop-color="white"/>
</linearGradient>
</defs>
</svg>
