<svg width="355" height="393" viewBox="0 0 355 393" fill="none" xmlns="http://www.w3.org/2000/svg">
<g filter="url(#filter0_d_79_9796)">
<path d="M17.2942 121.815C17.847 120.321 19.9599 120.321 20.5127 121.815L23.264 129.25C23.4378 129.72 23.8081 130.09 24.2778 130.264L31.7133 133.015C33.2072 133.568 33.2072 135.681 31.7133 136.234L24.2778 138.985C23.8081 139.159 23.4378 139.529 23.264 139.999L20.5127 147.434C19.9599 148.928 17.847 148.928 17.2942 147.434L14.5428 139.999C14.369 139.529 13.9987 139.159 13.529 138.985L6.09355 136.234C4.59968 135.681 4.59968 133.568 6.09355 133.015L13.529 130.264C13.9987 130.09 14.369 129.72 14.5428 129.25L17.2942 121.815Z" fill="url(#paint0_linear_79_9796)"/>
</g>
<g filter="url(#filter1_d_79_9796)">
<path d="M342.422 135.185C342.699 134.438 343.755 134.438 344.031 135.185L345.407 138.902C345.494 139.137 345.679 139.322 345.914 139.409L349.632 140.785C350.379 141.061 350.379 142.118 349.632 142.394L345.914 143.77C345.679 143.857 345.494 144.042 345.407 144.277L344.031 147.994C343.755 148.741 342.699 148.741 342.422 147.994L341.047 144.277C340.96 144.042 340.774 143.857 340.54 143.77L336.822 142.394C336.075 142.118 336.075 141.061 336.822 140.785L340.54 139.409C340.774 139.322 340.96 139.137 341.047 138.902L342.422 135.185Z" fill="url(#paint1_linear_79_9796)"/>
</g>
<g filter="url(#filter2_d_79_9796)">
<path d="M73.0012 45.4682C73.1675 45.0187 73.8032 45.0187 73.9695 45.4682L74.7974 47.7054C74.8497 47.8468 74.9611 47.9582 75.1024 48.0105L77.3396 48.8383C77.7891 49.0046 77.7891 49.6404 77.3396 49.8067L75.1024 50.6346C74.9611 50.6868 74.8497 50.7983 74.7974 50.9396L73.9695 53.1768C73.8032 53.6263 73.1675 53.6263 73.0012 53.1768L72.1733 50.9396C72.121 50.7983 72.0096 50.6868 71.8683 50.6346L69.6311 49.8067C69.1816 49.6404 69.1816 49.0046 69.6311 48.8383L71.8683 48.0105C72.0096 47.9582 72.121 47.8468 72.1733 47.7054L73.0012 45.4682Z" fill="url(#paint2_linear_79_9796)"/>
</g>
<g filter="url(#filter3_d_79_9796)">
<path d="M281.673 326.929C282.086 325.814 283.663 325.814 284.076 326.929L286.13 332.48C286.26 332.831 286.536 333.107 286.887 333.237L292.438 335.291C293.553 335.704 293.553 337.281 292.438 337.694L286.887 339.748C286.536 339.878 286.26 340.154 286.13 340.505L284.076 346.056C283.663 347.171 282.086 347.171 281.673 346.056L279.619 340.505C279.489 340.154 279.213 339.878 278.862 339.748L273.311 337.694C272.196 337.281 272.196 335.704 273.311 335.291L278.862 333.237C279.213 333.107 279.489 332.831 279.619 332.48L281.673 326.929Z" fill="url(#paint3_linear_79_9796)"/>
</g>
<g filter="url(#filter4_d_79_9796)">
<path d="M60.3865 384.087C60.7992 385.202 62.3766 385.202 62.7893 384.087L64.8434 378.536C64.9731 378.185 65.2496 377.909 65.6002 377.779L71.1513 375.725C72.2666 375.312 72.2666 373.735 71.1513 373.322L65.6002 371.268C65.2496 371.138 64.9731 370.862 64.8434 370.511L62.7893 364.96C62.3766 363.845 60.7992 363.845 60.3865 364.96L58.3324 370.511C58.2026 370.862 57.9262 371.138 57.5755 371.268L52.0244 373.322C50.9092 373.735 50.9092 375.312 52.0244 375.725L57.5755 377.779C57.9262 377.909 58.2026 378.185 58.3324 378.536L60.3865 384.087Z" fill="url(#paint4_linear_79_9796)"/>
</g>
<path d="M241.677 0.400635V22.1868" stroke="url(#paint5_linear_79_9796)" stroke-width="3"/>
<path d="M252.57 11.2937L230.784 11.2937" stroke="url(#paint6_linear_79_9796)" stroke-width="3"/>
<path d="M249.526 3.74048L233.828 18.847" stroke="url(#paint7_linear_79_9796)" stroke-width="3"/>
<path d="M249.379 18.9963L233.974 3.59122" stroke="url(#paint8_linear_79_9796)" stroke-width="3"/>
<path d="M26.7173 298.625V314.251" stroke="url(#paint9_linear_79_9796)" stroke-width="3"/>
<path d="M18.9033 306.438L34.5303 306.438" stroke="url(#paint10_linear_79_9796)" stroke-width="3"/>
<path d="M21.0869 301.02L32.347 311.856" stroke="url(#paint11_linear_79_9796)" stroke-width="3"/>
<path d="M21.1919 311.963L32.2418 300.913" stroke="url(#paint12_linear_79_9796)" stroke-width="3"/>
<path d="M333.602 304.574V314.251" stroke="url(#paint13_linear_79_9796)"/>
<path d="M328.763 309.413L338.44 309.413" stroke="url(#paint14_linear_79_9796)"/>
<path d="M330.115 306.057L337.089 312.768" stroke="url(#paint15_linear_79_9796)"/>
<path d="M330.18 312.834L337.023 305.991" stroke="url(#paint16_linear_79_9796)"/>
<defs>
<filter id="filter0_d_79_9796" x="0.973145" y="120.694" width="35.8604" height="35.8604" filterUnits="userSpaceOnUse" color-interpolation-filters="sRGB">
<feFlood flood-opacity="0" result="BackgroundImageFix"/>
<feColorMatrix in="SourceAlpha" type="matrix" values="0 0 0 0 0 0 0 0 0 0 0 0 0 0 0 0 0 0 127 0" result="hardAlpha"/>
<feOffset dy="4"/>
<feGaussianBlur stdDeviation="2"/>
<feComposite in2="hardAlpha" operator="out"/>
<feColorMatrix type="matrix" values="0 0 0 0 1 0 0 0 0 0.646056 0 0 0 0 0.230555 0 0 0 0.18 0"/>
<feBlend mode="normal" in2="BackgroundImageFix" result="effect1_dropShadow_79_9796"/>
<feBlend mode="normal" in="SourceGraphic" in2="effect1_dropShadow_79_9796" result="shape"/>
</filter>
<filter id="filter1_d_79_9796" x="332.262" y="134.625" width="21.9302" height="21.9302" filterUnits="userSpaceOnUse" color-interpolation-filters="sRGB">
<feFlood flood-opacity="0" result="BackgroundImageFix"/>
<feColorMatrix in="SourceAlpha" type="matrix" values="0 0 0 0 0 0 0 0 0 0 0 0 0 0 0 0 0 0 127 0" result="hardAlpha"/>
<feOffset dy="4"/>
<feGaussianBlur stdDeviation="2"/>
<feComposite in2="hardAlpha" operator="out"/>
<feColorMatrix type="matrix" values="0 0 0 0 1 0 0 0 0 0.646056 0 0 0 0 0.230555 0 0 0 0.18 0"/>
<feBlend mode="normal" in2="BackgroundImageFix" result="effect1_dropShadow_79_9796"/>
<feBlend mode="normal" in="SourceGraphic" in2="effect1_dropShadow_79_9796" result="shape"/>
</filter>
<filter id="filter2_d_79_9796" x="65.2939" y="45.1311" width="16.3828" height="16.3828" filterUnits="userSpaceOnUse" color-interpolation-filters="sRGB">
<feFlood flood-opacity="0" result="BackgroundImageFix"/>
<feColorMatrix in="SourceAlpha" type="matrix" values="0 0 0 0 0 0 0 0 0 0 0 0 0 0 0 0 0 0 127 0" result="hardAlpha"/>
<feOffset dy="4"/>
<feGaussianBlur stdDeviation="2"/>
<feComposite in2="hardAlpha" operator="out"/>
<feColorMatrix type="matrix" values="0 0 0 0 1 0 0 0 0 0.646056 0 0 0 0 0.230555 0 0 0 0.18 0"/>
<feBlend mode="normal" in2="BackgroundImageFix" result="effect1_dropShadow_79_9796"/>
<feBlend mode="normal" in="SourceGraphic" in2="effect1_dropShadow_79_9796" result="shape"/>
</filter>
<filter id="filter3_d_79_9796" x="268.475" y="326.093" width="28.7998" height="28.7998" filterUnits="userSpaceOnUse" color-interpolation-filters="sRGB">
<feFlood flood-opacity="0" result="BackgroundImageFix"/>
<feColorMatrix in="SourceAlpha" type="matrix" values="0 0 0 0 0 0 0 0 0 0 0 0 0 0 0 0 0 0 127 0" result="hardAlpha"/>
<feOffset dy="4"/>
<feGaussianBlur stdDeviation="2"/>
<feComposite in2="hardAlpha" operator="out"/>
<feColorMatrix type="matrix" values="0 0 0 0 1 0 0 0 0 0.646056 0 0 0 0 0.230555 0 0 0 0.18 0"/>
<feBlend mode="normal" in2="BackgroundImageFix" result="effect1_dropShadow_79_9796"/>
<feBlend mode="normal" in="SourceGraphic" in2="effect1_dropShadow_79_9796" result="shape"/>
</filter>
<filter id="filter4_d_79_9796" x="47.188" y="364.124" width="28.7998" height="28.7998" filterUnits="userSpaceOnUse" color-interpolation-filters="sRGB">
<feFlood flood-opacity="0" result="BackgroundImageFix"/>
<feColorMatrix in="SourceAlpha" type="matrix" values="0 0 0 0 0 0 0 0 0 0 0 0 0 0 0 0 0 0 127 0" result="hardAlpha"/>
<feOffset dy="4"/>
<feGaussianBlur stdDeviation="2"/>
<feComposite in2="hardAlpha" operator="out"/>
<feColorMatrix type="matrix" values="0 0 0 0 1 0 0 0 0 0.646056 0 0 0 0 0.230555 0 0 0 0.18 0"/>
<feBlend mode="normal" in2="BackgroundImageFix" result="effect1_dropShadow_79_9796"/>
<feBlend mode="normal" in="SourceGraphic" in2="effect1_dropShadow_79_9796" result="shape"/>
</filter>
<linearGradient id="paint0_linear_79_9796" x1="18.9034" y1="120.694" x2="18.9034" y2="148.555" gradientUnits="userSpaceOnUse">
<stop stop-color="white"/>
<stop offset="1" stop-color="#9EFF3D"/>
</linearGradient>
<linearGradient id="paint1_linear_79_9796" x1="343.227" y1="134.625" x2="343.227" y2="148.555" gradientUnits="userSpaceOnUse">
<stop stop-color="white"/>
<stop offset="1" stop-color="#3DFFA2"/>
</linearGradient>
<linearGradient id="paint2_linear_79_9796" x1="73.4854" y1="45.1311" x2="73.4854" y2="53.5139" gradientUnits="userSpaceOnUse">
<stop stop-color="white"/>
<stop offset="1" stop-color="#FFD93D"/>
</linearGradient>
<linearGradient id="paint3_linear_79_9796" x1="282.875" y1="326.093" x2="282.875" y2="346.893" gradientUnits="userSpaceOnUse">
<stop stop-color="white"/>
<stop offset="1" stop-color="#FFD93D"/>
</linearGradient>
<linearGradient id="paint4_linear_79_9796" x1="61.5879" y1="384.923" x2="61.5879" y2="364.124" gradientUnits="userSpaceOnUse">
<stop stop-color="white"/>
<stop offset="1" stop-color="#8AFF87"/>
</linearGradient>
<linearGradient id="paint5_linear_79_9796" x1="242.177" y1="0.400635" x2="242.177" y2="22.1868" gradientUnits="userSpaceOnUse">
<stop stop-color="#FFC79E"/>
<stop offset="1" stop-color="white"/>
</linearGradient>
<linearGradient id="paint6_linear_79_9796" x1="252.57" y1="11.7937" x2="230.784" y2="11.7937" gradientUnits="userSpaceOnUse">
<stop stop-color="#FFC79E"/>
<stop offset="1" stop-color="white"/>
</linearGradient>
<linearGradient id="paint7_linear_79_9796" x1="249.873" y1="4.10076" x2="234.175" y2="19.2072" gradientUnits="userSpaceOnUse">
<stop stop-color="#FFC79E"/>
<stop offset="1" stop-color="white"/>
</linearGradient>
<linearGradient id="paint8_linear_79_9796" x1="249.026" y1="19.3499" x2="233.621" y2="3.94477" gradientUnits="userSpaceOnUse">
<stop stop-color="#FFC79E"/>
<stop offset="1" stop-color="white"/>
</linearGradient>
<linearGradient id="paint9_linear_79_9796" x1="26.2173" y1="298.625" x2="26.2173" y2="314.251" gradientUnits="userSpaceOnUse">
<stop stop-color="#FFD2E2"/>
<stop offset="1" stop-color="white"/>
</linearGradient>
<linearGradient id="paint10_linear_79_9796" x1="18.9033" y1="306.938" x2="34.5303" y2="306.938" gradientUnits="userSpaceOnUse">
<stop stop-color="#FFD2E2"/>
<stop offset="1" stop-color="white"/>
</linearGradient>
<linearGradient id="paint11_linear_79_9796" x1="20.7402" y1="301.38" x2="32.0003" y2="312.216" gradientUnits="userSpaceOnUse">
<stop stop-color="#FFD2E2"/>
<stop offset="1" stop-color="white"/>
</linearGradient>
<linearGradient id="paint12_linear_79_9796" x1="21.5454" y1="312.317" x2="32.5954" y2="301.267" gradientUnits="userSpaceOnUse">
<stop stop-color="#FFD2E2"/>
<stop offset="1" stop-color="white"/>
</linearGradient>
<linearGradient id="paint13_linear_79_9796" x1="333.102" y1="304.574" x2="333.102" y2="314.251" gradientUnits="userSpaceOnUse">
<stop stop-color="#FFD2F5"/>
<stop offset="1" stop-color="white"/>
</linearGradient>
<linearGradient id="paint14_linear_79_9796" x1="328.763" y1="309.913" x2="338.44" y2="309.913" gradientUnits="userSpaceOnUse">
<stop stop-color="#FFD2F5"/>
<stop offset="1" stop-color="white"/>
</linearGradient>
<linearGradient id="paint15_linear_79_9796" x1="329.769" y1="306.417" x2="336.742" y2="313.128" gradientUnits="userSpaceOnUse">
<stop stop-color="#FFD2F5"/>
<stop offset="1" stop-color="white"/>
</linearGradient>
<linearGradient id="paint16_linear_79_9796" x1="330.533" y1="313.188" x2="337.376" y2="306.345" gradientUnits="userSpaceOnUse">
<stop stop-color="#FFD2F5"/>
<stop offset="1" stop-color="white"/>
</linearGradient>
</defs>
</svg>
