<svg width="70" height="76" viewBox="0 0 70 76" fill="none" xmlns="http://www.w3.org/2000/svg">
<path d="M45.8913 13.8745C46.2631 13.4661 46.8955 13.4364 47.3039 13.8082L58.0181 23.5619C58.4265 23.9337 58.4562 24.5661 58.0844 24.9745L22.5432 64.0156C22.4306 64.1393 22.2888 64.2328 22.1308 64.2875L7.82907 69.236C7.08092 69.4949 6.34291 68.823 6.53058 68.0539L10.1181 53.3517C10.1577 53.1892 10.2375 53.0392 10.3501 52.9156L45.8913 13.8745Z" fill="white"/>
<path d="M54.4422 4.48253C56.3011 2.44053 59.4635 2.29213 61.5055 4.15107L66.3039 8.5193C68.3459 10.3782 68.4943 13.5406 66.6353 15.5826L61.5665 21.1506C61.1947 21.559 60.5622 21.5887 60.1538 21.2169L49.4396 11.4632C49.0312 11.0914 49.0016 10.4589 49.3733 10.0505L54.4422 4.48253Z" fill="white"/>
</svg>
