<svg width="115" height="22" viewBox="0 0 115 22" fill="none" xmlns="http://www.w3.org/2000/svg">
<path d="M6.62579 6.27C6.70579 6.37 6.74579 6.5 6.74579 6.66C6.76579 6.8 6.74579 6.92 6.68579 7.02C6.58579 7.24 6.41579 7.32 6.17579 7.26C5.75579 7.16 5.31579 7.12 4.85579 7.14C4.39579 7.16 3.93579 7.34 3.47579 7.68C3.01579 8.02 2.65579 8.52 2.39579 9.18C2.13579 9.82 2.00579 10.49 2.00579 11.19C2.00579 11.87 2.16579 12.46 2.48579 12.96C2.82579 13.44 3.25579 13.79 3.77579 14.01C4.09579 14.15 4.45579 14.23 4.85579 14.25C5.25579 14.27 5.65579 14.26 6.05579 14.22C6.47579 14.16 6.88579 14.08 7.28579 13.98C7.68579 13.86 8.06579 13.73 8.42579 13.59C8.54579 13.55 8.65579 13.56 8.75579 13.62C8.87579 13.68 8.95579 13.76 8.99579 13.86C9.09579 14.12 9.04579 14.38 8.84579 14.64C8.60579 14.9 8.28579 15.13 7.88579 15.33C7.48579 15.53 7.04579 15.69 6.56579 15.81C6.08579 15.93 5.59579 16 5.09579 16.02C4.59579 16.02 4.12579 15.96 3.68579 15.84C3.06579 15.68 2.53579 15.45 2.09579 15.15C1.67579 14.83 1.32579 14.47 1.04579 14.07C0.765791 13.65 0.555791 13.21 0.415791 12.75C0.275791 12.27 0.195791 11.78 0.175791 11.28C0.135791 10.08 0.365791 9 0.865791 8.04C1.38579 7.08 2.10579 6.37 3.02579 5.91C3.70579 5.57 4.38579 5.44 5.06579 5.52C5.76579 5.58 6.28579 5.83 6.62579 6.27ZM18.2283 6.15C18.3083 6.71 18.3683 7.31 18.4083 7.95C18.4683 8.57 18.5083 9.2 18.5283 9.84C18.5683 10.48 18.5883 11.1 18.5883 11.7C18.5883 12.3 18.5783 12.84 18.5583 13.32C19.1983 13.76 19.5783 14.15 19.6983 14.49C19.8383 14.83 19.8583 15.13 19.7583 15.39C19.6383 15.75 19.4183 15.94 19.0983 15.96C18.7983 15.96 18.4483 15.85 18.0483 15.63C17.7683 15.83 17.4483 16.05 17.0883 16.29C16.7283 16.51 16.3483 16.73 15.9483 16.95C15.5483 17.15 15.1483 17.33 14.7483 17.49C14.3483 17.65 13.9783 17.76 13.6383 17.82C12.9983 17.92 12.4183 17.8 11.8983 17.46C11.3983 17.12 11.0583 16.61 10.8783 15.93C10.7583 15.47 10.7283 15 10.7883 14.52C10.8483 14.02 10.9983 13.55 11.2383 13.11C11.4783 12.65 11.7983 12.24 12.1983 11.88C12.6183 11.52 13.1083 11.24 13.6683 11.04C13.8083 10.98 13.9983 10.93 14.2383 10.89C14.4983 10.85 14.7583 10.84 15.0183 10.86C15.2983 10.86 15.5783 10.91 15.8583 11.01C16.1383 11.11 16.3983 11.28 16.6383 11.52C16.6383 11.18 16.6283 10.81 16.6083 10.41C16.6083 9.99 16.5983 9.57 16.5783 9.15C16.5583 8.73 16.5283 8.34 16.4883 7.98C16.4683 7.6 16.4383 7.28 16.3983 7.02C16.3583 6.72 16.2383 6.54 16.0383 6.48C15.8583 6.4 15.6283 6.41 15.3483 6.51C14.8683 6.67 14.3083 6.98 13.6683 7.44C13.0283 7.9 12.4183 8.39 11.8383 8.91C11.6583 9.09 11.4483 9.17 11.2083 9.15C10.9883 9.13 10.7983 9.04 10.6383 8.88C10.4783 8.72 10.3883 8.54 10.3683 8.34C10.3483 8.12 10.4283 7.89 10.6083 7.65C10.9483 7.29 11.3283 6.92 11.7483 6.54C12.1683 6.16 12.6083 5.82 13.0683 5.52C13.5283 5.2 13.9983 4.94 14.4783 4.74C14.9583 4.54 15.4383 4.43 15.9183 4.41C16.6183 4.39 17.1583 4.55 17.5383 4.89C17.9183 5.21 18.1483 5.63 18.2283 6.15ZM14.7483 12.6C14.4883 12.66 14.2083 12.79 13.9083 12.99C13.6283 13.17 13.3683 13.4 13.1283 13.68C12.9083 13.94 12.7383 14.24 12.6183 14.58C12.5183 14.9 12.5183 15.22 12.6183 15.54C12.6583 15.66 12.7383 15.75 12.8583 15.81C12.9983 15.87 13.1483 15.88 13.3083 15.84C13.7883 15.74 14.3283 15.55 14.9283 15.27C15.5483 14.97 16.0383 14.65 16.3983 14.31C16.3983 14.19 16.3383 14.04 16.2183 13.86C16.0983 13.66 15.9583 13.47 15.7983 13.29C15.6383 13.09 15.4583 12.92 15.2583 12.78C15.0783 12.64 14.9083 12.58 14.7483 12.6ZM30.4795 6.9C30.1195 7.1 29.7395 7.31 29.3395 7.53C28.9595 7.75 28.5695 8.01 28.1695 8.31C27.7895 8.59 27.4195 8.93 27.0595 9.33C26.7195 9.71 26.4095 10.17 26.1295 10.71C25.7295 11.47 25.4595 12.25 25.3195 13.05C25.1795 13.83 25.0895 14.6 25.0495 15.36C25.0495 15.72 24.9595 16.09 24.7795 16.47C24.6195 16.83 24.3895 17.01 24.0895 17.01C23.7095 17.01 23.3995 16.82 23.1595 16.44C22.9395 16.04 22.7895 15.66 22.7095 15.3C22.3695 13.88 22.0895 12.48 21.8695 11.1C21.6495 9.7 21.4595 8.31 21.2995 6.93C21.2995 6.65 21.3795 6.47 21.5395 6.39C21.7195 6.31 21.9195 6.28 22.1395 6.3C22.3795 6.32 22.6095 6.38 22.8295 6.48C23.0495 6.58 23.1795 6.74 23.2195 6.96C23.2995 7.7 23.3995 8.48 23.5195 9.3C23.6395 10.1 23.7595 10.79 23.8795 11.37C23.9595 10.69 24.1795 10.03 24.5395 9.39C24.8995 8.75 25.3395 8.17 25.8595 7.65C26.3995 7.13 26.9995 6.69 27.6595 6.33C28.3395 5.97 29.0295 5.73 29.7295 5.61C30.0295 5.57 30.2795 5.57 30.4795 5.61C30.6795 5.65 30.8195 5.72 30.8995 5.82C30.9795 5.92 30.9895 6.08 30.9295 6.3C30.8895 6.52 30.7395 6.72 30.4795 6.9ZM37.3908 20.52C37.3708 20.74 37.2708 20.94 37.0908 21.12C36.9108 21.32 36.7108 21.41 36.4908 21.39C36.1508 21.37 35.8908 21.24 35.7108 21C35.5308 20.76 35.4408 20.56 35.4408 20.4C35.4408 19.64 35.4208 18.85 35.3808 18.03C35.3408 17.19 35.2908 16.33 35.2308 15.45C34.9708 15.49 34.7308 15.47 34.5108 15.39C34.3108 15.29 34.1708 15.14 34.0908 14.94C33.9508 14.6 33.9708 14.3 34.1508 14.04C34.3308 13.78 34.6208 13.53 35.0208 13.29C34.9208 12.55 34.8208 11.82 34.7208 11.1C34.6408 10.38 34.5508 9.68 34.4508 9C34.4308 8.88 34.4408 8.77 34.4808 8.67C34.5208 8.57 34.5708 8.48 34.6308 8.4C34.6908 8.3 34.8008 8.21 34.9608 8.13C35.2208 8.03 35.5108 8.11 35.8308 8.37C36.1708 8.63 36.4008 8.96 36.5208 9.36C36.5808 9.74 36.6408 10.18 36.7008 10.68C36.7808 11.16 36.8508 11.69 36.9108 12.27C37.3308 12.01 37.7208 11.73 38.0808 11.43C38.4608 11.13 38.7808 10.81 39.0408 10.47C39.3208 10.13 39.5308 9.78 39.6708 9.42C39.8108 9.04 39.8508 8.65 39.7908 8.25C39.7508 7.91 39.6008 7.61 39.3408 7.35C39.0808 7.07 38.6708 6.92 38.1108 6.9C37.6108 6.88 37.1108 6.92 36.6108 7.02C36.1308 7.12 35.6508 7.25 35.1708 7.41C34.7108 7.57 34.2508 7.76 33.7908 7.98C33.3508 8.2 32.9208 8.42 32.5008 8.64C32.2208 8.8 31.9408 8.87 31.6608 8.85C31.4008 8.81 31.2308 8.71 31.1508 8.55C30.9708 8.15 30.9808 7.79 31.1808 7.47C31.4008 7.15 31.7308 6.85 32.1708 6.57C32.5508 6.35 33.0008 6.13 33.5208 5.91C34.0608 5.67 34.6208 5.47 35.2008 5.31C35.8008 5.13 36.4008 5.01 37.0008 4.95C37.6208 4.87 38.2108 4.88 38.7708 4.98C39.3308 5.06 39.8308 5.25 40.2708 5.55C40.7308 5.83 41.1008 6.25 41.3808 6.81C41.7208 7.73 41.8108 8.58 41.6508 9.36C41.5108 10.12 41.2108 10.82 40.7508 11.46C40.3108 12.08 39.7608 12.65 39.1008 13.17C38.4608 13.67 37.8108 14.12 37.1508 14.52C37.2508 15.6 37.3208 16.67 37.3608 17.73C37.4008 18.79 37.4108 19.72 37.3908 20.52ZM51.0059 10.2C50.2259 10.66 49.3859 11.02 48.4859 11.28C47.5859 11.52 46.6159 11.64 45.5759 11.64C45.6159 12.34 45.8159 12.9 46.1759 13.32C46.5359 13.72 46.9859 13.96 47.5259 14.04C47.8459 14.08 48.1659 14.07 48.4859 14.01C48.8259 13.95 49.1359 13.86 49.4159 13.74C49.7159 13.6 49.9859 13.45 50.2259 13.29C50.4659 13.13 50.6759 12.97 50.8559 12.81C51.0359 12.65 51.2259 12.55 51.4259 12.51C51.6259 12.45 51.7759 12.44 51.8759 12.48C52.1559 12.58 52.2559 12.88 52.1759 13.38C51.8559 14.02 51.3959 14.57 50.7959 15.03C50.1959 15.47 49.5259 15.75 48.7859 15.87C48.1459 15.99 47.4859 15.96 46.8059 15.78C46.1259 15.6 45.5159 15.25 44.9759 14.73C44.5159 14.27 44.1659 13.73 43.9259 13.11C43.6859 12.49 43.5359 11.85 43.4759 11.19C43.4159 10.57 43.4659 9.98 43.6259 9.42C43.8059 8.86 44.0759 8.37 44.4359 7.95C44.7959 7.51 45.2459 7.15 45.7859 6.87C46.3259 6.59 46.9559 6.43 47.6759 6.39C48.5359 6.33 49.3159 6.49 50.0159 6.87C50.7159 7.25 51.2059 7.78 51.4859 8.46C51.6459 8.84 51.6859 9.17 51.6059 9.45C51.5459 9.73 51.3459 9.98 51.0059 10.2ZM47.5559 8.16C47.3559 8.2 47.1359 8.27 46.8959 8.37C46.6759 8.47 46.4659 8.6 46.2659 8.76C46.0859 8.9 45.9159 9.07 45.7559 9.27C45.6159 9.45 45.5359 9.66 45.5159 9.9C45.8559 9.9 46.2259 9.87 46.6259 9.81C47.0459 9.75 47.4459 9.68 47.8259 9.6C48.2259 9.5 48.5859 9.39 48.9059 9.27C49.2459 9.15 49.5259 9.02 49.7459 8.88C49.5859 8.5 49.2859 8.27 48.8459 8.19C48.4259 8.09 47.9959 8.08 47.5559 8.16ZM67.7417 2.04C67.6817 1.68 67.7017 1.35 67.8017 1.05C67.9217 0.75 68.1517 0.579999 68.4917 0.539999C68.7917 0.499999 69.0517 0.579999 69.2717 0.779999C69.5117 0.979999 69.6617 1.24 69.7217 1.56C70.1217 3.86 70.4917 6.15 70.8317 8.43C71.1917 10.69 71.5117 12.91 71.7917 15.09C71.8717 15.67 71.8317 16.07 71.6717 16.29C71.5117 16.49 71.3217 16.64 71.1017 16.74C70.8617 16.84 70.6317 16.84 70.4117 16.74C70.2117 16.64 70.0817 16.46 70.0217 16.2L69.9917 16.02L69.8717 16.05C69.2117 16.29 68.5217 16.43 67.8017 16.47C67.0817 16.49 66.3917 16.4 65.7317 16.2C65.0717 16 64.4817 15.68 63.9617 15.24C63.4617 14.78 63.1017 14.2 62.8817 13.5C62.4017 11.96 62.7017 10.56 63.7817 9.3C64.2417 8.78 64.8117 8.31 65.4917 7.89C66.1717 7.47 66.9917 7.14 67.9517 6.9L68.4917 6.78L67.7417 2.04ZM64.7117 12.75C64.8317 13.23 65.0517 13.6 65.3717 13.86C65.6917 14.12 66.0717 14.3 66.5117 14.4C66.9517 14.48 67.4217 14.49 67.9217 14.43C68.4217 14.37 68.9117 14.26 69.3917 14.1L69.6617 14.01L68.8217 8.73L68.2217 8.88C67.8017 9 67.3517 9.19 66.8717 9.45C66.4117 9.69 66.0017 9.98 65.6417 10.32C65.2817 10.66 65.0017 11.04 64.8017 11.46C64.6217 11.88 64.5917 12.31 64.7117 12.75ZM78.4343 5.01C78.3943 5.21 78.2543 5.32 78.0143 5.34C77.7743 5.36 77.5743 5.37 77.4143 5.37C76.9143 5.39 76.3943 5.44 75.8543 5.52C75.3343 5.6 74.7843 5.72 74.2043 5.88C73.9643 5.96 73.7043 5.93 73.4243 5.79C73.1443 5.65 72.9743 5.37 72.9143 4.95C72.9143 4.79 72.9743 4.66 73.0943 4.56C73.2143 4.46 73.3543 4.37 73.5143 4.29C73.7743 4.17 74.0843 4.07 74.4443 3.99C74.8043 3.89 75.1643 3.82 75.5243 3.78C75.9043 3.74 76.2643 3.73 76.6043 3.75C76.9443 3.75 77.2243 3.78 77.4443 3.84C77.7643 3.94 78.0143 4.09 78.1943 4.29C78.3943 4.49 78.4743 4.73 78.4343 5.01ZM77.7443 15C77.8843 15.32 77.9543 15.67 77.9543 16.05C77.9743 16.41 77.8743 16.66 77.6543 16.8C77.3743 16.98 77.0743 16.97 76.7543 16.77C76.4343 16.57 76.1943 16.3 76.0343 15.96C75.8143 15.54 75.6443 15.03 75.5243 14.43C75.4043 13.81 75.3143 13.2 75.2543 12.6C75.1943 12 75.1543 11.44 75.1343 10.92C75.1343 10.4 75.1343 10.01 75.1343 9.75C75.1543 9.47 75.2343 9.21 75.3743 8.97C75.5143 8.73 75.6943 8.59 75.9143 8.55C76.2743 8.57 76.5643 8.74 76.7843 9.06C77.0043 9.36 77.1043 9.74 77.0843 10.2C77.0843 10.56 77.0943 10.96 77.1143 11.4C77.1343 11.84 77.1743 12.28 77.2343 12.72C77.2943 13.16 77.3643 13.59 77.4443 14.01C77.5243 14.41 77.6243 14.74 77.7443 15ZM87.9199 10.2C87.1399 10.66 86.2999 11.02 85.3999 11.28C84.4999 11.52 83.5299 11.64 82.4899 11.64C82.5299 12.34 82.7299 12.9 83.0899 13.32C83.4499 13.72 83.8999 13.96 84.4399 14.04C84.7599 14.08 85.0799 14.07 85.3999 14.01C85.7399 13.95 86.0499 13.86 86.3299 13.74C86.6299 13.6 86.8999 13.45 87.1399 13.29C87.3799 13.13 87.5899 12.97 87.7699 12.81C87.9499 12.65 88.1399 12.55 88.3399 12.51C88.5399 12.45 88.6899 12.44 88.7899 12.48C89.0699 12.58 89.1699 12.88 89.0899 13.38C88.7699 14.02 88.3099 14.57 87.7099 15.03C87.1099 15.47 86.4399 15.75 85.6999 15.87C85.0599 15.99 84.3999 15.96 83.7199 15.78C83.0399 15.6 82.4299 15.25 81.8899 14.73C81.4299 14.27 81.0799 13.73 80.8399 13.11C80.5999 12.49 80.4499 11.85 80.3899 11.19C80.3299 10.57 80.3799 9.98 80.5399 9.42C80.7199 8.86 80.9899 8.37 81.3499 7.95C81.7099 7.51 82.1599 7.15 82.6999 6.87C83.2399 6.59 83.8699 6.43 84.5899 6.39C85.4499 6.33 86.2299 6.49 86.9299 6.87C87.6299 7.25 88.1199 7.78 88.3999 8.46C88.5599 8.84 88.5999 9.17 88.5199 9.45C88.4599 9.73 88.2599 9.98 87.9199 10.2ZM84.4699 8.16C84.2699 8.2 84.0499 8.27 83.8099 8.37C83.5899 8.47 83.3799 8.6 83.1799 8.76C82.9999 8.9 82.8299 9.07 82.6699 9.27C82.5299 9.45 82.4499 9.66 82.4299 9.9C82.7699 9.9 83.1399 9.87 83.5399 9.81C83.9599 9.75 84.3599 9.68 84.7399 9.6C85.1399 9.5 85.4999 9.39 85.8199 9.27C86.1599 9.15 86.4399 9.02 86.6599 8.88C86.4999 8.5 86.1999 8.27 85.7599 8.19C85.3399 8.09 84.9099 8.08 84.4699 8.16ZM92.9775 7.56C92.9975 7.88 93.0275 8.28 93.0675 8.76C93.1275 9.22 93.1875 9.71 93.2475 10.23C93.3075 10.73 93.3675 11.23 93.4275 11.73C93.5075 12.23 93.5775 12.69 93.6375 13.11C93.8575 12.67 94.1275 12.13 94.4475 11.49C94.7675 10.85 95.0975 10.24 95.4375 9.66C95.7975 9.06 96.1575 8.56 96.5175 8.16C96.8975 7.74 97.2375 7.53 97.5375 7.53C97.8575 7.53 98.1475 7.69 98.4075 8.01C98.6875 8.31 98.9275 8.68 99.1275 9.12C99.3275 9.56 99.4975 10.03 99.6375 10.53C99.7975 11.03 99.9275 11.47 100.028 11.85C100.108 11.59 100.208 11.3 100.328 10.98C100.468 10.64 100.608 10.3 100.748 9.96C100.908 9.6 101.078 9.25 101.258 8.91C101.458 8.57 101.668 8.27 101.888 8.01C102.148 7.73 102.428 7.53 102.728 7.41C103.028 7.27 103.248 7.2 103.388 7.2C103.568 7.2 103.778 7.26 104.018 7.38C104.278 7.48 104.538 7.62 104.798 7.8C105.058 7.98 105.298 8.2 105.518 8.46C105.758 8.7 105.948 8.95 106.088 9.21C106.368 9.75 106.588 10.34 106.748 10.98C106.928 11.62 107.058 12.23 107.138 12.81C107.218 13.39 107.268 13.91 107.288 14.37C107.328 14.81 107.358 15.12 107.378 15.3C107.378 15.56 107.348 15.76 107.288 15.9C107.228 16.02 107.118 16.12 106.958 16.2C106.738 16.3 106.548 16.34 106.388 16.32C106.228 16.28 106.098 16.21 105.998 16.11C105.898 16.01 105.818 15.9 105.758 15.78C105.698 15.64 105.658 15.52 105.638 15.42C105.578 14.96 105.508 14.49 105.428 14.01C105.368 13.53 105.298 13.07 105.218 12.63C105.138 12.17 105.038 11.75 104.918 11.37C104.818 10.97 104.708 10.62 104.588 10.32C104.548 10.24 104.478 10.14 104.378 10.02C104.298 9.88 104.198 9.75 104.078 9.63C103.978 9.51 103.878 9.41 103.778 9.33C103.678 9.25 103.608 9.2 103.568 9.18C103.368 9.18 103.158 9.37 102.938 9.75C102.718 10.11 102.508 10.55 102.308 11.07C102.108 11.59 101.918 12.14 101.738 12.72C101.578 13.28 101.458 13.76 101.378 14.16C101.378 14.68 101.278 15.07 101.078 15.33C100.878 15.57 100.668 15.69 100.448 15.69C100.228 15.69 99.9875 15.61 99.7275 15.45C99.4875 15.27 99.3275 15.07 99.2475 14.85C99.1275 14.53 98.9975 14.17 98.8575 13.77C98.7175 13.37 98.5675 12.96 98.4075 12.54C98.2675 12.12 98.1175 11.71 97.9575 11.31C97.8175 10.91 97.6775 10.55 97.5375 10.23C97.2575 10.61 96.9775 11.03 96.6975 11.49C96.4375 11.95 96.1775 12.42 95.9175 12.9C95.6775 13.38 95.4375 13.86 95.1975 14.34C94.9775 14.8 94.7675 15.21 94.5675 15.57C94.4275 15.79 94.2775 15.99 94.1175 16.17C93.9575 16.33 93.7675 16.41 93.5475 16.41C93.3875 16.41 93.2175 16.34 93.0375 16.2C92.8575 16.04 92.6875 15.85 92.5275 15.63C92.3675 15.41 92.2175 15.16 92.0775 14.88C91.9575 14.6 91.8675 14.32 91.8075 14.04C91.6475 13.18 91.5075 12.24 91.3875 11.22C91.2875 10.18 91.1875 9.17 91.0875 8.19C91.0675 7.85 91.1075 7.54 91.2075 7.26C91.3275 6.96 91.5475 6.76 91.8675 6.66C92.2075 6.6 92.4675 6.65 92.6475 6.81C92.8275 6.97 92.9375 7.22 92.9775 7.56ZM114.55 1.53C114.37 2.41 114.18 3.28 113.98 4.14C113.8 5 113.63 5.86 113.47 6.72C113.31 7.58 113.19 8.44 113.11 9.3C113.03 10.16 113.02 11.02 113.08 11.88C113.12 12.1 113.08 12.31 112.96 12.51C112.86 12.71 112.74 12.84 112.6 12.9C112.16 13.06 111.84 12.95 111.64 12.57C111.4 11.55 111.27 10.54 111.25 9.54C111.25 8.54 111.32 7.55 111.46 6.57C111.62 5.59 111.82 4.62 112.06 3.66C112.32 2.68 112.58 1.71 112.84 0.75C112.94 0.349999 113.1 0.129999 113.32 0.0899992C113.54 0.0499985 113.75 0.0699983 113.95 0.149998C114.25 0.249998 114.44 0.449999 114.52 0.75C114.6 1.05 114.61 1.31 114.55 1.53ZM113.35 17.67C113.35 17.89 113.32 18.19 113.26 18.57C113.22 18.93 113.14 19.27 113.02 19.59C112.92 19.91 112.77 20.17 112.57 20.37C112.39 20.57 112.16 20.61 111.88 20.49C111.72 20.39 111.56 20.2 111.4 19.92C111.24 19.64 111.17 19.38 111.19 19.14C111.23 18.66 111.33 18.19 111.49 17.73C111.65 17.27 111.86 16.99 112.12 16.89C112.24 16.85 112.37 16.85 112.51 16.89C112.67 16.93 112.81 17 112.93 17.1C113.05 17.18 113.15 17.28 113.23 17.4C113.31 17.5 113.35 17.59 113.35 17.67Z" fill="white"/>
</svg>
