<svg width="127" height="24" viewBox="0 0 127 24" fill="none" xmlns="http://www.w3.org/2000/svg">
<path d="M7.98918 6.98255C8.07718 7.09255 8.12118 7.23555 8.12118 7.41155C8.14318 7.56555 8.12118 7.69755 8.05518 7.80755C7.94518 8.04955 7.75818 8.13755 7.49418 8.07155C7.03218 7.96155 6.54818 7.91755 6.04218 7.93955C5.53618 7.96155 5.03018 8.15955 4.52418 8.53355C4.01818 8.90755 3.62218 9.45755 3.33618 10.1835C3.05018 10.8875 2.90718 11.6245 2.90718 12.3945C2.90718 13.1425 3.08318 13.7915 3.43518 14.3415C3.80918 14.8695 4.28218 15.2545 4.85418 15.4965C5.20618 15.6505 5.60218 15.7385 6.04218 15.7605C6.48218 15.7825 6.92218 15.7715 7.36218 15.7275C7.82418 15.6615 8.27518 15.5735 8.71518 15.4635C9.15518 15.3315 9.57318 15.1885 9.96918 15.0345C10.1012 14.9905 10.2222 15.0015 10.3322 15.0675C10.4642 15.1335 10.5522 15.2215 10.5962 15.3315C10.7062 15.6175 10.6512 15.9035 10.4312 16.1895C10.1672 16.4755 9.81518 16.7285 9.37518 16.9485C8.93518 17.1685 8.45118 17.3445 7.92318 17.4765C7.39518 17.6085 6.85618 17.6855 6.30618 17.7075C5.75618 17.7075 5.23918 17.6415 4.75518 17.5095C4.07318 17.3335 3.49018 17.0805 3.00618 16.7505C2.54418 16.3985 2.15918 16.0025 1.85118 15.5625C1.54318 15.1005 1.31218 14.6165 1.15818 14.1105C1.00418 13.5825 0.916176 13.0435 0.894176 12.4935C0.850176 11.1735 1.10318 9.98555 1.65318 8.92955C2.22518 7.87355 3.01718 7.09255 4.02918 6.58655C4.77718 6.21255 5.52518 6.06955 6.27318 6.15755C7.04318 6.22355 7.61518 6.49855 7.98918 6.98255ZM20.7519 6.85055C20.8399 7.46655 20.9059 8.12655 20.9499 8.83055C21.0159 9.51255 21.0599 10.2055 21.0819 10.9095C21.1259 11.6135 21.1479 12.2955 21.1479 12.9555C21.1479 13.6155 21.1369 14.2095 21.1149 14.7375C21.8189 15.2215 22.2369 15.6505 22.3689 16.0245C22.5229 16.3985 22.5449 16.7285 22.4349 17.0145C22.3029 17.4105 22.0609 17.6195 21.7089 17.6415C21.3789 17.6415 20.9939 17.5205 20.5539 17.2785C20.2459 17.4985 19.8939 17.7405 19.4979 18.0045C19.1019 18.2465 18.6839 18.4885 18.2439 18.7305C17.8039 18.9505 17.3639 19.1485 16.9239 19.3245C16.4839 19.5005 16.0769 19.6215 15.7029 19.6875C14.9989 19.7975 14.3609 19.6655 13.7889 19.2915C13.2389 18.9175 12.8649 18.3565 12.6669 17.6085C12.5349 17.1025 12.5019 16.5855 12.5679 16.0575C12.6339 15.5075 12.7989 14.9905 13.0629 14.5065C13.3269 14.0005 13.6789 13.5495 14.1189 13.1535C14.5809 12.7575 15.1199 12.4495 15.7359 12.2295C15.8899 12.1635 16.0989 12.1085 16.3629 12.0645C16.6489 12.0205 16.9349 12.0095 17.2209 12.0315C17.5289 12.0315 17.8369 12.0865 18.1449 12.1965C18.4529 12.3065 18.7389 12.4935 19.0029 12.7575C19.0029 12.3835 18.9919 11.9765 18.9699 11.5365C18.9699 11.0745 18.9589 10.6125 18.9369 10.1505C18.9149 9.68855 18.8819 9.25955 18.8379 8.86355C18.8159 8.44555 18.7829 8.09355 18.7389 7.80755C18.6949 7.47755 18.5629 7.27955 18.3429 7.21355C18.1449 7.12555 17.8919 7.13655 17.5839 7.24655C17.0559 7.42255 16.4399 7.76355 15.7359 8.26955C15.0319 8.77555 14.3609 9.31455 13.7229 9.88655C13.5249 10.0845 13.2939 10.1725 13.0299 10.1505C12.7879 10.1285 12.5789 10.0295 12.4029 9.85355C12.2269 9.67755 12.1279 9.47955 12.1059 9.25955C12.0839 9.01755 12.1719 8.76455 12.3699 8.50055C12.7439 8.10455 13.1619 7.69755 13.6239 7.27955C14.0859 6.86155 14.5699 6.48755 15.0759 6.15755C15.5819 5.80555 16.0989 5.51955 16.6269 5.29955C17.1549 5.07955 17.6829 4.95855 18.2109 4.93655C18.9809 4.91455 19.5749 5.09055 19.9929 5.46455C20.4109 5.81655 20.6639 6.27855 20.7519 6.85055ZM16.9239 13.9455C16.6379 14.0115 16.3299 14.1545 15.9999 14.3745C15.6919 14.5725 15.4059 14.8255 15.1419 15.1335C14.8999 15.4195 14.7129 15.7495 14.5809 16.1235C14.4709 16.4755 14.4709 16.8275 14.5809 17.1795C14.6249 17.3115 14.7129 17.4105 14.8449 17.4765C14.9989 17.5425 15.1639 17.5535 15.3399 17.5095C15.8679 17.3995 16.4619 17.1905 17.1219 16.8825C17.8039 16.5525 18.3429 16.2005 18.7389 15.8265C18.7389 15.6945 18.6729 15.5295 18.5409 15.3315C18.4089 15.1115 18.2549 14.9025 18.0789 14.7045C17.9029 14.4845 17.7049 14.2975 17.4849 14.1435C17.2869 13.9895 17.0999 13.9235 16.9239 13.9455ZM34.2283 7.67555C33.8323 7.89555 33.4143 8.12655 32.9743 8.36855C32.5563 8.61055 32.1273 8.89655 31.6873 9.22655C31.2693 9.53455 30.8623 9.90855 30.4663 10.3485C30.0923 10.7665 29.7513 11.2725 29.4433 11.8665C29.0033 12.7025 28.7063 13.5605 28.5523 14.4405C28.3983 15.2985 28.2993 16.1455 28.2553 16.9815C28.2553 17.3775 28.1563 17.7845 27.9583 18.2025C27.7823 18.5985 27.5293 18.7965 27.1993 18.7965C26.7813 18.7965 26.4403 18.5875 26.1763 18.1695C25.9343 17.7295 25.7693 17.3115 25.6813 16.9155C25.3073 15.3535 24.9993 13.8135 24.7573 12.2955C24.5153 10.7555 24.3063 9.22655 24.1303 7.70855C24.1303 7.40055 24.2183 7.20255 24.3943 7.11455C24.5923 7.02655 24.8123 6.99355 25.0543 7.01555C25.3183 7.03755 25.5713 7.10355 25.8133 7.21355C26.0553 7.32355 26.1983 7.49955 26.2423 7.74155C26.3303 8.55555 26.4403 9.41355 26.5723 10.3155C26.7043 11.1955 26.8363 11.9545 26.9683 12.5925C27.0563 11.8445 27.2983 11.1185 27.6943 10.4145C28.0903 9.71055 28.5743 9.07255 29.1463 8.50055C29.7403 7.92855 30.4003 7.44455 31.1263 7.04855C31.8743 6.65255 32.6333 6.38855 33.4033 6.25655C33.7333 6.21255 34.0083 6.21255 34.2283 6.25655C34.4483 6.30055 34.6023 6.37755 34.6903 6.48755C34.7783 6.59755 34.7893 6.77355 34.7233 7.01555C34.6793 7.25755 34.5143 7.47755 34.2283 7.67555ZM41.8307 22.6575C41.8087 22.8995 41.6987 23.1195 41.5007 23.3175C41.3027 23.5375 41.0827 23.6365 40.8407 23.6145C40.4667 23.5925 40.1807 23.4495 39.9827 23.1855C39.7847 22.9215 39.6857 22.7015 39.6857 22.5255C39.6857 21.6895 39.6637 20.8205 39.6197 19.9185C39.5757 18.9945 39.5207 18.0485 39.4547 17.0805C39.1687 17.1245 38.9047 17.1025 38.6627 17.0145C38.4427 16.9045 38.2887 16.7395 38.2007 16.5195C38.0467 16.1455 38.0687 15.8155 38.2667 15.5295C38.4647 15.2435 38.7837 14.9685 39.2237 14.7045C39.1137 13.8905 39.0037 13.0875 38.8937 12.2955C38.8057 11.5035 38.7067 10.7335 38.5967 9.98555C38.5747 9.85355 38.5857 9.73255 38.6297 9.62255C38.6737 9.51255 38.7287 9.41355 38.7947 9.32555C38.8607 9.21555 38.9817 9.11655 39.1577 9.02855C39.4437 8.91855 39.7627 9.00655 40.1147 9.29255C40.4887 9.57855 40.7417 9.94155 40.8737 10.3815C40.9397 10.7995 41.0057 11.2835 41.0717 11.8335C41.1597 12.3615 41.2367 12.9445 41.3027 13.5825C41.7647 13.2965 42.1937 12.9885 42.5897 12.6585C43.0077 12.3285 43.3597 11.9765 43.6457 11.6025C43.9537 11.2285 44.1847 10.8435 44.3387 10.4475C44.4927 10.0295 44.5367 9.60055 44.4707 9.16055C44.4267 8.78655 44.2617 8.45655 43.9757 8.17055C43.6897 7.86255 43.2387 7.69755 42.6227 7.67555C42.0727 7.65355 41.5227 7.69755 40.9727 7.80755C40.4447 7.91755 39.9167 8.06055 39.3887 8.23655C38.8827 8.41255 38.3767 8.62155 37.8707 8.86355C37.3867 9.10555 36.9137 9.34755 36.4517 9.58955C36.1437 9.76555 35.8357 9.84255 35.5277 9.82055C35.2417 9.77655 35.0547 9.66655 34.9667 9.49055C34.7687 9.05055 34.7797 8.65455 34.9997 8.30255C35.2417 7.95055 35.6047 7.62055 36.0887 7.31255C36.5067 7.07055 37.0017 6.82855 37.5737 6.58655C38.1677 6.32255 38.7837 6.10255 39.4217 5.92655C40.0817 5.72855 40.7417 5.59655 41.4017 5.53055C42.0837 5.44255 42.7327 5.45355 43.3487 5.56355C43.9647 5.65155 44.5147 5.86055 44.9987 6.19055C45.5047 6.49855 45.9117 6.96055 46.2197 7.57655C46.5937 8.58855 46.6927 9.52355 46.5167 10.3815C46.3627 11.2175 46.0327 11.9875 45.5267 12.6915C45.0427 13.3735 44.4377 14.0005 43.7117 14.5725C43.0077 15.1225 42.2927 15.6175 41.5667 16.0575C41.6767 17.2455 41.7537 18.4225 41.7977 19.5885C41.8417 20.7545 41.8527 21.7775 41.8307 22.6575ZM56.8073 11.3055C55.9493 11.8115 55.0253 12.2075 54.0353 12.4935C53.0453 12.7575 51.9783 12.8895 50.8343 12.8895C50.8783 13.6595 51.0983 14.2755 51.4943 14.7375C51.8903 15.1775 52.3853 15.4415 52.9793 15.5295C53.3313 15.5735 53.6833 15.5625 54.0353 15.4965C54.4093 15.4305 54.7503 15.3315 55.0583 15.1995C55.3883 15.0455 55.6853 14.8805 55.9493 14.7045C56.2133 14.5285 56.4443 14.3525 56.6423 14.1765C56.8403 14.0005 57.0493 13.8905 57.2693 13.8465C57.4893 13.7805 57.6543 13.7695 57.7643 13.8135C58.0723 13.9235 58.1823 14.2535 58.0943 14.8035C57.7423 15.5075 57.2363 16.1125 56.5763 16.6185C55.9163 17.1025 55.1793 17.4105 54.3653 17.5425C53.6613 17.6745 52.9353 17.6415 52.1873 17.4435C51.4393 17.2455 50.7683 16.8605 50.1743 16.2885C49.6683 15.7825 49.2833 15.1885 49.0193 14.5065C48.7553 13.8245 48.5903 13.1205 48.5243 12.3945C48.4583 11.7125 48.5133 11.0635 48.6893 10.4475C48.8873 9.83155 49.1843 9.29255 49.5803 8.83055C49.9763 8.34655 50.4713 7.95055 51.0653 7.64255C51.6593 7.33455 52.3523 7.15855 53.1443 7.11455C54.0903 7.04855 54.9483 7.22455 55.7183 7.64255C56.4883 8.06055 57.0273 8.64355 57.3353 9.39155C57.5113 9.80955 57.5553 10.1725 57.4673 10.4805C57.4013 10.7885 57.1813 11.0635 56.8073 11.3055ZM53.0123 9.06155C52.7923 9.10555 52.5503 9.18255 52.2863 9.29255C52.0443 9.40255 51.8133 9.54555 51.5933 9.72155C51.3953 9.87555 51.2083 10.0625 51.0323 10.2825C50.8783 10.4805 50.7903 10.7115 50.7683 10.9755C51.1423 10.9755 51.5493 10.9425 51.9893 10.8765C52.4513 10.8105 52.8913 10.7335 53.3093 10.6455C53.7493 10.5355 54.1453 10.4145 54.4973 10.2825C54.8713 10.1505 55.1793 10.0075 55.4213 9.85355C55.2453 9.43555 54.9153 9.18255 54.4313 9.09455C53.9693 8.98455 53.4963 8.97355 53.0123 9.06155ZM75.2166 2.32955C75.1506 1.93355 75.1726 1.57055 75.2826 1.24055C75.4146 0.910546 75.6676 0.723546 76.0416 0.679546C76.3716 0.635546 76.6576 0.723546 76.8996 0.943546C77.1636 1.16355 77.3286 1.44955 77.3946 1.80155C77.8346 4.33155 78.2416 6.85055 78.6156 9.35855C79.0116 11.8445 79.3636 14.2865 79.6716 16.6845C79.7596 17.3225 79.7156 17.7625 79.5396 18.0045C79.3636 18.2245 79.1546 18.3895 78.9126 18.4995C78.6486 18.6095 78.3956 18.6095 78.1536 18.4995C77.9336 18.3895 77.7906 18.1915 77.7246 17.9055L77.6916 17.7075L77.5596 17.7405C76.8336 18.0045 76.0746 18.1585 75.2826 18.2025C74.4906 18.2245 73.7316 18.1255 73.0056 17.9055C72.2796 17.6855 71.6306 17.3335 71.0586 16.8495C70.5086 16.3435 70.1126 15.7055 69.8706 14.9355C69.3426 13.2415 69.6726 11.7015 70.8606 10.3155C71.3666 9.74355 71.9936 9.22655 72.7416 8.76455C73.4896 8.30255 74.3916 7.93955 75.4476 7.67555L76.0416 7.54355L75.2166 2.32955ZM71.8836 14.1105C72.0156 14.6385 72.2576 15.0455 72.6096 15.3315C72.9616 15.6175 73.3796 15.8155 73.8636 15.9255C74.3476 16.0135 74.8646 16.0245 75.4146 15.9585C75.9646 15.8925 76.5036 15.7715 77.0316 15.5955L77.3286 15.4965L76.4046 9.68855L75.7446 9.85355C75.2826 9.98555 74.7876 10.1945 74.2596 10.4805C73.7536 10.7445 73.3026 11.0635 72.9066 11.4375C72.5106 11.8115 72.2026 12.2295 71.9826 12.6915C71.7846 13.1535 71.7516 13.6265 71.8836 14.1105ZM86.9785 5.59655C86.9345 5.81655 86.7805 5.93755 86.5165 5.95955C86.2525 5.98155 86.0325 5.99255 85.8565 5.99255C85.3065 6.01455 84.7345 6.06955 84.1405 6.15755C83.5685 6.24555 82.9635 6.37755 82.3255 6.55355C82.0615 6.64155 81.7755 6.60855 81.4675 6.45455C81.1595 6.30055 80.9725 5.99255 80.9065 5.53055C80.9065 5.35455 80.9725 5.21155 81.1045 5.10155C81.2365 4.99155 81.3905 4.89255 81.5665 4.80455C81.8525 4.67255 82.1935 4.56255 82.5895 4.47455C82.9855 4.36455 83.3815 4.28755 83.7775 4.24355C84.1955 4.19955 84.5915 4.18855 84.9655 4.21055C85.3395 4.21055 85.6475 4.24355 85.8895 4.30955C86.2415 4.41955 86.5165 4.58455 86.7145 4.80455C86.9345 5.02455 87.0225 5.28855 86.9785 5.59655ZM86.2195 16.5855C86.3735 16.9375 86.4505 17.3225 86.4505 17.7405C86.4725 18.1365 86.3625 18.4115 86.1205 18.5655C85.8125 18.7635 85.4825 18.7525 85.1305 18.5325C84.7785 18.3125 84.5145 18.0155 84.3385 17.6415C84.0965 17.1795 83.9095 16.6185 83.7775 15.9585C83.6455 15.2765 83.5465 14.6055 83.4805 13.9455C83.4145 13.2855 83.3705 12.6695 83.3485 12.0975C83.3485 11.5255 83.3485 11.0965 83.3485 10.8105C83.3705 10.5025 83.4585 10.2165 83.6125 9.95255C83.7665 9.68855 83.9645 9.53455 84.2065 9.49055C84.6025 9.51255 84.9215 9.69955 85.1635 10.0515C85.4055 10.3815 85.5155 10.7995 85.4935 11.3055C85.4935 11.7015 85.5045 12.1415 85.5265 12.6255C85.5485 13.1095 85.5925 13.5935 85.6585 14.0775C85.7245 14.5615 85.8015 15.0345 85.8895 15.4965C85.9775 15.9365 86.0875 16.2995 86.2195 16.5855ZM97.4127 11.3055C96.5547 11.8115 95.6307 12.2075 94.6407 12.4935C93.6507 12.7575 92.5837 12.8895 91.4397 12.8895C91.4837 13.6595 91.7037 14.2755 92.0997 14.7375C92.4957 15.1775 92.9907 15.4415 93.5847 15.5295C93.9367 15.5735 94.2887 15.5625 94.6407 15.4965C95.0147 15.4305 95.3557 15.3315 95.6637 15.1995C95.9937 15.0455 96.2907 14.8805 96.5547 14.7045C96.8187 14.5285 97.0497 14.3525 97.2477 14.1765C97.4457 14.0005 97.6547 13.8905 97.8747 13.8465C98.0947 13.7805 98.2597 13.7695 98.3697 13.8135C98.6777 13.9235 98.7877 14.2535 98.6997 14.8035C98.3477 15.5075 97.8417 16.1125 97.1817 16.6185C96.5217 17.1025 95.7847 17.4105 94.9707 17.5425C94.2667 17.6745 93.5407 17.6415 92.7927 17.4435C92.0447 17.2455 91.3737 16.8605 90.7797 16.2885C90.2737 15.7825 89.8887 15.1885 89.6247 14.5065C89.3607 13.8245 89.1957 13.1205 89.1297 12.3945C89.0637 11.7125 89.1187 11.0635 89.2947 10.4475C89.4927 9.83155 89.7897 9.29255 90.1857 8.83055C90.5817 8.34655 91.0767 7.95055 91.6707 7.64255C92.2647 7.33455 92.9577 7.15855 93.7497 7.11455C94.6957 7.04855 95.5537 7.22455 96.3237 7.64255C97.0937 8.06055 97.6327 8.64355 97.9407 9.39155C98.1167 9.80955 98.1607 10.1725 98.0727 10.4805C98.0067 10.7885 97.7867 11.0635 97.4127 11.3055ZM93.6177 9.06155C93.3977 9.10555 93.1557 9.18255 92.8917 9.29255C92.6497 9.40255 92.4187 9.54555 92.1987 9.72155C92.0007 9.87555 91.8137 10.0625 91.6377 10.2825C91.4837 10.4805 91.3957 10.7115 91.3737 10.9755C91.7477 10.9755 92.1547 10.9425 92.5947 10.8765C93.0567 10.8105 93.4967 10.7335 93.9147 10.6455C94.3547 10.5355 94.7507 10.4145 95.1027 10.2825C95.4767 10.1505 95.7847 10.0075 96.0267 9.85355C95.8507 9.43555 95.5207 9.18255 95.0367 9.09455C94.5747 8.98455 94.1017 8.97355 93.6177 9.06155ZM102.976 8.40155C102.998 8.75355 103.031 9.19355 103.075 9.72155C103.141 10.2275 103.207 10.7665 103.273 11.3385C103.339 11.8885 103.405 12.4385 103.471 12.9885C103.559 13.5385 103.636 14.0445 103.702 14.5065C103.944 14.0225 104.241 13.4285 104.593 12.7245C104.945 12.0205 105.308 11.3495 105.682 10.7115C106.078 10.0515 106.474 9.50155 106.87 9.06155C107.288 8.59955 107.662 8.36855 107.992 8.36855C108.344 8.36855 108.663 8.54455 108.949 8.89655C109.257 9.22655 109.521 9.63355 109.741 10.1175C109.961 10.6015 110.148 11.1185 110.302 11.6685C110.478 12.2185 110.621 12.7025 110.731 13.1205C110.819 12.8345 110.929 12.5155 111.061 12.1635C111.215 11.7895 111.369 11.4155 111.523 11.0415C111.699 10.6455 111.886 10.2605 112.084 9.88655C112.304 9.51255 112.535 9.18255 112.777 8.89655C113.063 8.58855 113.371 8.36855 113.701 8.23655C114.031 8.08255 114.273 8.00555 114.427 8.00555C114.625 8.00555 114.856 8.07155 115.12 8.20355C115.406 8.31355 115.692 8.46755 115.978 8.66555C116.264 8.86355 116.528 9.10555 116.77 9.39155C117.034 9.65555 117.243 9.93055 117.397 10.2165C117.705 10.8105 117.947 11.4595 118.123 12.1635C118.321 12.8675 118.464 13.5385 118.552 14.1765C118.64 14.8145 118.695 15.3865 118.717 15.8925C118.761 16.3765 118.794 16.7175 118.816 16.9155C118.816 17.2015 118.783 17.4215 118.717 17.5755C118.651 17.7075 118.53 17.8175 118.354 17.9055C118.112 18.0155 117.903 18.0595 117.727 18.0375C117.551 17.9935 117.408 17.9165 117.298 17.8065C117.188 17.6965 117.1 17.5755 117.034 17.4435C116.968 17.2895 116.924 17.1575 116.902 17.0475C116.836 16.5415 116.759 16.0245 116.671 15.4965C116.605 14.9685 116.528 14.4625 116.44 13.9785C116.352 13.4725 116.242 13.0105 116.11 12.5925C116 12.1525 115.879 11.7675 115.747 11.4375C115.703 11.3495 115.626 11.2395 115.516 11.1075C115.428 10.9535 115.318 10.8105 115.186 10.6785C115.076 10.5465 114.966 10.4365 114.856 10.3485C114.746 10.2605 114.669 10.2055 114.625 10.1835C114.405 10.1835 114.174 10.3925 113.932 10.8105C113.69 11.2065 113.459 11.6905 113.239 12.2625C113.019 12.8345 112.81 13.4395 112.612 14.0775C112.436 14.6935 112.304 15.2215 112.216 15.6615C112.216 16.2335 112.106 16.6625 111.886 16.9485C111.666 17.2125 111.435 17.3445 111.193 17.3445C110.951 17.3445 110.687 17.2565 110.401 17.0805C110.137 16.8825 109.961 16.6625 109.873 16.4205C109.741 16.0685 109.598 15.6725 109.444 15.2325C109.29 14.7925 109.125 14.3415 108.949 13.8795C108.795 13.4175 108.63 12.9665 108.454 12.5265C108.3 12.0865 108.146 11.6905 107.992 11.3385C107.684 11.7565 107.376 12.2185 107.068 12.7245C106.782 13.2305 106.496 13.7475 106.21 14.2755C105.946 14.8035 105.682 15.3315 105.418 15.8595C105.176 16.3655 104.945 16.8165 104.725 17.2125C104.571 17.4545 104.406 17.6745 104.23 17.8725C104.054 18.0485 103.845 18.1365 103.603 18.1365C103.427 18.1365 103.24 18.0595 103.042 17.9055C102.844 17.7295 102.657 17.5205 102.481 17.2785C102.305 17.0365 102.14 16.7615 101.986 16.4535C101.854 16.1455 101.755 15.8375 101.689 15.5295C101.513 14.5835 101.359 13.5495 101.227 12.4275C101.117 11.2835 101.007 10.1725 100.897 9.09455C100.875 8.72055 100.919 8.37955 101.029 8.07155C101.161 7.74155 101.403 7.52155 101.755 7.41155C102.129 7.34555 102.415 7.40055 102.613 7.57655C102.811 7.75255 102.932 8.02755 102.976 8.40155ZM126.706 1.76855C126.508 2.73655 126.299 3.69355 126.079 4.63955C125.881 5.58555 125.694 6.53155 125.518 7.47755C125.342 8.42355 125.21 9.36955 125.122 10.3155C125.034 11.2615 125.023 12.2075 125.089 13.1535C125.133 13.3955 125.089 13.6265 124.957 13.8465C124.847 14.0665 124.715 14.2095 124.561 14.2755C124.077 14.4515 123.725 14.3305 123.505 13.9125C123.241 12.7905 123.098 11.6795 123.076 10.5795C123.076 9.47955 123.153 8.39055 123.307 7.31255C123.483 6.23455 123.703 5.16755 123.967 4.11155C124.253 3.03355 124.539 1.96655 124.825 0.910546C124.935 0.470546 125.111 0.228545 125.353 0.184546C125.595 0.140545 125.826 0.162545 126.046 0.250545C126.376 0.360545 126.585 0.580545 126.673 0.910546C126.761 1.24055 126.772 1.52655 126.706 1.76855ZM125.386 19.5225C125.386 19.7645 125.353 20.0945 125.287 20.5125C125.243 20.9085 125.155 21.2825 125.023 21.6345C124.913 21.9865 124.748 22.2725 124.528 22.4925C124.33 22.7125 124.077 22.7565 123.769 22.6245C123.593 22.5145 123.417 22.3055 123.241 21.9975C123.065 21.6895 122.988 21.4035 123.01 21.1395C123.054 20.6115 123.164 20.0945 123.34 19.5885C123.516 19.0825 123.747 18.7745 124.033 18.6645C124.165 18.6205 124.308 18.6205 124.462 18.6645C124.638 18.7085 124.792 18.7855 124.924 18.8955C125.056 18.9835 125.166 19.0935 125.254 19.2255C125.342 19.3355 125.386 19.4345 125.386 19.5225Z" fill="#FFE03D"/>
</svg>
