<svg width="246" height="82" viewBox="0 0 246 82" fill="none" xmlns="http://www.w3.org/2000/svg">
<path d="M8.085 15.0435C7.975 15.2195 7.733 15.3625 7.359 15.4725C7.007 15.5605 6.6 15.6265 6.138 15.6705C5.676 15.7145 5.203 15.7475 4.719 15.7695C4.257 15.7695 3.872 15.7585 3.564 15.7365C3.85 15.9565 3.971 16.2095 3.927 16.4955C3.795 17.4855 3.696 18.5305 3.63 19.6305C3.586 20.7305 3.619 21.7755 3.729 22.7655C4.455 22.5675 5.39 22.2155 6.534 21.7095C7.678 21.1815 8.833 20.4225 9.999 19.4325C10.439 19.0365 10.758 18.9045 10.956 19.0365C11.11 19.1465 11.143 19.3225 11.055 19.5645C10.989 19.7845 10.89 20.0045 10.758 20.2245C10.494 20.6865 10.131 21.1705 9.669 21.6765C9.207 22.1605 8.679 22.6335 8.085 23.0955C7.513 23.5355 6.886 23.9535 6.204 24.3495C5.544 24.7235 4.862 25.0315 4.158 25.2735C3.784 25.3835 3.443 25.3945 3.135 25.3065C2.849 25.2185 2.596 25.0755 2.376 24.8775C2.178 24.6575 2.002 24.4045 1.848 24.1185C1.716 23.8105 1.639 23.4915 1.617 23.1615C1.485 21.9075 1.452 20.6315 1.518 19.3335C1.584 18.0135 1.705 16.7925 1.881 15.6705C1.419 15.6265 1.056 15.4945 0.792 15.2745C0.55 15.0325 0.429 14.7685 0.429 14.4825C0.429 14.3945 0.451 14.3065 0.495 14.2185C0.561 14.1085 0.715 14.0205 0.957 13.9545C1.111 13.9105 1.43 13.8555 1.914 13.7895C2.398 13.7235 2.948 13.6795 3.564 13.6575C4.18 13.6355 4.807 13.6355 5.445 13.6575C6.105 13.6795 6.677 13.7565 7.161 13.8885C7.535 13.9985 7.81 14.1745 7.986 14.4165C8.162 14.6365 8.195 14.8455 8.085 15.0435ZM15.18 23.8545C15.18 24.2285 15.048 24.4815 14.784 24.6135C14.52 24.7455 14.245 24.7895 13.959 24.7455C13.783 24.7015 13.596 24.5915 13.398 24.4155C13.2 24.2395 13.079 23.9865 13.035 23.6565C12.969 22.5785 12.914 21.4785 12.87 20.3565C12.848 19.2345 12.837 18.1455 12.837 17.0895C12.837 16.0335 12.848 15.0325 12.87 14.0865C12.892 13.1185 12.925 12.2605 12.969 11.5125C12.969 11.3145 13.046 11.1275 13.2 10.9515C13.376 10.7755 13.585 10.6875 13.827 10.6875C14.245 10.6875 14.564 10.8635 14.784 11.2155C15.026 11.5675 15.147 11.8975 15.147 12.2055C15.103 12.9095 15.07 13.6245 15.048 14.3505C15.026 15.0765 15.004 15.8135 14.982 16.5615C15.796 16.2755 16.687 16.0775 17.655 15.9675C18.623 15.8355 19.745 15.8245 21.021 15.9345C21.373 15.9785 21.703 16.0885 22.011 16.2645C22.341 16.4405 22.506 16.6605 22.506 16.9245C22.396 17.2985 22.187 17.5405 21.879 17.6505C21.571 17.7605 21.241 17.8045 20.889 17.7825C20.669 17.7825 20.383 17.7935 20.031 17.8155C19.701 17.8375 19.338 17.8815 18.942 17.9475C18.546 17.9915 18.128 18.0575 17.688 18.1455C17.248 18.2335 16.83 18.3215 16.434 18.4095C16.148 18.4755 15.884 18.4755 15.642 18.4095C15.4 18.3435 15.18 18.2445 14.982 18.1125C14.982 20.1365 15.048 22.0505 15.18 23.8545ZM41.9987 23.9535C41.9987 24.0855 41.9877 24.2285 41.9657 24.3825C41.9657 24.5145 41.9217 24.6465 41.8337 24.7785C41.7677 24.8885 41.6687 24.9765 41.5367 25.0425C41.4047 25.0865 41.2287 25.0755 41.0087 25.0095C40.7007 24.9215 40.4367 24.6465 40.2167 24.1845C40.0187 23.7225 39.8977 23.2495 39.8537 22.7655C39.7657 22.1055 39.6887 21.4015 39.6227 20.6535C39.5787 19.8835 39.5457 18.9705 39.5237 17.9145C38.8417 18.2005 38.2037 18.4975 37.6097 18.8055C37.0157 19.1135 36.4657 19.3555 35.9597 19.5315C35.9157 19.5535 35.8607 19.5755 35.7947 19.5975C35.7287 19.5975 35.6737 19.6085 35.6297 19.6305C35.5857 20.3785 35.5527 21.1155 35.5307 21.8415C35.5307 22.5455 35.5417 23.1835 35.5637 23.7555C35.5857 24.1295 35.5087 24.4815 35.3327 24.8115C35.1787 25.1415 34.9477 25.2955 34.6397 25.2735C34.5077 25.2735 34.3757 25.2075 34.2437 25.0755C34.1117 24.9215 33.9907 24.7455 33.8807 24.5475C33.7927 24.3275 33.7157 24.1075 33.6497 23.8875C33.6057 23.6455 33.5727 23.4255 33.5507 23.2275C33.5067 22.7655 33.4737 22.1935 33.4517 21.5115C33.4517 20.8295 33.4517 20.1255 33.4517 19.3995C33.4517 18.6735 33.4627 17.9695 33.4847 17.2875C33.5067 16.6055 33.5287 16.0335 33.5507 15.5715C33.5727 15.1315 33.6607 14.7245 33.8147 14.3505C33.9687 13.9765 34.2327 13.7895 34.6067 13.7895C34.8047 13.7895 34.9917 13.8665 35.1677 14.0205C35.3437 14.1525 35.4867 14.3285 35.5967 14.5485C35.7067 14.7465 35.7837 14.9665 35.8277 15.2085C35.8937 15.4505 35.9157 15.6595 35.8937 15.8355C35.8497 16.0775 35.8167 16.3305 35.7947 16.5945C35.7947 16.8365 35.7837 17.1005 35.7617 17.3865C36.4657 17.0125 37.1807 16.6825 37.9067 16.3965C38.6327 16.0885 39.1827 15.8685 39.5567 15.7365C39.5567 15.5165 39.5677 15.2635 39.5897 14.9775C39.6117 14.6695 39.6447 14.3395 39.6887 13.9875C39.7327 13.5475 39.8647 13.1735 40.0847 12.8655C40.3047 12.5355 40.6127 12.3595 41.0087 12.3375C41.4047 12.3815 41.6467 12.5905 41.7347 12.9645C41.8227 13.3165 41.8447 13.6905 41.8007 14.0865C41.6907 15.6045 41.6577 17.2215 41.7017 18.9375C41.7457 20.6535 41.8447 22.3255 41.9987 23.9535ZM30.9437 28.0455C30.7017 28.0235 30.4707 27.8915 30.2507 27.6495C30.0527 27.3855 29.9207 27.1435 29.8547 26.9235C29.7227 26.4175 29.5907 25.8455 29.4587 25.2075C29.3487 24.5475 29.2167 23.9205 29.0627 23.3265C28.9307 22.7105 28.7767 22.1495 28.6007 21.6435C28.4247 21.1375 28.2377 20.7855 28.0397 20.5875C27.9517 20.5215 27.8747 20.4555 27.8087 20.3895C27.7427 20.3235 27.6877 20.2685 27.6437 20.2245C27.4677 20.6645 27.2917 21.1045 27.1157 21.5445C26.9397 21.9845 26.7417 22.4465 26.5217 22.9305C26.2137 23.6565 25.8177 23.9865 25.3337 23.9205C25.1357 23.8325 24.9817 23.6895 24.8717 23.4915C24.7617 23.2715 24.6847 23.0295 24.6407 22.7655C24.6187 22.5015 24.6297 22.2375 24.6737 21.9735C24.7177 21.6875 24.7837 21.4345 24.8717 21.2145C25.2897 20.2905 25.6417 19.4105 25.9277 18.5745C26.2137 17.7385 26.5107 16.7705 26.8187 15.6705C26.5987 15.6925 26.3787 15.7585 26.1587 15.8685C25.9387 15.9565 25.7297 16.0665 25.5317 16.1985C25.3557 16.3085 25.1907 16.4295 25.0367 16.5615C24.8827 16.6715 24.7617 16.7595 24.6737 16.8255C24.4757 17.0015 24.2227 17.1445 23.9147 17.2545C23.6287 17.3425 23.3317 17.2545 23.0237 16.9905C22.8037 16.7705 22.7267 16.4955 22.7927 16.1655C22.8587 15.8355 22.9687 15.5825 23.1227 15.4065C23.2327 15.2525 23.4197 15.0655 23.6837 14.8455C23.9477 14.6035 24.2447 14.3835 24.5747 14.1855C24.9267 13.9875 25.3007 13.8115 25.6967 13.6575C26.0927 13.5035 26.4777 13.4045 26.8517 13.3605C27.2697 13.3385 27.6437 13.3825 27.9737 13.4925C28.3037 13.6025 28.5677 13.7785 28.7657 14.0205C28.9857 14.2405 29.1177 14.5045 29.1617 14.8125C29.2277 15.1205 29.1947 15.4505 29.0627 15.8025C28.8427 16.4845 28.6447 17.1115 28.4687 17.6835C28.2927 18.2555 28.1167 18.7945 27.9407 19.3005C28.6887 19.2785 29.2387 19.4655 29.5907 19.8615C29.9647 20.2575 30.2617 20.7855 30.4817 21.4455C30.6137 21.8635 30.7457 22.3145 30.8777 22.7985C31.0097 23.2605 31.1307 23.7225 31.2407 24.1845C31.3727 24.6465 31.4717 25.0975 31.5377 25.5375C31.6257 25.9555 31.6917 26.3295 31.7357 26.6595C31.8017 27.0335 31.7907 27.3745 31.7027 27.6825C31.6367 27.9685 31.3837 28.0895 30.9437 28.0455ZM27.4787 12.6015C27.1707 12.7115 26.8957 12.6785 26.6537 12.5025C26.4337 12.3045 26.3017 12.1065 26.2577 11.9085C26.0157 11.2705 25.7737 10.6215 25.5317 9.96155C25.3117 9.27955 24.9047 8.53155 24.3107 7.71755C24.1567 7.47555 24.1457 7.23355 24.2777 6.99155C24.3437 6.90354 24.4207 6.82655 24.5087 6.76055C24.6187 6.69455 24.7397 6.67255 24.8717 6.69454C25.2017 6.71655 25.4877 6.81555 25.7297 6.99155C25.9937 7.14555 26.2467 7.34355 26.4887 7.58555C26.6867 7.78355 26.8737 8.03655 27.0497 8.34455C27.2257 8.63055 27.3687 8.94955 27.4787 9.30155C27.6107 9.65355 27.7097 10.0165 27.7757 10.3905C27.8637 10.7645 27.9077 11.1165 27.9077 11.4465C27.9077 11.6225 27.8967 11.8425 27.8747 12.1065C27.8527 12.3485 27.7207 12.5135 27.4787 12.6015ZM49.2801 12.6675C49.1041 12.9975 48.8841 13.3715 48.6201 13.7895C48.3781 14.2075 48.1251 14.6365 47.8611 15.0765C48.0591 15.0325 48.2901 14.9995 48.5541 14.9775C48.8401 14.9335 49.1041 14.9005 49.3461 14.8785C49.9841 14.8345 50.3801 14.9995 50.5341 15.3735C50.6881 15.7255 50.6441 16.1325 50.4021 16.5945C50.1381 17.1005 49.8191 17.6285 49.4451 18.1785C49.0931 18.7285 48.7851 19.3665 48.5211 20.0925C48.8291 20.0485 49.1591 20.0155 49.5111 19.9935C49.8631 19.9495 50.1931 19.9385 50.5011 19.9605C51.0951 20.0045 51.5351 20.2355 51.8211 20.6535C52.1291 21.0495 52.2061 21.5555 52.0521 22.1715C51.8541 22.9415 51.5351 23.6565 51.0951 24.3165C50.6771 24.9545 50.2151 25.5265 49.7091 26.0325C50.4571 25.9885 51.1391 25.9445 51.7551 25.9005C52.3711 25.8565 52.9541 25.8015 53.5041 25.7355C54.0761 25.6695 54.6481 25.5925 55.2201 25.5045C55.7921 25.4165 56.4081 25.3175 57.0681 25.2075C57.5081 25.1635 57.7941 25.1965 57.9261 25.3065C58.0581 25.3945 58.1571 25.5485 58.2231 25.7685C58.2231 26.1425 58.1241 26.4395 57.9261 26.6595C57.7281 26.8575 57.4201 27.0115 57.0021 27.1215C54.0761 27.9355 51.0841 28.3095 48.0261 28.2435C47.4761 28.2215 47.0801 28.0895 46.8381 27.8475C46.5961 27.5835 46.4971 27.3195 46.5411 27.0555C46.5411 26.8795 46.5851 26.7145 46.6731 26.5605C46.7831 26.4065 46.9261 26.2635 47.1021 26.1315C47.3441 25.9335 47.6191 25.6805 47.9271 25.3725C48.2351 25.0645 48.5211 24.7235 48.7851 24.3495C49.0711 23.9755 49.3241 23.5905 49.5441 23.1945C49.7861 22.7765 49.9511 22.3695 50.0391 21.9735C49.7091 22.0175 49.2471 22.0945 48.6531 22.2045C48.0811 22.3145 47.5421 22.2815 47.0361 22.1055C46.7941 21.9955 46.6071 21.7975 46.4751 21.5115C46.3651 21.2255 46.3431 20.8955 46.4091 20.5215C46.5191 19.9935 46.7501 19.3885 47.1021 18.7065C47.4761 18.0245 47.8721 17.4195 48.2901 16.8915C48.0261 16.9355 47.7071 17.0015 47.3331 17.0895C46.9591 17.1775 46.6291 17.2655 46.3431 17.3535C46.0131 17.4195 45.7271 17.3865 45.4851 17.2545C45.2651 17.1225 45.1001 16.9575 44.9901 16.7595C44.7701 16.2975 44.8031 15.8685 45.0891 15.4725C45.5951 14.7685 46.0241 14.1415 46.3761 13.5915C46.7281 13.0415 47.0251 12.5025 47.2671 11.9745C46.9811 11.8645 46.6071 11.8095 46.1451 11.8095C45.6831 11.7875 45.2651 11.7765 44.8911 11.7765C44.7151 11.7765 44.5281 11.6995 44.3301 11.5455C44.1541 11.3695 44.0551 11.1825 44.0331 10.9845C44.0331 10.7425 44.1211 10.5225 44.2971 10.3245C44.4731 10.1265 44.7151 10.0055 45.0231 9.96155C45.4631 9.91755 45.9471 9.91755 46.4751 9.96155C47.0251 10.0055 47.5531 10.1265 48.0591 10.3245C48.6971 10.5665 49.1151 10.8965 49.3131 11.3145C49.5331 11.7325 49.5221 12.1835 49.2801 12.6675ZM72.0068 18.0135C71.9848 18.1235 71.8968 18.3105 71.7428 18.5745C71.5888 18.8165 71.3468 18.9595 71.0168 19.0035C70.7308 19.0475 70.4448 19.1025 70.1588 19.1685C69.8948 19.2125 69.6088 19.2565 69.3008 19.3005C69.0588 20.2905 68.8718 21.3025 68.7398 22.3365C68.6078 23.3705 68.4868 24.3935 68.3768 25.4055C68.3328 25.8235 68.2118 26.1755 68.0138 26.4615C67.8378 26.7475 67.5738 26.8685 67.2218 26.8245C66.8478 26.7805 66.6058 26.6155 66.4958 26.3295C66.4078 26.0435 66.3638 25.7465 66.3638 25.4385C66.3638 25.0425 66.3748 24.6025 66.3968 24.1185C66.4408 23.6125 66.4958 23.1065 66.5618 22.6005C66.6278 22.0725 66.6938 21.5555 66.7598 21.0495C66.8478 20.5435 66.9468 20.0925 67.0568 19.6965C65.8468 19.9165 64.6258 20.1475 63.3938 20.3895C62.1618 20.6315 61.0178 20.8735 59.9618 21.1155C59.4558 21.2255 59.0158 21.2255 58.6418 21.1155C58.2898 21.0055 58.0808 20.7855 58.0148 20.4555C57.9708 20.1695 58.1138 19.9055 58.4438 19.6635C58.7738 19.4215 59.1368 19.2455 59.5328 19.1355C60.3248 18.9595 61.1828 18.7725 62.1068 18.5745C63.0308 18.3545 63.9658 18.1565 64.9118 17.9805C65.8798 17.7825 66.8368 17.6285 67.7828 17.5185C68.7508 17.3865 69.6748 17.3095 70.5548 17.2875C71.0168 17.2875 71.3798 17.3755 71.6438 17.5515C71.9078 17.7055 72.0288 17.8595 72.0068 18.0135ZM66.9908 8.50955C67.2328 8.55355 67.4418 8.68555 67.6178 8.90555C67.8158 9.10355 67.9588 9.35655 68.0468 9.66455C68.1348 9.95055 68.1678 10.2695 68.1458 10.6215C68.1458 10.9735 68.0688 11.3255 67.9148 11.6775C67.7828 11.9635 67.5958 12.2715 67.3538 12.6015C67.1338 12.9315 66.8698 13.2505 66.5618 13.5585C66.2758 13.8665 65.9568 14.1415 65.6048 14.3835C65.2748 14.6255 64.9338 14.7905 64.5818 14.8785C64.2958 14.9665 63.9988 14.9995 63.6908 14.9775C63.4048 14.9555 63.1298 14.8785 62.8658 14.7465C62.6018 14.6145 62.3818 14.4385 62.2058 14.2185C62.0298 13.9985 61.9088 13.7345 61.8428 13.4265C61.7988 13.1405 61.8098 12.7665 61.8758 12.3045C61.9638 11.8425 62.0848 11.3695 62.2388 10.8855C62.4148 10.3795 62.6238 9.89555 62.8658 9.43355C63.1078 8.97155 63.3608 8.58655 63.6248 8.27855C63.8008 8.10255 63.9878 7.94855 64.1858 7.81655C64.3838 7.66255 64.6258 7.58555 64.9118 7.58555C65.1538 7.58555 65.3298 7.69555 65.4398 7.91554C65.5718 8.13555 65.6378 8.36655 65.6378 8.60855C65.9018 8.52055 66.1328 8.47655 66.3308 8.47655C66.5508 8.45455 66.7708 8.46555 66.9908 8.50955ZM64.2848 25.2735C64.2408 25.4935 64.1968 25.7575 64.1528 26.0655C64.1088 26.3735 64.0648 26.6925 64.0208 27.0225C63.9988 27.3305 63.9768 27.6385 63.9548 27.9465C63.9328 28.2545 63.9218 28.5295 63.9218 28.7715C64.6918 28.6395 65.4068 28.4965 66.0668 28.3425C66.7268 28.1885 67.3758 28.0235 68.0138 27.8475C68.6738 27.6715 69.3448 27.4735 70.0268 27.2535C70.7088 27.0115 71.4678 26.7475 72.3038 26.4615C72.6778 26.3295 72.9418 26.2855 73.0958 26.3295C73.2498 26.3735 73.3378 26.5165 73.3598 26.7585C73.4038 27.1765 73.2718 27.5065 72.9638 27.7485C72.6778 27.9685 72.3588 28.1665 72.0068 28.3425C71.5448 28.5845 70.9948 28.8375 70.3568 29.1015C69.7188 29.3655 69.0368 29.6185 68.3108 29.8605C67.6068 30.1025 66.8698 30.3115 66.0998 30.4875C65.3518 30.6635 64.6258 30.7845 63.9218 30.8505C63.4818 30.8945 63.1298 30.8615 62.8658 30.7515C62.6018 30.6415 62.3928 30.4985 62.2388 30.3225C62.0848 30.1245 61.9748 29.9265 61.9088 29.7285C61.8428 29.5305 61.8098 29.3655 61.8098 29.2335C61.7658 28.8595 61.7658 28.3425 61.8098 27.6825C61.8538 27.0225 61.9308 26.4285 62.0408 25.9005C62.1288 25.5925 62.2828 25.2515 62.5028 24.8775C62.7228 24.5035 63.0088 24.2835 63.3608 24.2175C64.1088 24.0855 64.4168 24.4375 64.2848 25.2735ZM64.2188 12.8655C64.3508 12.8655 64.5158 12.7885 64.7138 12.6345C64.9118 12.4585 65.1098 12.2605 65.3078 12.0405C65.5278 11.7985 65.7148 11.5565 65.8688 11.3145C66.0448 11.0725 66.1548 10.8525 66.1988 10.6545C66.3088 10.4785 66.3198 10.3355 66.2318 10.2255C66.1438 10.0935 66.0228 9.97255 65.8688 9.86255C65.6928 9.75255 65.4838 9.64255 65.2418 9.53255C65.1098 9.73055 64.9778 10.0055 64.8458 10.3575C64.7358 10.6875 64.6368 11.0175 64.5488 11.3475C64.4608 11.6775 64.3838 11.9855 64.3178 12.2715C64.2738 12.5575 64.2408 12.7555 64.2188 12.8655ZM87.8952 13.5255C87.4552 13.6135 86.9272 13.6905 86.3112 13.7565C85.6952 13.8005 85.1892 13.8115 84.7932 13.7895C84.9252 13.8555 85.0242 13.9765 85.0902 14.1525C85.1782 14.3065 85.2222 14.4715 85.2222 14.6475C85.2222 15.0875 85.2112 15.5165 85.1892 15.9345C85.1672 16.3305 85.1452 16.7375 85.1232 17.1555C85.1232 17.5735 85.1232 18.0135 85.1232 18.4755C85.1232 18.9375 85.1342 19.4545 85.1562 20.0265C85.1342 20.2025 85.2222 20.2905 85.4202 20.2905C85.6182 20.2905 85.8602 20.2135 86.1462 20.0595C86.4982 19.8615 86.8942 19.6195 87.3342 19.3335C87.7962 19.0255 88.2692 18.6955 88.7532 18.3435C89.2372 17.9695 89.7212 17.5845 90.2052 17.1885C90.7112 16.7705 91.1842 16.3415 91.6242 15.9015C91.7782 15.7475 91.9322 15.6155 92.0862 15.5055C92.2402 15.3735 92.3722 15.3625 92.4822 15.4725C92.5922 15.5825 92.6472 15.7255 92.6472 15.9015C92.6472 16.0775 92.6142 16.2535 92.5482 16.4295C92.5042 16.6055 92.4382 16.7815 92.3502 16.9575C92.2622 17.1115 92.1852 17.2435 92.1192 17.3535C91.6792 18.0135 91.1622 18.6405 90.5682 19.2345C89.9962 19.8065 89.4022 20.3235 88.7862 20.7855C88.1922 21.2475 87.6202 21.6435 87.0702 21.9735C86.5202 22.2815 86.0692 22.5015 85.7172 22.6335C85.1892 22.8315 84.7492 22.9085 84.3972 22.8645C84.0452 22.8205 83.7702 22.6995 83.5722 22.5015C83.3742 22.3035 83.2312 22.0395 83.1432 21.7095C83.0552 21.3795 83.0002 21.0165 82.9782 20.6205C82.9342 20.0705 82.9232 19.4875 82.9452 18.8715C82.9672 18.2555 83.0222 17.6505 83.1102 17.0565C83.1982 16.4405 83.2972 15.8465 83.4072 15.2745C83.5392 14.7025 83.6822 14.1965 83.8362 13.7565C83.4182 13.7565 83.0332 13.6685 82.6812 13.4925C82.3512 13.3165 82.1862 13.0635 82.1862 12.7335C82.1862 12.6235 82.2082 12.5135 82.2522 12.4035C82.2962 12.2935 82.4282 12.2165 82.6482 12.1725C83.0882 12.0845 83.5832 12.0185 84.1332 11.9745C84.6832 11.9305 85.2222 11.9085 85.7502 11.9085C86.2782 11.9085 86.7622 11.9195 87.2022 11.9415C87.6422 11.9635 87.9832 11.9855 88.2252 12.0075C88.4452 12.0515 88.6762 12.1065 88.9182 12.1725C89.1602 12.2385 89.2812 12.3925 89.2812 12.6345C89.2812 12.8765 89.1162 13.0745 88.7862 13.2285C88.4562 13.3825 88.1592 13.4815 87.8952 13.5255ZM103.273 12.5025C103.625 12.6125 103.812 12.7775 103.834 12.9975C103.856 13.1955 103.845 13.3165 103.801 13.3605C103.691 13.5585 103.471 13.7125 103.141 13.8225C102.811 13.9325 102.459 14.0095 102.085 14.0535C101.381 14.1415 100.677 14.2515 99.9732 14.3835C99.2692 14.4935 98.5542 14.6365 97.8282 14.8125C97.6522 14.8565 97.5422 14.8785 97.4982 14.8785C97.4762 15.7585 97.4762 16.6495 97.4982 17.5515C97.5422 18.4535 97.6192 19.3775 97.7292 20.3235C97.7512 20.5655 97.7292 20.7745 97.6632 20.9505C97.6192 21.1265 97.4102 21.2145 97.0362 21.2145C96.7942 21.2145 96.5412 21.1595 96.2772 21.0495C96.0352 20.9395 95.8812 20.6645 95.8152 20.2245C95.6832 19.3665 95.5842 18.4535 95.5182 17.4855C95.4742 16.5175 95.4522 15.5605 95.4522 14.6145C95.4522 13.6465 95.4852 12.7115 95.5512 11.8095C95.6172 10.9075 95.7162 10.0825 95.8482 9.33455C95.8922 9.18055 96.0682 9.05955 96.3762 8.97155C96.6842 8.86155 96.9812 8.82855 97.2672 8.87255C97.4432 8.91655 97.5862 9.03755 97.6962 9.23555C97.8062 9.41155 97.8612 9.60955 97.8612 9.82955C97.8172 10.3135 97.7732 10.8085 97.7292 11.3145C97.6852 11.7985 97.6412 12.2935 97.5972 12.7995C98.4332 12.5575 99.3682 12.3925 100.402 12.3045C101.458 12.2165 102.415 12.2825 103.273 12.5025ZM97.7292 23.2275C98.0152 23.3375 98.2572 23.5795 98.4552 23.9535C98.6752 24.3275 98.7852 24.6795 98.7852 25.0095C98.7852 25.6255 98.6092 26.2195 98.2572 26.7915C97.9052 27.3415 97.4762 27.8365 96.9702 28.2765C96.4642 28.6945 95.9362 29.0355 95.3862 29.2995C94.8582 29.5635 94.4182 29.7285 94.0662 29.7945C93.9122 29.8165 93.7252 29.8385 93.5052 29.8605C93.3072 29.8605 93.0982 29.8385 92.8782 29.7945C92.6802 29.7505 92.4822 29.6625 92.2842 29.5305C92.1082 29.3985 91.9652 29.2115 91.8552 28.9695C91.6132 28.2215 91.5472 27.4955 91.6572 26.7915C91.7892 26.0875 92.0202 25.4385 92.3502 24.8445C92.6802 24.2285 93.0762 23.6895 93.5382 23.2275C94.0222 22.7435 94.4952 22.3585 94.9572 22.0725C95.1112 21.9625 95.2982 21.9075 95.5182 21.9075C95.7382 21.9075 95.9362 21.9735 96.1122 22.1055C96.2662 22.2155 96.3212 22.4025 96.2772 22.6665C96.2552 22.9305 96.1562 23.1615 95.9802 23.3595C95.2982 24.1295 94.7812 24.9435 94.4292 25.8015C94.0772 26.6595 93.8792 27.3855 93.8352 27.9795C94.4732 27.7155 95.0232 27.3745 95.4852 26.9565C95.9692 26.5385 96.3982 26.0325 96.7722 25.4385C96.9262 25.1745 96.9702 24.9435 96.9042 24.7455C96.8382 24.5255 96.7392 24.3275 96.6072 24.1515C96.4752 23.9755 96.3872 23.7995 96.3432 23.6235C96.3212 23.4475 96.3542 23.3155 96.4422 23.2275C96.5522 23.1175 96.6952 23.0515 96.8712 23.0295C97.0692 23.0075 97.3552 23.0735 97.7292 23.2275ZM120.2 10.6875C120.09 12.4035 120.035 14.1195 120.035 15.8355C120.035 17.5295 120.112 19.2235 120.266 20.9175C120.288 21.2695 120.255 21.6545 120.167 22.0725C120.079 22.4685 119.881 22.6885 119.573 22.7325C119.463 22.7325 119.342 22.6775 119.21 22.5675C119.1 22.4575 118.99 22.3255 118.88 22.1715C118.77 21.9955 118.66 21.8195 118.55 21.6435C118.462 21.4455 118.407 21.2585 118.385 21.0825C118.099 19.3665 117.934 17.5625 117.89 15.6705C117.868 13.7565 117.978 11.9305 118.22 10.1925C118.264 9.97255 118.418 9.80755 118.682 9.69755C118.946 9.58755 119.188 9.55455 119.408 9.59854C119.65 9.64255 119.837 9.77455 119.969 9.99455C120.123 10.2145 120.2 10.4455 120.2 10.6875ZM109.211 16.5285C109.541 16.5725 109.838 16.6825 110.102 16.8585C110.388 17.0345 110.553 17.4635 110.597 18.1455C110.619 18.6075 110.663 19.1575 110.729 19.7955C110.817 20.4335 110.905 21.0935 110.993 21.7755C111.081 22.4355 111.169 23.0845 111.257 23.7225C111.367 24.3605 111.455 24.9105 111.521 25.3725C111.543 25.6805 111.499 25.9555 111.389 26.1975C111.279 26.4175 111.169 26.5495 111.059 26.5935C110.993 26.6375 110.861 26.6705 110.663 26.6925C110.465 26.6925 110.278 26.4945 110.102 26.0985C109.816 25.4165 109.574 24.6905 109.376 23.9205C109.178 23.1285 109.013 22.3585 108.881 21.6105C108.749 20.8405 108.639 20.1255 108.551 19.4655C108.463 18.7835 108.397 18.2115 108.353 17.7495C108.177 18.0135 107.968 18.3435 107.726 18.7395C107.506 19.1355 107.275 19.5535 107.033 19.9935C106.813 20.4335 106.593 20.8735 106.373 21.3135C106.175 21.7535 105.999 22.1715 105.845 22.5675C105.779 22.7655 105.636 22.8755 105.416 22.8975C105.218 22.9195 105.031 22.8095 104.855 22.5675C104.591 22.1495 104.459 21.6985 104.459 21.2145C104.459 20.9725 104.547 20.6205 104.723 20.1585C104.921 19.6745 105.174 19.1355 105.482 18.5415C105.812 17.9475 106.164 17.3315 106.538 16.6935C106.934 16.0555 107.319 15.4615 107.693 14.9115C108.089 14.3615 108.452 13.8885 108.782 13.4925C109.134 13.0965 109.409 12.8435 109.607 12.7335C109.695 12.6675 109.871 12.6345 110.135 12.6345C110.421 12.6125 110.696 12.6895 110.96 12.8655C111.114 12.9975 111.18 13.1955 111.158 13.4595C111.158 13.7235 111.081 13.9655 110.927 14.1855C110.685 14.4935 110.388 14.8785 110.036 15.3405C109.684 15.7805 109.409 16.1765 109.211 16.5285ZM116.702 24.0525C116.614 24.5585 116.526 25.0975 116.438 25.6695C116.35 26.2415 116.295 26.7695 116.273 27.2535C116.273 27.4515 116.372 27.5505 116.57 27.5505C117.406 27.5065 118.264 27.3525 119.144 27.0885C120.024 26.8025 120.86 26.5165 121.652 26.2305C122.202 26.0325 122.565 26.0435 122.741 26.2635C122.763 26.2855 122.774 26.3625 122.774 26.4945C122.796 26.6045 122.774 26.7475 122.708 26.9235C122.664 27.0775 122.587 27.2425 122.477 27.4185C122.367 27.5945 122.202 27.7485 121.982 27.8805C121.19 28.3205 120.31 28.7165 119.342 29.0685C118.374 29.4205 117.472 29.6735 116.636 29.8275C116.35 29.8935 116.064 29.9155 115.778 29.8935C115.492 29.8495 115.239 29.7505 115.019 29.5965C114.799 29.4205 114.612 29.1895 114.458 28.9035C114.326 28.5955 114.26 28.1995 114.26 27.7155C114.282 27.0115 114.337 26.2855 114.425 25.5375C114.535 24.7675 114.667 24.1075 114.821 23.5575C114.953 23.1395 115.239 22.9745 115.679 23.0625C115.943 23.1065 116.185 23.2275 116.405 23.4255C116.647 23.6015 116.746 23.8105 116.702 24.0525ZM129.136 14.1525C129.466 14.2845 129.708 14.5045 129.862 14.8125C130.038 15.0985 130.148 15.4175 130.192 15.7695C130.236 16.0995 130.236 16.4295 130.192 16.7595C130.148 17.0895 130.082 17.3535 129.994 17.5515C129.686 18.2995 129.169 18.9485 128.443 19.4985C127.739 20.0265 126.947 20.2905 126.067 20.2905C125.561 20.2905 125.121 20.1915 124.747 19.9935C124.395 19.7735 124.109 19.5095 123.889 19.2015C123.669 18.8715 123.515 18.5085 123.427 18.1125C123.361 17.7165 123.372 17.3205 123.46 16.9245C123.636 16.1545 123.966 15.4945 124.45 14.9445C124.956 14.3725 125.462 13.8775 125.968 13.4595C126.32 13.1735 126.606 13.0525 126.826 13.0965C127.068 13.1185 127.255 13.2175 127.387 13.3935C127.585 13.6355 127.662 13.9215 127.618 14.2515C127.838 14.1855 128.08 14.1305 128.344 14.0865C128.63 14.0425 128.894 14.0645 129.136 14.1525ZM137.089 24.2835C137.089 24.5255 137.001 24.7125 136.825 24.8445C136.649 24.9545 136.462 24.9875 136.264 24.9435C136.066 24.8995 135.89 24.8115 135.736 24.6795C135.582 24.5255 135.45 24.3495 135.34 24.1515C135.252 23.9535 135.175 23.7555 135.109 23.5575C135.065 23.3375 135.043 23.1505 135.043 22.9965C134.977 21.4125 134.966 19.7955 135.01 18.1455C135.076 16.4955 135.175 14.9335 135.307 13.4595C135.351 13.1515 135.505 12.9315 135.769 12.7995C136.055 12.6455 136.319 12.6125 136.561 12.7005C136.781 12.7885 136.979 12.9315 137.155 13.1295C137.353 13.3275 137.441 13.5805 137.419 13.8885C137.243 15.5605 137.133 17.2875 137.089 19.0695C137.067 20.8515 137.067 22.5895 137.089 24.2835ZM132.436 21.4455C132.59 21.4235 132.755 21.4125 132.931 21.4125C133.129 21.3905 133.305 21.3905 133.459 21.4125C133.635 21.4345 133.767 21.4895 133.855 21.5775C133.965 21.6435 134.02 21.7425 134.02 21.8745C133.976 22.2045 133.8 22.5015 133.492 22.7655C133.184 23.0075 132.788 23.1945 132.304 23.3265C131.82 23.4585 131.259 23.6235 130.621 23.8215C130.005 23.9975 129.356 24.1845 128.674 24.3825C128.014 24.5805 127.343 24.7785 126.661 24.9765C126.001 25.1745 125.396 25.3725 124.846 25.5705C124.45 25.7245 124.043 25.7795 123.625 25.7355C123.229 25.6695 122.987 25.4825 122.899 25.1745C122.833 24.9985 122.91 24.7565 123.13 24.4485C123.35 24.1405 123.812 23.8325 124.516 23.5245C124.956 23.3485 125.561 23.1505 126.331 22.9305C127.101 22.6885 127.882 22.4685 128.674 22.2705C129.466 22.0505 130.214 21.8635 130.918 21.7095C131.622 21.5555 132.128 21.4675 132.436 21.4455ZM127.024 15.3735C126.65 15.6815 126.32 16.0665 126.034 16.5285C125.77 16.9685 125.693 17.4745 125.803 18.0465C126.287 18.0245 126.738 17.8595 127.156 17.5515C127.596 17.2215 127.937 16.8585 128.179 16.4625C128.355 16.1985 128.465 15.9235 128.509 15.6375C128.553 15.3515 128.421 15.1865 128.113 15.1425C127.783 15.1205 127.442 15.1865 127.09 15.3405C127.046 15.3625 127.024 15.3735 127.024 15.3735ZM156.19 16.6605C155.992 17.2985 155.783 17.9475 155.563 18.6075C155.365 19.2455 155.167 19.8835 154.969 20.5215C155.651 20.5435 156.234 20.7195 156.718 21.0495C157.224 21.3795 157.543 21.7645 157.675 22.2045C157.807 22.5785 157.84 22.9745 157.774 23.3925C157.73 23.7885 157.609 24.1845 157.411 24.5805C157.235 24.9765 157.004 25.3615 156.718 25.7355C156.432 26.0875 156.113 26.3955 155.761 26.6595C155.541 26.8355 155.189 27.0225 154.705 27.2205C154.243 27.3965 153.814 27.4515 153.418 27.3855C152.78 27.2755 152.351 26.9125 152.131 26.2965C151.911 25.6585 151.856 24.9875 151.966 24.2835C152.076 23.5355 152.197 22.8755 152.329 22.3035C152.483 21.7095 152.637 21.1375 152.791 20.5875C152.967 20.0375 153.154 19.4765 153.352 18.9045C153.55 18.3325 153.77 17.6725 154.012 16.9245C153.352 17.0125 152.714 17.1775 152.098 17.4195C151.482 17.6615 150.954 17.9145 150.514 18.1785C150.228 18.3545 149.909 18.3875 149.557 18.2775C149.227 18.1675 149.062 17.8925 149.062 17.4525C149.018 17.1005 149.205 16.7595 149.623 16.4295C150.041 16.0995 150.558 15.8245 151.174 15.6045C151.79 15.3625 152.428 15.1865 153.088 15.0765C153.748 14.9445 154.298 14.9005 154.738 14.9445C155.354 15.0105 155.761 15.2195 155.959 15.5715C156.179 15.9015 156.256 16.2645 156.19 16.6605ZM163.945 16.6275C164.935 16.1215 165.892 15.8465 166.816 15.8025C167.762 15.7585 168.609 15.8575 169.357 16.0995C169.555 16.1655 169.687 16.2535 169.753 16.3635C169.841 16.4735 169.885 16.5835 169.885 16.6935C169.907 16.7815 169.907 16.8695 169.885 16.9575C169.863 17.0235 169.852 17.0675 169.852 17.0895C169.61 17.4855 169.324 17.6835 168.994 17.6835C168.532 17.6835 168.125 17.6945 167.773 17.7165C167.443 17.7165 167.135 17.7385 166.849 17.7825C166.585 17.8045 166.321 17.8485 166.057 17.9145C165.815 17.9805 165.54 18.0575 165.232 18.1455C165.034 18.2115 164.869 18.2335 164.737 18.2115C164.627 18.1675 164.528 18.1235 164.44 18.0795C164.352 18.0135 164.275 17.9585 164.209 17.9145C164.165 17.8705 164.11 17.8595 164.044 17.8815C164 17.9035 163.978 18.0245 163.978 18.2445C163.978 19.2785 164.011 20.2355 164.077 21.1155C164.165 21.9955 164.242 22.8535 164.308 23.6895C164.33 23.9755 164.253 24.2725 164.077 24.5805C163.923 24.8885 163.692 25.0205 163.384 24.9765C163.164 24.9325 162.933 24.7785 162.691 24.5145C162.449 24.2505 162.306 23.9755 162.262 23.6895C161.932 21.5775 161.778 19.4435 161.8 17.2875C161.844 15.1315 161.987 13.1185 162.229 11.2485C162.251 11.0285 162.328 10.8745 162.46 10.7865C162.614 10.6765 162.768 10.6215 162.922 10.6215C163.098 10.5995 163.274 10.6215 163.45 10.6875C163.626 10.7315 163.769 10.7975 163.879 10.8855C163.967 10.9515 164.077 11.0835 164.209 11.2815C164.341 11.4575 164.385 11.6335 164.341 11.8095C164.209 12.5575 164.11 13.3605 164.044 14.2185C163.978 15.0545 163.945 15.8575 163.945 16.6275ZM156.322 12.3705C156.388 12.5465 156.443 12.7775 156.487 13.0635C156.553 13.3275 156.575 13.5805 156.553 13.8225C156.553 14.0425 156.487 14.2295 156.355 14.3835C156.223 14.5155 155.992 14.5375 155.662 14.4495C155.464 14.3835 155.321 14.2735 155.233 14.1195C155.145 13.9435 155.046 13.7675 154.936 13.5915C154.496 12.7335 153.979 11.8975 153.385 11.0835C152.791 10.2475 152.175 9.49955 151.537 8.83954C151.185 8.53154 150.965 8.22354 150.877 7.91554C150.789 7.58555 150.899 7.29955 151.207 7.05755C151.493 6.88155 151.779 6.84855 152.065 6.95855C152.373 7.04655 152.648 7.20055 152.89 7.42055C153.286 7.79455 153.671 8.20155 154.045 8.64155C154.419 9.08155 154.749 9.53255 155.035 9.99455C155.343 10.4345 155.607 10.8635 155.827 11.2815C156.047 11.6775 156.212 12.0405 156.322 12.3705ZM153.946 25.2735C154.188 25.1415 154.43 24.9875 154.672 24.8115C154.936 24.6355 155.167 24.4375 155.365 24.2175C155.563 23.9975 155.706 23.7665 155.794 23.5245C155.882 23.2605 155.882 22.9965 155.794 22.7325C155.706 22.4685 155.552 22.2705 155.332 22.1385C155.134 22.0065 154.903 21.8965 154.639 21.8085C154.485 22.3805 154.342 22.9635 154.21 23.5575C154.1 24.1295 154.012 24.7015 153.946 25.2735ZM176.399 7.98155C176.751 8.72955 176.751 9.47755 176.399 10.2255C176.047 10.9735 175.508 11.5785 174.782 12.0405C174.958 12.0845 175.156 12.1615 175.376 12.2715C175.618 12.3815 175.827 12.5245 176.003 12.7005C176.201 12.8545 176.344 13.0415 176.432 13.2615C176.52 13.4595 176.509 13.6795 176.399 13.9215C176.179 14.4055 175.981 14.8455 175.805 15.2415C175.629 15.6155 175.453 15.9785 175.277 16.3305C175.123 16.6605 174.969 16.9905 174.815 17.3205C174.661 17.6505 174.507 17.9915 174.353 18.3435C174.771 18.3435 175.178 18.2665 175.574 18.1125C175.97 17.9585 176.366 17.7935 176.762 17.6175C177.158 17.4195 177.565 17.2325 177.983 17.0565C178.401 16.8805 178.852 16.7705 179.336 16.7265C179.512 16.7045 179.699 16.7045 179.897 16.7265C180.117 16.7265 180.315 16.7485 180.491 16.7925C180.689 16.8365 180.854 16.9025 180.986 16.9905C181.118 17.0565 181.195 17.1555 181.217 17.2875C181.261 17.5735 181.195 17.8045 181.019 17.9805C180.865 18.1565 180.634 18.3105 180.326 18.4425C180.04 18.5525 179.721 18.6625 179.369 18.7725C179.017 18.8825 178.687 19.0145 178.379 19.1685C177.455 19.6085 176.553 20.0485 175.673 20.4885C174.815 20.9285 173.891 21.1705 172.901 21.2145C172.329 21.2145 171.944 21.0275 171.746 20.6535C171.57 20.2575 171.559 19.8505 171.713 19.4325C171.999 18.4425 172.34 17.5625 172.736 16.7925C173.154 16.0005 173.594 15.1205 174.056 14.1525C173.682 14.1965 173.297 14.2625 172.901 14.3505C172.505 14.4385 172.153 14.5155 171.845 14.5815C171.603 14.6255 171.394 14.6035 171.218 14.5155C171.064 14.4055 170.954 14.2735 170.888 14.1195C170.822 13.9435 170.789 13.7675 170.789 13.5915C170.811 13.4155 170.888 13.2615 171.02 13.1295C171.46 12.7555 171.933 12.3705 172.439 11.9745C172.967 11.5785 173.484 11.0835 173.99 10.4895C174.188 10.2475 174.298 10.0055 174.32 9.76355C174.364 9.52155 174.331 9.31255 174.221 9.13655C174.045 8.85055 173.748 8.70755 173.33 8.70755C173.11 8.70755 172.934 8.74055 172.802 8.80655C172.692 8.87255 172.604 8.92755 172.538 8.97155C172.406 9.08155 172.285 9.19155 172.175 9.30155C172.087 9.41155 171.911 9.46655 171.647 9.46655C171.339 9.46655 171.119 9.35655 170.987 9.13655C170.877 8.91655 170.822 8.72955 170.822 8.57555C170.822 8.33355 170.877 8.12455 170.987 7.94855C171.097 7.77255 171.218 7.61855 171.35 7.48655C171.482 7.35455 171.614 7.25555 171.746 7.18955C171.9 7.12355 172.021 7.06855 172.109 7.02455C172.461 6.89255 172.857 6.81555 173.297 6.79355C173.737 6.74955 174.155 6.76055 174.551 6.82655C174.969 6.89255 175.343 7.02455 175.673 7.22255C176.003 7.39855 176.245 7.65155 176.399 7.98155ZM181.877 22.2705C181.965 22.2705 182.108 22.3035 182.306 22.3695C182.526 22.4135 182.614 22.6005 182.57 22.9305C182.526 23.1285 182.46 23.3265 182.372 23.5245C182.306 23.7225 182.196 23.8435 182.042 23.8875C181.47 23.9975 180.744 24.1515 179.864 24.3495C179.006 24.5475 178.192 24.7785 177.422 25.0425C177.774 25.2405 178.016 25.6475 178.148 26.2635C178.302 26.8575 178.401 27.5065 178.445 28.2105C178.489 28.9145 178.5 29.6075 178.478 30.2895C178.456 30.9715 178.445 31.4885 178.445 31.8405C178.445 32.0605 178.401 32.2145 178.313 32.3025C178.225 32.3905 178.126 32.4565 178.016 32.5005C177.84 32.5445 177.631 32.5445 177.389 32.5005C177.169 32.4565 177.026 32.4015 176.96 32.3355C176.718 31.9615 176.553 31.4555 176.465 30.8175C176.377 30.1795 176.322 29.5195 176.3 28.8375C176.278 28.1555 176.278 27.5065 176.3 26.8905C176.344 26.2525 176.377 25.7465 176.399 25.3725C175.849 25.5265 175.266 25.7025 174.65 25.9005C174.056 26.0985 173.539 26.2745 173.099 26.4285C172.791 26.5385 172.45 26.5165 172.076 26.3625C171.702 26.2085 171.449 25.9225 171.317 25.5045C171.207 25.1525 171.449 24.8555 172.043 24.6135C172.703 24.3935 173.418 24.1625 174.188 23.9205C174.98 23.6565 175.794 23.4145 176.63 23.1945C177.488 22.9525 178.357 22.7545 179.237 22.6005C180.139 22.4245 181.019 22.3145 181.877 22.2705ZM188.751 7.38755C188.839 7.58555 188.85 7.79455 188.784 8.01455C188.74 8.21255 188.652 8.41055 188.52 8.60855C188.388 8.80655 188.245 8.99355 188.091 9.16955C187.937 9.34555 187.805 9.47755 187.695 9.56555C187.937 9.58755 188.223 9.65355 188.553 9.76355C188.905 9.85155 189.136 9.98355 189.246 10.1595C189.554 10.7095 189.488 11.3255 189.048 12.0075C188.696 12.5575 188.289 13.1295 187.827 13.7235C187.387 14.3175 187.046 14.9115 186.804 15.5055C187.794 15.2635 188.806 15.0215 189.84 14.7795C190.874 14.5375 191.974 14.3615 193.14 14.2515C193.316 14.2515 193.459 14.2955 193.569 14.3835C193.679 14.4495 193.745 14.5265 193.767 14.6145C193.855 14.9225 193.789 15.1865 193.569 15.4065C193.349 15.6265 193.063 15.7915 192.711 15.9015C191.699 16.1655 190.742 16.4295 189.84 16.6935C188.938 16.9575 187.893 17.2765 186.705 17.6505C186.067 17.7605 185.528 17.6945 185.088 17.4525C184.67 17.1885 184.406 16.8145 184.296 16.3305C184.23 16.0445 184.307 15.6815 184.527 15.2415C184.747 14.7795 185.011 14.3175 185.319 13.8555C185.627 13.3715 185.946 12.9205 186.276 12.5025C186.606 12.0845 186.848 11.7545 187.002 11.5125C186.87 11.5125 186.617 11.5345 186.243 11.5785C185.891 11.6005 185.638 11.6225 185.484 11.6445C185.132 11.6885 184.813 11.6225 184.527 11.4465C184.263 11.2485 184.153 10.9735 184.197 10.6215C184.219 10.4015 184.34 10.2035 184.56 10.0275C184.802 9.82955 185.055 9.64255 185.319 9.46655C185.583 9.29055 185.836 9.11455 186.078 8.93855C186.342 8.74055 186.529 8.53155 186.639 8.31155C186.793 8.00355 186.727 7.77255 186.441 7.61854C186.155 7.46455 185.858 7.36555 185.55 7.32155C185.242 7.27755 184.945 7.21155 184.659 7.12355C184.043 6.94754 183.746 6.57355 183.768 6.00155C183.768 5.82555 183.823 5.69355 183.933 5.60555C184.043 5.51755 184.164 5.46255 184.296 5.44055C184.45 5.39655 184.604 5.38555 184.758 5.40755C184.934 5.40755 185.088 5.41855 185.22 5.44055C185.968 5.55055 186.683 5.78155 187.365 6.13355C188.047 6.46355 188.509 6.88155 188.751 7.38755ZM194.13 25.4055C193.866 25.8235 193.492 26.2855 193.008 26.7915C192.524 27.2975 192.062 27.7375 191.622 28.1115C191.864 28.1115 192.139 28.1225 192.447 28.1445C192.755 28.1445 193.041 28.1775 193.305 28.2435C193.591 28.3095 193.822 28.4195 193.998 28.5735C194.196 28.7275 194.295 28.9475 194.295 29.2335C194.295 29.5195 194.152 29.8825 193.866 30.3225C193.58 30.7405 193.25 31.1585 192.876 31.5765C192.524 32.0165 192.161 32.4125 191.787 32.7645C191.435 33.1385 191.193 33.4025 191.061 33.5565C191.963 33.3805 192.876 33.1715 193.8 32.9295C194.746 32.6875 195.78 32.4015 196.902 32.0715C197.694 31.8295 198.277 31.8405 198.651 32.1045C198.871 32.2805 198.959 32.4455 198.915 32.5995C198.893 32.7755 198.794 32.9295 198.618 33.0615C198.464 33.2155 198.288 33.3475 198.09 33.4575C197.892 33.5675 197.749 33.6445 197.661 33.6885C197.067 33.9745 196.418 34.2275 195.714 34.4475C195.01 34.6895 194.306 34.8985 193.602 35.0745C192.898 35.2725 192.216 35.4265 191.556 35.5365C190.896 35.6685 190.291 35.7675 189.741 35.8335C189.433 35.8775 189.136 35.8445 188.85 35.7345C188.564 35.6465 188.3 35.4595 188.058 35.1735C187.926 35.0195 187.86 34.8325 187.86 34.6125C187.882 34.3925 187.97 34.1945 188.124 34.0185C188.718 33.3805 189.279 32.6985 189.807 31.9725C190.357 31.2685 190.874 30.5755 191.358 29.8935C191.116 29.9155 190.808 29.9485 190.434 29.9925C190.082 30.0365 189.796 30.0805 189.576 30.1245C188.63 30.2785 188.091 30.1025 187.959 29.5965C187.893 29.3325 187.915 29.0795 188.025 28.8375C188.157 28.5955 188.311 28.4085 188.487 28.2765C189.169 27.7265 189.752 27.2315 190.236 26.7915C190.72 26.3295 191.193 25.8345 191.655 25.3065C191.281 25.3285 190.819 25.4385 190.269 25.6365C189.741 25.8125 189.301 25.9665 188.949 26.0985C188.509 26.2745 188.201 26.2855 188.025 26.1315C187.849 25.9775 187.761 25.8015 187.761 25.6035C187.761 25.4055 187.805 25.1965 187.893 24.9765C188.003 24.7565 188.168 24.5805 188.388 24.4485C189.158 23.9425 189.972 23.6235 190.83 23.4915C191.688 23.3595 192.469 23.3485 193.173 23.4585C193.723 23.5465 194.086 23.7885 194.262 24.1845C194.438 24.5585 194.394 24.9655 194.13 25.4055ZM196.077 19.1685C196.187 19.3225 196.209 19.4875 196.143 19.6635C196.099 19.8175 196 19.9605 195.846 20.0925C195.714 20.2245 195.549 20.3345 195.351 20.4225C195.153 20.5105 194.977 20.5655 194.823 20.5875C194.207 20.6535 193.624 20.7195 193.074 20.7855C192.524 20.8515 191.952 20.9395 191.358 21.0495C190.764 21.1595 190.104 21.3025 189.378 21.4785C188.652 21.6545 187.805 21.8745 186.837 22.1385C186.309 22.2925 185.858 22.3035 185.484 22.1715C185.132 22.0175 184.901 21.8525 184.791 21.6765C184.703 21.5225 184.67 21.3685 184.692 21.2145C184.714 21.0605 184.758 20.9175 184.824 20.7855C184.89 20.6535 184.967 20.5435 185.055 20.4555C185.165 20.3675 185.264 20.3125 185.352 20.2905C186.694 19.8945 188.036 19.5425 189.378 19.2345C190.72 18.9265 192.04 18.7395 193.338 18.6735C193.558 18.6735 193.811 18.6845 194.097 18.7065C194.383 18.7065 194.658 18.7285 194.922 18.7725C195.186 18.8165 195.428 18.8715 195.648 18.9375C195.868 19.0035 196.011 19.0805 196.077 19.1685ZM216.287 19.8945C215.781 21.2145 215.286 22.4575 214.802 23.6235C214.318 24.7895 213.856 26.0655 213.416 27.4515C213.284 27.9355 213.075 28.2435 212.789 28.3755C212.525 28.5075 212.294 28.5515 212.096 28.5075C211.898 28.4415 211.744 28.3205 211.634 28.1445C211.524 27.9465 211.458 27.7375 211.436 27.5175C211.414 27.2755 211.414 27.0335 211.436 26.7915C211.458 26.5275 211.502 26.2745 211.568 26.0325C211.81 25.1085 212.118 24.1405 212.492 23.1285C212.866 22.0945 213.284 21.0825 213.746 20.0925C212.954 20.2905 212.063 20.5435 211.073 20.8515C210.083 21.1595 209.192 21.4455 208.4 21.7095C207.96 21.8635 207.553 21.8855 207.179 21.7755C206.827 21.6655 206.618 21.3905 206.552 20.9505C206.508 20.6205 206.64 20.3565 206.948 20.1585C207.256 19.9605 207.773 19.7295 208.499 19.4655C208.763 19.3775 209.126 19.2565 209.588 19.1025C210.072 18.9265 210.6 18.7615 211.172 18.6075C211.744 18.4315 212.327 18.2775 212.921 18.1455C213.515 17.9915 214.065 17.8815 214.571 17.8155C215.495 17.6615 216.089 17.7825 216.353 18.1785C216.639 18.5525 216.617 19.1245 216.287 19.8945ZM211.832 11.3475C211.458 11.5895 211.084 11.8975 210.71 12.2715C210.336 12.6235 210.094 13.0195 209.984 13.4595C209.896 13.8335 209.94 14.1085 210.116 14.2845C210.292 14.4385 210.556 14.4605 210.908 14.3505C211.216 14.2625 211.491 14.1415 211.733 13.9875C211.997 13.8115 212.217 13.6355 212.393 13.4595C212.613 13.2175 212.756 12.9865 212.822 12.7665C212.91 12.5465 212.954 12.3485 212.954 12.1725C212.976 11.9965 212.987 11.8425 212.987 11.7105C212.987 11.5565 213.031 11.4245 213.119 11.3145C213.317 11.1165 213.581 11.1385 213.911 11.3805C214.417 11.8205 214.67 12.3595 214.67 12.9975C214.67 13.6135 214.494 14.1415 214.142 14.5815C213.746 15.1315 213.207 15.5825 212.525 15.9345C211.865 16.2865 211.205 16.4735 210.545 16.4955C210.127 16.4955 209.753 16.4295 209.423 16.2975C209.115 16.1655 208.851 16.0005 208.631 15.8025C208.411 15.5825 208.235 15.3405 208.103 15.0765C207.971 14.7905 207.894 14.5045 207.872 14.2185C207.762 13.3385 207.938 12.5025 208.4 11.7105C208.884 10.9185 209.654 10.2695 210.71 9.76355C210.82 9.69755 210.93 9.65355 211.04 9.63155C211.15 9.60955 211.271 9.60955 211.403 9.63155C211.535 9.63155 211.667 9.67555 211.799 9.76355C212.151 10.0275 212.294 10.3245 212.228 10.6545C212.162 10.9625 212.03 11.1935 211.832 11.3475ZM219.389 11.5455C219.389 10.7755 219.664 10.4235 220.214 10.4895C220.39 10.5335 220.632 10.6435 220.94 10.8195C221.248 10.9955 221.424 11.2595 221.468 11.6115C221.556 12.7115 221.622 13.9325 221.666 15.2745C221.71 16.5945 221.732 17.9145 221.732 19.2345C221.754 20.5325 221.743 21.7755 221.699 22.9635C221.655 24.1295 221.6 25.0865 221.534 25.8345C221.512 26.0325 221.402 26.2415 221.204 26.4615C221.006 26.6595 220.786 26.7585 220.544 26.7585C220.368 26.7585 220.203 26.7035 220.049 26.5935C219.917 26.4835 219.796 26.3515 219.686 26.1975C219.576 26.0215 219.488 25.8455 219.422 25.6695C219.378 25.4935 219.356 25.3395 219.356 25.2075C219.378 24.3055 219.389 23.2605 219.389 22.0725C219.411 20.8625 219.422 19.6305 219.422 18.3765C219.422 17.1225 219.422 15.9015 219.422 14.7135C219.422 13.5255 219.411 12.4695 219.389 11.5455ZM243.382 24.8115C243.404 25.0755 243.338 25.3175 243.184 25.5375C243.052 25.7355 242.832 25.8345 242.524 25.8345C242.15 25.8345 241.875 25.6255 241.699 25.2075C241.545 24.7675 241.435 24.2835 241.369 23.7555C241.325 23.4255 241.292 22.9965 241.27 22.4685C241.27 21.9405 241.281 21.3905 241.303 20.8185C241.325 20.2465 241.358 19.7075 241.402 19.2015C241.446 18.6955 241.49 18.2885 241.534 17.9805C240.896 18.2005 240.313 18.4315 239.785 18.6735C239.257 18.8935 238.729 19.1245 238.201 19.3665C238.003 19.4765 237.761 19.5095 237.475 19.4655C237.497 20.1035 237.53 20.7195 237.574 21.3135C237.618 21.8855 237.684 22.3915 237.772 22.8315C237.816 23.2055 237.761 23.5025 237.607 23.7225C237.475 23.9425 237.266 24.0745 236.98 24.1185C236.672 24.1625 236.43 24.0085 236.254 23.6565C236.078 23.3045 235.946 22.9415 235.858 22.5675C235.77 22.1495 235.682 21.5775 235.594 20.8515C235.528 20.1255 235.473 19.3665 235.429 18.5745C235.407 17.7825 235.407 17.0235 235.429 16.2975C235.451 15.5495 235.495 14.9555 235.561 14.5155C235.649 14.0975 235.759 13.7785 235.891 13.5585C236.023 13.3165 236.232 13.1735 236.518 13.1295C236.892 13.0635 237.189 13.1625 237.409 13.4265C237.651 13.6685 237.75 14.0095 237.706 14.4495C237.618 14.8455 237.552 15.3185 237.508 15.8685C237.486 16.4185 237.464 17.0015 237.442 17.6175C237.816 17.3975 238.212 17.1885 238.63 16.9905C239.07 16.7705 239.488 16.5725 239.884 16.3965C240.28 16.2205 240.643 16.0665 240.973 15.9345C241.303 15.8025 241.567 15.7035 241.765 15.6375C241.809 15.2415 241.864 14.8565 241.93 14.4825C241.996 14.0865 242.095 13.7345 242.227 13.4265C242.359 13.1625 242.513 12.9535 242.689 12.7995C242.865 12.6455 243.052 12.5905 243.25 12.6345C243.47 12.6785 243.635 12.7995 243.745 12.9975C243.877 13.1735 243.965 13.3825 244.009 13.6245C244.053 13.8665 244.064 14.1195 244.042 14.3835C244.042 14.6255 244.031 14.8455 244.009 15.0435C243.943 15.8135 243.866 16.5725 243.778 17.3205C243.712 18.0465 243.646 18.8055 243.58 19.5975C243.514 20.3675 243.459 21.1815 243.415 22.0395C243.393 22.8975 243.382 23.8215 243.382 24.8115ZM229.489 14.5155C229.841 14.4935 230.171 14.5155 230.479 14.5815C230.809 14.6475 231.073 14.7795 231.271 14.9775C231.491 15.1535 231.634 15.3955 231.7 15.7035C231.766 16.0115 231.722 16.3855 231.568 16.8255C231.37 17.2875 231.161 17.8045 230.941 18.3765C230.721 18.9485 230.512 19.5425 230.314 20.1585C230.138 20.7525 229.984 21.3465 229.852 21.9405C229.742 22.5345 229.687 23.0845 229.687 23.5905C230.347 23.2605 230.787 22.9305 231.007 22.6005C231.227 22.2485 231.293 21.9735 231.205 21.7755C231.029 21.4015 230.886 21.0715 230.776 20.7855C230.688 20.4995 230.732 20.2575 230.908 20.0595C231.15 19.7955 231.414 19.7405 231.7 19.8945C232.008 20.0265 232.217 20.1915 232.327 20.3895C232.679 20.9395 232.866 21.4675 232.888 21.9735C232.932 22.4575 232.866 22.9085 232.69 23.3265C232.514 23.7445 232.261 24.1295 231.931 24.4815C231.601 24.8115 231.26 25.0865 230.908 25.3065C230.6 25.5045 230.27 25.6585 229.918 25.7685C229.566 25.8565 229.247 25.9005 228.961 25.9005C228.631 25.9005 228.334 25.7795 228.07 25.5375C227.806 25.2735 227.641 24.8555 227.575 24.2835C227.509 23.6455 227.52 22.9965 227.608 22.3365C227.718 21.6545 227.872 20.9835 228.07 20.3235C228.268 19.6635 228.499 19.0145 228.763 18.3765C229.027 17.7385 229.291 17.1335 229.555 16.5615C228.873 16.6715 228.312 16.8035 227.872 16.9575C227.432 17.1115 226.904 17.3095 226.288 17.5515C226.024 17.6615 225.705 17.6835 225.331 17.6175C224.979 17.5515 224.726 17.3975 224.572 17.1555C224.462 16.9795 224.407 16.8255 224.407 16.6935C224.407 16.5615 224.484 16.4075 224.638 16.2315C224.704 16.1655 224.913 16.0445 225.265 15.8685C225.617 15.6925 226.035 15.5165 226.519 15.3405C227.025 15.1425 227.542 14.9665 228.07 14.8125C228.598 14.6585 229.071 14.5595 229.489 14.5155ZM229.885 12.9645C229.643 13.1405 229.412 13.1625 229.192 13.0305C228.972 12.8985 228.774 12.7445 228.598 12.5685C228.246 12.1945 227.784 11.7655 227.212 11.2815C226.662 10.7755 226.112 10.3135 225.562 9.89555C225.408 9.78555 225.32 9.59855 225.298 9.33455C225.298 9.04855 225.386 8.81755 225.562 8.64155C225.65 8.53155 225.804 8.44355 226.024 8.37754C226.244 8.28955 226.497 8.33355 226.783 8.50955C226.981 8.64155 227.234 8.83955 227.542 9.10355C227.85 9.34555 228.158 9.63155 228.466 9.96155C228.796 10.2695 229.093 10.5995 229.357 10.9515C229.643 11.3035 229.863 11.6445 230.017 11.9745C230.127 12.1505 230.171 12.3375 230.149 12.5355C230.149 12.7115 230.061 12.8545 229.885 12.9645Z" fill="black"/>
<path d="M66.943 58.0795C66.789 58.1675 66.602 58.2005 66.382 58.1785C66.162 58.1345 65.975 57.9915 65.821 57.7495C65.469 57.2875 65.04 57.0565 64.534 57.0565C64.072 57.0565 63.654 57.1665 63.28 57.3865C62.928 57.5845 62.609 57.8595 62.323 58.2115C62.059 58.5415 61.839 58.9155 61.663 59.3335C61.487 59.7515 61.366 60.1695 61.3 60.5875C61.19 61.3575 61.322 62.0065 61.696 62.5345C62.07 63.0625 62.653 63.3265 63.445 63.3265C64.083 63.3485 64.798 63.2275 65.59 62.9635C66.404 62.6775 67.163 62.3145 67.867 61.8745C68.175 61.7425 68.461 61.6655 68.725 61.6435C68.989 61.6215 69.209 61.7535 69.385 62.0395C69.605 62.3915 69.55 62.7545 69.22 63.1285C68.89 63.4805 68.45 63.7995 67.9 64.0855C67.35 64.3935 66.767 64.6685 66.151 64.9105C65.557 65.1305 64.952 65.2955 64.336 65.4055C63.72 65.4935 63.104 65.4935 62.488 65.4055C61.894 65.3175 61.333 65.1085 60.805 64.7785C59.969 64.2065 59.463 63.3925 59.287 62.3365C59.111 61.2805 59.188 60.1915 59.518 59.0695C59.65 58.6515 59.837 58.2335 60.079 57.8155C60.321 57.3755 60.607 56.9795 60.937 56.6275C61.289 56.2755 61.674 55.9785 62.092 55.7365C62.51 55.4725 62.972 55.2965 63.478 55.2085C64.292 55.0765 65.073 55.1645 65.821 55.4725C66.569 55.7585 67.064 56.2975 67.306 57.0895C67.35 57.2655 67.35 57.4525 67.306 57.6505C67.262 57.8265 67.141 57.9695 66.943 58.0795ZM79.5591 54.3505C79.6471 54.9665 79.7131 55.6265 79.7571 56.3305C79.8231 57.0125 79.8671 57.7055 79.8891 58.4095C79.9331 59.1135 79.9551 59.7955 79.9551 60.4555C79.9551 61.1155 79.9441 61.7095 79.9221 62.2375C80.6261 62.7215 81.0441 63.1505 81.1761 63.5245C81.3301 63.8985 81.3521 64.2285 81.2421 64.5145C81.1101 64.9105 80.8681 65.1195 80.5161 65.1415C80.1861 65.1415 79.8011 65.0205 79.3611 64.7785C79.0531 64.9985 78.7011 65.2405 78.3051 65.5045C77.9091 65.7465 77.4911 65.9885 77.0511 66.2305C76.6111 66.4505 76.1711 66.6485 75.7311 66.8245C75.2911 67.0005 74.8841 67.1215 74.5101 67.1875C73.8061 67.2975 73.1681 67.1655 72.5961 66.7915C72.0461 66.4175 71.6721 65.8565 71.4741 65.1085C71.3421 64.6025 71.3091 64.0855 71.3751 63.5575C71.4411 63.0075 71.6061 62.4905 71.8701 62.0065C72.1341 61.5005 72.4861 61.0495 72.9261 60.6535C73.3881 60.2575 73.9271 59.9495 74.5431 59.7295C74.6971 59.6635 74.9061 59.6085 75.1701 59.5645C75.4561 59.5205 75.7421 59.5095 76.0281 59.5315C76.3361 59.5315 76.6441 59.5865 76.9521 59.6965C77.2601 59.8065 77.5461 59.9935 77.8101 60.2575C77.8101 59.8835 77.7991 59.4765 77.7771 59.0365C77.7771 58.5745 77.7661 58.1125 77.7441 57.6505C77.7221 57.1885 77.6891 56.7595 77.6451 56.3635C77.6231 55.9455 77.5901 55.5935 77.5461 55.3075C77.5021 54.9775 77.3701 54.7795 77.1501 54.7135C76.9521 54.6255 76.6991 54.6365 76.3911 54.7465C75.8631 54.9225 75.2471 55.2635 74.5431 55.7695C73.8391 56.2755 73.1681 56.8145 72.5301 57.3865C72.3321 57.5845 72.1011 57.6725 71.8371 57.6505C71.5951 57.6285 71.3861 57.5295 71.2101 57.3535C71.0341 57.1775 70.9351 56.9795 70.9131 56.7595C70.8911 56.5175 70.9791 56.2645 71.1771 56.0005C71.5511 55.6045 71.9691 55.1975 72.4311 54.7795C72.8931 54.3615 73.3771 53.9875 73.8831 53.6575C74.3891 53.3055 74.9061 53.0195 75.4341 52.7995C75.9621 52.5795 76.4901 52.4585 77.0181 52.4365C77.7881 52.4145 78.3821 52.5905 78.8001 52.9645C79.2181 53.3165 79.4711 53.7785 79.5591 54.3505ZM75.7311 61.4455C75.4451 61.5115 75.1371 61.6545 74.8071 61.8745C74.4991 62.0725 74.2131 62.3255 73.9491 62.6335C73.7071 62.9195 73.5201 63.2495 73.3881 63.6235C73.2781 63.9755 73.2781 64.3275 73.3881 64.6795C73.4321 64.8115 73.5201 64.9105 73.6521 64.9765C73.8061 65.0425 73.9711 65.0535 74.1471 65.0095C74.6751 64.8995 75.2691 64.6905 75.9291 64.3825C76.6111 64.0525 77.1501 63.7005 77.5461 63.3265C77.5461 63.1945 77.4801 63.0295 77.3481 62.8315C77.2161 62.6115 77.0621 62.4025 76.8861 62.2045C76.7101 61.9845 76.5121 61.7975 76.2921 61.6435C76.0941 61.4895 75.9071 61.4235 75.7311 61.4455ZM93.0354 55.1755C92.6394 55.3955 92.2214 55.6265 91.7814 55.8685C91.3634 56.1105 90.9344 56.3965 90.4944 56.7265C90.0764 57.0345 89.6694 57.4085 89.2734 57.8485C88.8994 58.2665 88.5584 58.7725 88.2504 59.3665C87.8104 60.2025 87.5134 61.0605 87.3594 61.9405C87.2054 62.7985 87.1064 63.6455 87.0624 64.4815C87.0624 64.8775 86.9634 65.2845 86.7654 65.7025C86.5894 66.0985 86.3364 66.2965 86.0064 66.2965C85.5884 66.2965 85.2474 66.0875 84.9834 65.6695C84.7414 65.2295 84.5764 64.8115 84.4884 64.4155C84.1144 62.8535 83.8064 61.3135 83.5644 59.7955C83.3224 58.2555 83.1134 56.7265 82.9374 55.2085C82.9374 54.9005 83.0254 54.7025 83.2014 54.6145C83.3994 54.5265 83.6194 54.4935 83.8614 54.5155C84.1254 54.5375 84.3784 54.6035 84.6204 54.7135C84.8624 54.8235 85.0054 54.9995 85.0494 55.2415C85.1374 56.0555 85.2474 56.9135 85.3794 57.8155C85.5114 58.6955 85.6434 59.4545 85.7754 60.0925C85.8634 59.3445 86.1054 58.6185 86.5014 57.9145C86.8974 57.2105 87.3814 56.5725 87.9534 56.0005C88.5474 55.4285 89.2074 54.9445 89.9334 54.5485C90.6814 54.1525 91.4404 53.8885 92.2104 53.7565C92.5404 53.7125 92.8154 53.7125 93.0354 53.7565C93.2554 53.8005 93.4094 53.8775 93.4974 53.9875C93.5854 54.0975 93.5964 54.2735 93.5304 54.5155C93.4864 54.7575 93.3214 54.9775 93.0354 55.1755ZM100.638 70.1575C100.616 70.3995 100.506 70.6195 100.308 70.8175C100.11 71.0375 99.8898 71.1365 99.6478 71.1145C99.2738 71.0925 98.9878 70.9495 98.7898 70.6855C98.5918 70.4215 98.4928 70.2015 98.4928 70.0255C98.4928 69.1895 98.4708 68.3205 98.4268 67.4185C98.3828 66.4945 98.3278 65.5485 98.2618 64.5805C97.9758 64.6245 97.7118 64.6025 97.4698 64.5145C97.2498 64.4045 97.0958 64.2395 97.0078 64.0195C96.8538 63.6455 96.8758 63.3155 97.0738 63.0295C97.2718 62.7435 97.5908 62.4685 98.0308 62.2045C97.9208 61.3905 97.8108 60.5875 97.7008 59.7955C97.6128 59.0035 97.5138 58.2335 97.4038 57.4855C97.3818 57.3535 97.3928 57.2325 97.4368 57.1225C97.4808 57.0125 97.5358 56.9135 97.6018 56.8255C97.6678 56.7155 97.7888 56.6165 97.9648 56.5285C98.2508 56.4185 98.5698 56.5065 98.9218 56.7925C99.2958 57.0785 99.5488 57.4415 99.6808 57.8815C99.7468 58.2995 99.8128 58.7835 99.8788 59.3335C99.9668 59.8615 100.044 60.4445 100.11 61.0825C100.572 60.7965 101.001 60.4885 101.397 60.1585C101.815 59.8285 102.167 59.4765 102.453 59.1025C102.761 58.7285 102.992 58.3435 103.146 57.9475C103.3 57.5295 103.344 57.1005 103.278 56.6605C103.234 56.2865 103.069 55.9565 102.783 55.6705C102.497 55.3625 102.046 55.1975 101.43 55.1755C100.88 55.1535 100.33 55.1975 99.7798 55.3075C99.2518 55.4175 98.7238 55.5605 98.1958 55.7365C97.6898 55.9125 97.1838 56.1215 96.6778 56.3635C96.1938 56.6055 95.7208 56.8475 95.2588 57.0895C94.9508 57.2655 94.6428 57.3425 94.3348 57.3205C94.0488 57.2765 93.8618 57.1665 93.7738 56.9905C93.5758 56.5505 93.5868 56.1545 93.8068 55.8025C94.0488 55.4505 94.4118 55.1205 94.8958 54.8125C95.3138 54.5705 95.8088 54.3285 96.3808 54.0865C96.9748 53.8225 97.5908 53.6025 98.2288 53.4265C98.8888 53.2285 99.5488 53.0965 100.209 53.0305C100.891 52.9425 101.54 52.9535 102.156 53.0635C102.772 53.1515 103.322 53.3605 103.806 53.6905C104.312 53.9985 104.719 54.4605 105.027 55.0765C105.401 56.0885 105.5 57.0235 105.324 57.8815C105.17 58.7175 104.84 59.4875 104.334 60.1915C103.85 60.8735 103.245 61.5005 102.519 62.0725C101.815 62.6225 101.1 63.1175 100.374 63.5575C100.484 64.7455 100.561 65.9225 100.605 67.0885C100.649 68.2545 100.66 69.2775 100.638 70.1575ZM115.614 58.8055C114.756 59.3115 113.832 59.7075 112.842 59.9935C111.852 60.2575 110.785 60.3895 109.641 60.3895C109.685 61.1595 109.905 61.7755 110.301 62.2375C110.697 62.6775 111.192 62.9415 111.786 63.0295C112.138 63.0735 112.49 63.0625 112.842 62.9965C113.216 62.9305 113.557 62.8315 113.865 62.6995C114.195 62.5455 114.492 62.3805 114.756 62.2045C115.02 62.0285 115.251 61.8525 115.449 61.6765C115.647 61.5005 115.856 61.3905 116.076 61.3465C116.296 61.2805 116.461 61.2695 116.571 61.3135C116.879 61.4235 116.989 61.7535 116.901 62.3035C116.549 63.0075 116.043 63.6125 115.383 64.1185C114.723 64.6025 113.986 64.9105 113.172 65.0425C112.468 65.1745 111.742 65.1415 110.994 64.9435C110.246 64.7455 109.575 64.3605 108.981 63.7885C108.475 63.2825 108.09 62.6885 107.826 62.0065C107.562 61.3245 107.397 60.6205 107.331 59.8945C107.265 59.2125 107.32 58.5635 107.496 57.9475C107.694 57.3315 107.991 56.7925 108.387 56.3305C108.783 55.8465 109.278 55.4505 109.872 55.1425C110.466 54.8345 111.159 54.6585 111.951 54.6145C112.897 54.5485 113.755 54.7245 114.525 55.1425C115.295 55.5605 115.834 56.1435 116.142 56.8915C116.318 57.3095 116.362 57.6725 116.274 57.9805C116.208 58.2885 115.988 58.5635 115.614 58.8055ZM111.819 56.5615C111.599 56.6055 111.357 56.6825 111.093 56.7925C110.851 56.9025 110.62 57.0455 110.4 57.2215C110.202 57.3755 110.015 57.5625 109.839 57.7825C109.685 57.9805 109.597 58.2115 109.575 58.4755C109.949 58.4755 110.356 58.4425 110.796 58.3765C111.258 58.3105 111.698 58.2335 112.116 58.1455C112.556 58.0355 112.952 57.9145 113.304 57.7825C113.678 57.6505 113.986 57.5075 114.228 57.3535C114.052 56.9355 113.722 56.6825 113.238 56.5945C112.776 56.4845 112.303 56.4735 111.819 56.5615ZM134.024 49.8295C133.958 49.4335 133.98 49.0705 134.09 48.7405C134.222 48.4105 134.475 48.2235 134.849 48.1795C135.179 48.1355 135.465 48.2235 135.707 48.4435C135.971 48.6635 136.136 48.9495 136.202 49.3015C136.642 51.8315 137.049 54.3505 137.423 56.8585C137.819 59.3445 138.171 61.7865 138.479 64.1845C138.567 64.8225 138.523 65.2625 138.347 65.5045C138.171 65.7245 137.962 65.8895 137.72 65.9995C137.456 66.1095 137.203 66.1095 136.961 65.9995C136.741 65.8895 136.598 65.6915 136.532 65.4055L136.499 65.2075L136.367 65.2405C135.641 65.5045 134.882 65.6585 134.09 65.7025C133.298 65.7245 132.539 65.6255 131.813 65.4055C131.087 65.1855 130.438 64.8335 129.866 64.3495C129.316 63.8435 128.92 63.2055 128.678 62.4355C128.15 60.7415 128.48 59.2015 129.668 57.8155C130.174 57.2435 130.801 56.7265 131.549 56.2645C132.297 55.8025 133.199 55.4395 134.255 55.1755L134.849 55.0435L134.024 49.8295ZM130.691 61.6105C130.823 62.1385 131.065 62.5455 131.417 62.8315C131.769 63.1175 132.187 63.3155 132.671 63.4255C133.155 63.5135 133.672 63.5245 134.222 63.4585C134.772 63.3925 135.311 63.2715 135.839 63.0955L136.136 62.9965L135.212 57.1885L134.552 57.3535C134.09 57.4855 133.595 57.6945 133.067 57.9805C132.561 58.2445 132.11 58.5635 131.714 58.9375C131.318 59.3115 131.01 59.7295 130.79 60.1915C130.592 60.6535 130.559 61.1265 130.691 61.6105ZM145.786 53.0965C145.742 53.3165 145.588 53.4375 145.324 53.4595C145.06 53.4815 144.84 53.4925 144.664 53.4925C144.114 53.5145 143.542 53.5695 142.948 53.6575C142.376 53.7455 141.771 53.8775 141.133 54.0535C140.869 54.1415 140.583 54.1085 140.275 53.9545C139.967 53.8005 139.78 53.4925 139.714 53.0305C139.714 52.8545 139.78 52.7115 139.912 52.6015C140.044 52.4915 140.198 52.3925 140.374 52.3045C140.66 52.1725 141.001 52.0625 141.397 51.9745C141.793 51.8645 142.189 51.7875 142.585 51.7435C143.003 51.6995 143.399 51.6885 143.773 51.7105C144.147 51.7105 144.455 51.7435 144.697 51.8095C145.049 51.9195 145.324 52.0845 145.522 52.3045C145.742 52.5245 145.83 52.7885 145.786 53.0965ZM145.027 64.0855C145.181 64.4375 145.258 64.8225 145.258 65.2405C145.28 65.6365 145.17 65.9115 144.928 66.0655C144.62 66.2635 144.29 66.2525 143.938 66.0325C143.586 65.8125 143.322 65.5155 143.146 65.1415C142.904 64.6795 142.717 64.1185 142.585 63.4585C142.453 62.7765 142.354 62.1055 142.288 61.4455C142.222 60.7855 142.178 60.1695 142.156 59.5975C142.156 59.0255 142.156 58.5965 142.156 58.3105C142.178 58.0025 142.266 57.7165 142.42 57.4525C142.574 57.1885 142.772 57.0345 143.014 56.9905C143.41 57.0125 143.729 57.1995 143.971 57.5515C144.213 57.8815 144.323 58.2995 144.301 58.8055C144.301 59.2015 144.312 59.6415 144.334 60.1255C144.356 60.6095 144.4 61.0935 144.466 61.5775C144.532 62.0615 144.609 62.5345 144.697 62.9965C144.785 63.4365 144.895 63.7995 145.027 64.0855ZM156.22 58.8055C155.362 59.3115 154.438 59.7075 153.448 59.9935C152.458 60.2575 151.391 60.3895 150.247 60.3895C150.291 61.1595 150.511 61.7755 150.907 62.2375C151.303 62.6775 151.798 62.9415 152.392 63.0295C152.744 63.0735 153.096 63.0625 153.448 62.9965C153.822 62.9305 154.163 62.8315 154.471 62.6995C154.801 62.5455 155.098 62.3805 155.362 62.2045C155.626 62.0285 155.857 61.8525 156.055 61.6765C156.253 61.5005 156.462 61.3905 156.682 61.3465C156.902 61.2805 157.067 61.2695 157.177 61.3135C157.485 61.4235 157.595 61.7535 157.507 62.3035C157.155 63.0075 156.649 63.6125 155.989 64.1185C155.329 64.6025 154.592 64.9105 153.778 65.0425C153.074 65.1745 152.348 65.1415 151.6 64.9435C150.852 64.7455 150.181 64.3605 149.587 63.7885C149.081 63.2825 148.696 62.6885 148.432 62.0065C148.168 61.3245 148.003 60.6205 147.937 59.8945C147.871 59.2125 147.926 58.5635 148.102 57.9475C148.3 57.3315 148.597 56.7925 148.993 56.3305C149.389 55.8465 149.884 55.4505 150.478 55.1425C151.072 54.8345 151.765 54.6585 152.557 54.6145C153.503 54.5485 154.361 54.7245 155.131 55.1425C155.901 55.5605 156.44 56.1435 156.748 56.8915C156.924 57.3095 156.968 57.6725 156.88 57.9805C156.814 58.2885 156.594 58.5635 156.22 58.8055ZM152.425 56.5615C152.205 56.6055 151.963 56.6825 151.699 56.7925C151.457 56.9025 151.226 57.0455 151.006 57.2215C150.808 57.3755 150.621 57.5625 150.445 57.7825C150.291 57.9805 150.203 58.2115 150.181 58.4755C150.555 58.4755 150.962 58.4425 151.402 58.3765C151.864 58.3105 152.304 58.2335 152.722 58.1455C153.162 58.0355 153.558 57.9145 153.91 57.7825C154.284 57.6505 154.592 57.5075 154.834 57.3535C154.658 56.9355 154.328 56.6825 153.844 56.5945C153.382 56.4845 152.909 56.4735 152.425 56.5615ZM161.783 55.9015C161.805 56.2535 161.838 56.6935 161.882 57.2215C161.948 57.7275 162.014 58.2665 162.08 58.8385C162.146 59.3885 162.212 59.9385 162.278 60.4885C162.366 61.0385 162.443 61.5445 162.509 62.0065C162.751 61.5225 163.048 60.9285 163.4 60.2245C163.752 59.5205 164.115 58.8495 164.489 58.2115C164.885 57.5515 165.281 57.0015 165.677 56.5615C166.095 56.0995 166.469 55.8685 166.799 55.8685C167.151 55.8685 167.47 56.0445 167.756 56.3965C168.064 56.7265 168.328 57.1335 168.548 57.6175C168.768 58.1015 168.955 58.6185 169.109 59.1685C169.285 59.7185 169.428 60.2025 169.538 60.6205C169.626 60.3345 169.736 60.0155 169.868 59.6635C170.022 59.2895 170.176 58.9155 170.33 58.5415C170.506 58.1455 170.693 57.7605 170.891 57.3865C171.111 57.0125 171.342 56.6825 171.584 56.3965C171.87 56.0885 172.178 55.8685 172.508 55.7365C172.838 55.5825 173.08 55.5055 173.234 55.5055C173.432 55.5055 173.663 55.5715 173.927 55.7035C174.213 55.8135 174.499 55.9675 174.785 56.1655C175.071 56.3635 175.335 56.6055 175.577 56.8915C175.841 57.1555 176.05 57.4305 176.204 57.7165C176.512 58.3105 176.754 58.9595 176.93 59.6635C177.128 60.3675 177.271 61.0385 177.359 61.6765C177.447 62.3145 177.502 62.8865 177.524 63.3925C177.568 63.8765 177.601 64.2175 177.623 64.4155C177.623 64.7015 177.59 64.9215 177.524 65.0755C177.458 65.2075 177.337 65.3175 177.161 65.4055C176.919 65.5155 176.71 65.5595 176.534 65.5375C176.358 65.4935 176.215 65.4165 176.105 65.3065C175.995 65.1965 175.907 65.0755 175.841 64.9435C175.775 64.7895 175.731 64.6575 175.709 64.5475C175.643 64.0415 175.566 63.5245 175.478 62.9965C175.412 62.4685 175.335 61.9625 175.247 61.4785C175.159 60.9725 175.049 60.5105 174.917 60.0925C174.807 59.6525 174.686 59.2675 174.554 58.9375C174.51 58.8495 174.433 58.7395 174.323 58.6075C174.235 58.4535 174.125 58.3105 173.993 58.1785C173.883 58.0465 173.773 57.9365 173.663 57.8485C173.553 57.7605 173.476 57.7055 173.432 57.6835C173.212 57.6835 172.981 57.8925 172.739 58.3105C172.497 58.7065 172.266 59.1905 172.046 59.7625C171.826 60.3345 171.617 60.9395 171.419 61.5775C171.243 62.1935 171.111 62.7215 171.023 63.1615C171.023 63.7335 170.913 64.1625 170.693 64.4485C170.473 64.7125 170.242 64.8445 170 64.8445C169.758 64.8445 169.494 64.7565 169.208 64.5805C168.944 64.3825 168.768 64.1625 168.68 63.9205C168.548 63.5685 168.405 63.1725 168.251 62.7325C168.097 62.2925 167.932 61.8415 167.756 61.3795C167.602 60.9175 167.437 60.4665 167.261 60.0265C167.107 59.5865 166.953 59.1905 166.799 58.8385C166.491 59.2565 166.183 59.7185 165.875 60.2245C165.589 60.7305 165.303 61.2475 165.017 61.7755C164.753 62.3035 164.489 62.8315 164.225 63.3595C163.983 63.8655 163.752 64.3165 163.532 64.7125C163.378 64.9545 163.213 65.1745 163.037 65.3725C162.861 65.5485 162.652 65.6365 162.41 65.6365C162.234 65.6365 162.047 65.5595 161.849 65.4055C161.651 65.2295 161.464 65.0205 161.288 64.7785C161.112 64.5365 160.947 64.2615 160.793 63.9535C160.661 63.6455 160.562 63.3375 160.496 63.0295C160.32 62.0835 160.166 61.0495 160.034 59.9275C159.924 58.7835 159.814 57.6725 159.704 56.5945C159.682 56.2205 159.726 55.8795 159.836 55.5715C159.968 55.2415 160.21 55.0215 160.562 54.9115C160.936 54.8455 161.222 54.9005 161.42 55.0765C161.618 55.2525 161.739 55.5275 161.783 55.9015ZM185.513 49.2685C185.315 50.2365 185.106 51.1935 184.886 52.1395C184.688 53.0855 184.501 54.0315 184.325 54.9775C184.149 55.9235 184.017 56.8695 183.929 57.8155C183.841 58.7615 183.83 59.7075 183.896 60.6535C183.94 60.8955 183.896 61.1265 183.764 61.3465C183.654 61.5665 183.522 61.7095 183.368 61.7755C182.884 61.9515 182.532 61.8305 182.312 61.4125C182.048 60.2905 181.905 59.1795 181.883 58.0795C181.883 56.9795 181.96 55.8905 182.114 54.8125C182.29 53.7345 182.51 52.6675 182.774 51.6115C183.06 50.5335 183.346 49.4665 183.632 48.4105C183.742 47.9705 183.918 47.7285 184.16 47.6845C184.402 47.6405 184.633 47.6625 184.853 47.7505C185.183 47.8605 185.392 48.0805 185.48 48.4105C185.568 48.7405 185.579 49.0265 185.513 49.2685ZM184.193 67.0225C184.193 67.2645 184.16 67.5945 184.094 68.0125C184.05 68.4085 183.962 68.7825 183.83 69.1345C183.72 69.4865 183.555 69.7725 183.335 69.9925C183.137 70.2125 182.884 70.2565 182.576 70.1245C182.4 70.0145 182.224 69.8055 182.048 69.4975C181.872 69.1895 181.795 68.9035 181.817 68.6395C181.861 68.1115 181.971 67.5945 182.147 67.0885C182.323 66.5825 182.554 66.2745 182.84 66.1645C182.972 66.1205 183.115 66.1205 183.269 66.1645C183.445 66.2085 183.599 66.2855 183.731 66.3955C183.863 66.4835 183.973 66.5935 184.061 66.7255C184.149 66.8355 184.193 66.9345 184.193 67.0225Z" fill="black"/>
</svg>
