<svg width="80" height="72" viewBox="0 0 80 72" fill="none" xmlns="http://www.w3.org/2000/svg">
<g filter="url(#filter0_d_63_6184)">
<ellipse cx="43.845" cy="26.0918" rx="30.3259" ry="23.8443" fill="white"/>
</g>
<g filter="url(#filter1_d_63_6184)">
<ellipse cx="13.5192" cy="56.5676" rx="8.43429" ry="6.63159" fill="white"/>
</g>
<path d="M43.0354 14.154C43.1271 13.5614 43.7161 13.1822 44.2935 13.3441L49.9432 14.9276C50.5108 15.0867 50.8184 15.6998 50.6064 16.2499L45.0373 30.7076C44.8507 31.192 44.3245 31.453 43.8259 31.3086L41.3718 30.5976C40.8889 30.4577 40.585 29.981 40.6619 29.4841L43.0354 14.154Z" fill="#00A3FF"/>
<rect width="4.35194" height="4.38272" rx="1" transform="matrix(0.960501 0.278276 0.278276 -0.960501 38.312 38.0005)" fill="#00A3FF"/>
<defs>
<filter id="filter0_d_63_6184" x="8.51904" y="0.247559" width="70.6519" height="57.6885" filterUnits="userSpaceOnUse" color-interpolation-filters="sRGB">
<feFlood flood-opacity="0" result="BackgroundImageFix"/>
<feColorMatrix in="SourceAlpha" type="matrix" values="0 0 0 0 0 0 0 0 0 0 0 0 0 0 0 0 0 0 127 0" result="hardAlpha"/>
<feOffset dy="3"/>
<feGaussianBlur stdDeviation="2.5"/>
<feComposite in2="hardAlpha" operator="out"/>
<feColorMatrix type="matrix" values="0 0 0 0 0 0 0 0 0 0 0 0 0 0 0 0 0 0 0.2 0"/>
<feBlend mode="normal" in2="BackgroundImageFix" result="effect1_dropShadow_63_6184"/>
<feBlend mode="normal" in="SourceGraphic" in2="effect1_dropShadow_63_6184" result="shape"/>
</filter>
<filter id="filter1_d_63_6184" x="0.0849609" y="47.936" width="26.8687" height="23.2632" filterUnits="userSpaceOnUse" color-interpolation-filters="sRGB">
<feFlood flood-opacity="0" result="BackgroundImageFix"/>
<feColorMatrix in="SourceAlpha" type="matrix" values="0 0 0 0 0 0 0 0 0 0 0 0 0 0 0 0 0 0 127 0" result="hardAlpha"/>
<feOffset dy="3"/>
<feGaussianBlur stdDeviation="2.5"/>
<feComposite in2="hardAlpha" operator="out"/>
<feColorMatrix type="matrix" values="0 0 0 0 0 0 0 0 0 0 0 0 0 0 0 0 0 0 0.2 0"/>
<feBlend mode="normal" in2="BackgroundImageFix" result="effect1_dropShadow_63_6184"/>
<feBlend mode="normal" in="SourceGraphic" in2="effect1_dropShadow_63_6184" result="shape"/>
</filter>
</defs>
</svg>
