<svg width="128" height="203" viewBox="0 0 128 203" fill="none" xmlns="http://www.w3.org/2000/svg">
<mask id="mask0_63_5436" style="mask-type:alpha" maskUnits="userSpaceOnUse" x="50" y="139" width="29" height="27">
<path d="M51.7435 139.624H76.253L78.3843 165.732H50.145L51.7435 139.624Z" fill="#FFDFE7"/>
</mask>
<g mask="url(#mask0_63_5436)">
<circle cx="78.3845" cy="100.728" r="53.8144" fill="url(#paint0_linear_63_5436)"/>
</g>
<path fill-rule="evenodd" clip-rule="evenodd" d="M121.531 202.119H5.43115C8.21419 178.847 27.4522 149.487 63.4673 149.487C99.6049 149.487 118.851 177.991 121.531 202.119Z" fill="url(#paint1_linear_63_5436)"/>
<circle cx="64.1345" cy="95.8845" r="45.7395" fill="#FFEAE5"/>
<circle cx="56.0081" cy="95.4953" r="2.2154" transform="rotate(-4.80879 56.0081 95.4953)" fill="#835A44"/>
<circle cx="71.9924" cy="95.4953" r="2.2154" transform="rotate(-4.80879 71.9924 95.4953)" fill="#835A44"/>
<circle cx="64.1987" cy="100.86" r="3.87847" transform="rotate(-4.80879 64.1987 100.86)" fill="url(#paint2_linear_63_5436)"/>
<path fill-rule="evenodd" clip-rule="evenodd" d="M105.424 115.946C108.147 109.508 109.653 102.43 109.653 94.9994C109.653 90.8024 109.173 86.7176 108.264 82.7971C108.722 82.7623 109.186 82.7446 109.653 82.7446C119.658 82.7446 127.769 90.8553 127.769 100.86C127.769 110.865 119.658 118.976 109.653 118.976C107.829 118.976 106.067 118.706 104.407 118.205" fill="url(#paint3_linear_63_5436)"/>
<path fill-rule="evenodd" clip-rule="evenodd" d="M19.7364 82.7971C19.2778 82.7623 18.8145 82.7446 18.347 82.7446C8.34195 82.7446 0.231252 90.8553 0.231252 100.86C0.231252 110.865 8.34195 118.976 18.347 118.976C20.1714 118.976 21.9328 118.706 23.5935 118.205C20.2304 111.179 18.347 103.309 18.347 94.9994C18.347 90.8199 18.8235 86.7517 19.725 82.8461C19.7288 82.8298 19.7326 82.8134 19.7364 82.7971Z" fill="url(#paint4_linear_63_5436)"/>
<path d="M57.6045 104.13C58.4925 105.551 60.4347 107.86 64.271 107.86C68.1073 107.86 69.5992 105.551 70.6648 104.13" stroke="#835A44" stroke-width="0.392454" stroke-linecap="round"/>
<path d="M82.9967 78.3546C75.4439 74.5769 66.7897 66.9843 66.0029 60.0584C61.0936 68.3694 70.7234 76.1509 75.916 83.0768H46.4128H21.4052C18.9224 83.0768 16.8184 81.0636 16.8834 78.5817C16.9763 75.0304 17.6061 70.7202 20.6861 64.3084C26.6992 51.7903 43.8166 38.6885 62.9402 38.6885C82.0638 38.6885 95.7533 48.4848 103.064 58.9938C109.904 68.8242 110.533 76.6231 109.904 83.0768C105.655 83.3916 93.9105 83.8134 82.9967 78.3546Z" fill="url(#paint5_linear_63_5436)"/>
<path d="M17.0125 92.491C16.056 86.7521 16.614 78.1437 17.0125 75.7524L24.1864 78.1437C24.5849 78.1437 27.0558 78.6219 24.1864 80.5349C21.3169 82.4479 19.0054 94.8822 19.4039 100.86C19.0053 100.462 17.969 98.2299 17.0125 92.491Z" fill="#4C362A"/>
<path d="M111.111 92.4913C112.067 86.7523 110.141 76.9483 109.742 74.5571L103.937 78.144C103.538 78.144 101.067 78.6222 103.937 80.5352C106.806 82.4482 109.118 94.8825 108.719 100.861C109.118 100.462 110.154 98.2302 111.111 92.4913Z" fill="#786357"/>
<rect x="109.565" width="51.0378" height="5.52148" rx="2.76074" transform="rotate(90 109.565 0)" fill="#D9D9D9"/>
<rect width="15.9155" height="11.1377" rx="5.56886" transform="matrix(4.37114e-08 -1 -1 -4.37114e-08 112.373 62.9492)" fill="#FFE03D"/>
<path fill-rule="evenodd" clip-rule="evenodd" d="M11.5203 0C8.15737 0 5.43115 2.72622 5.43115 6.08918C5.43115 9.45213 8.15737 12.1784 11.5203 12.1784H31.5223V46.6786C31.5223 49.0861 33.4739 51.0377 35.8814 51.0377H92.894C95.3015 51.0377 97.2532 49.086 97.2532 46.6786V12.1784H115.442C118.805 12.1784 121.531 9.45213 121.531 6.08918C121.531 2.72622 118.805 0 115.442 0H11.5203Z" fill="black"/>
<defs>
<linearGradient id="paint0_linear_63_5436" x1="35.2264" y1="123.107" x2="73.0563" y2="154.543" gradientUnits="userSpaceOnUse">
<stop stop-color="#FFF0ED"/>
<stop offset="1" stop-color="#FFD1C8"/>
</linearGradient>
<linearGradient id="paint1_linear_63_5436" x1="47.4802" y1="154.01" x2="93.132" y2="204.075" gradientUnits="userSpaceOnUse">
<stop stop-color="#00A3FF"/>
<stop offset="1" stop-color="#C9E2FF"/>
</linearGradient>
<linearGradient id="paint2_linear_63_5436" x1="64.1987" y1="96.982" x2="64.1987" y2="104.739" gradientUnits="userSpaceOnUse">
<stop stop-color="#FFB7A9"/>
<stop offset="1" stop-color="#FFE0D9"/>
</linearGradient>
<linearGradient id="paint3_linear_63_5436" x1="116.088" y1="82.7446" x2="116.088" y2="118.976" gradientUnits="userSpaceOnUse">
<stop stop-color="#FFD4CB"/>
<stop offset="1" stop-color="#FFF0ED"/>
</linearGradient>
<linearGradient id="paint4_linear_63_5436" x1="11.9125" y1="82.7446" x2="11.9125" y2="118.976" gradientUnits="userSpaceOnUse">
<stop stop-color="#FFD4CB"/>
<stop offset="1" stop-color="#FFF0ED"/>
</linearGradient>
<linearGradient id="paint5_linear_63_5436" x1="42.4004" y1="46.7162" x2="109.925" y2="108.553" gradientUnits="userSpaceOnUse">
<stop stop-color="#4C362A"/>
<stop offset="1" stop-color="#8B766A"/>
</linearGradient>
</defs>
</svg>
