<svg width="168" height="243" viewBox="0 0 168 243" fill="none" xmlns="http://www.w3.org/2000/svg">
<g filter="url(#filter0_d_63_5436)">
<mask id="mask0_63_5436" style="mask-type:alpha" maskUnits="userSpaceOnUse" x="70" y="155" width="29" height="27">
<path d="M71.7435 155.31H96.253L98.3843 181.418H70.145L71.7435 155.31Z" fill="#FFDFE7"/>
</mask>
<g mask="url(#mask0_63_5436)">
<circle cx="98.3842" cy="116.414" r="53.8144" fill="url(#paint0_linear_63_5436)"/>
</g>
<path fill-rule="evenodd" clip-rule="evenodd" d="M141.531 217.805H25.4312C28.2142 194.532 47.4522 165.172 83.4673 165.172C119.605 165.172 138.851 193.677 141.531 217.805Z" fill="url(#paint1_linear_63_5436)"/>
<circle cx="84.1345" cy="111.57" r="45.7395" fill="#FFEAE5"/>
<circle cx="76.0081" cy="111.181" r="2.2154" transform="rotate(-4.80879 76.0081 111.181)" fill="#835A44"/>
<circle cx="91.9924" cy="111.181" r="2.2154" transform="rotate(-4.80879 91.9924 111.181)" fill="#835A44"/>
<circle cx="84.1987" cy="116.546" r="3.87847" transform="rotate(-4.80879 84.1987 116.546)" fill="url(#paint2_linear_63_5436)"/>
<path fill-rule="evenodd" clip-rule="evenodd" d="M125.424 131.632C128.147 125.194 129.653 118.115 129.653 110.685C129.653 106.488 129.173 102.403 128.264 98.4826C128.722 98.4479 129.186 98.4302 129.653 98.4302C139.658 98.4302 147.769 106.541 147.769 116.546C147.769 126.551 139.658 134.662 129.653 134.662C127.829 134.662 126.067 134.392 124.407 133.89" fill="url(#paint3_linear_63_5436)"/>
<path fill-rule="evenodd" clip-rule="evenodd" d="M39.7364 98.4826C39.2778 98.4479 38.8145 98.4302 38.347 98.4302C28.3419 98.4302 20.2313 106.541 20.2313 116.546C20.2313 126.551 28.3419 134.662 38.347 134.662C40.1714 134.662 41.9328 134.392 43.5935 133.89C40.2304 126.864 38.347 118.994 38.347 110.685C38.347 106.505 38.8235 102.437 39.725 98.5316C39.7288 98.5153 39.7326 98.499 39.7364 98.4826Z" fill="url(#paint4_linear_63_5436)"/>
<path d="M77.6045 119.815C78.4925 121.236 80.4347 123.545 84.271 123.545C88.1073 123.545 89.5992 121.236 90.6648 119.815" stroke="#835A44" stroke-width="0.392454" stroke-linecap="round"/>
<path d="M102.997 94.0401C95.4439 90.2624 86.7897 82.6698 86.0029 75.744C81.0936 84.055 90.7234 91.8365 95.916 98.7623H66.4128H41.4052C38.9224 98.7623 36.8184 96.7492 36.8834 94.2672C36.9763 90.7159 37.6061 86.4058 40.6861 79.9939C46.6992 67.4759 63.8166 54.374 82.9402 54.374C102.064 54.374 115.753 64.1703 123.064 74.6793C129.904 84.5098 130.533 92.3087 129.904 98.7623C125.655 99.0771 113.91 99.4989 102.997 94.0401Z" fill="url(#paint5_linear_63_5436)"/>
<path d="M37.0125 108.177C36.056 102.438 36.614 93.8292 37.0125 91.438L44.1864 93.8292C44.5849 93.8292 47.0558 94.3075 44.1864 96.2204C41.3169 98.1334 39.0054 110.568 39.4039 116.546C39.0053 116.147 37.969 113.915 37.0125 108.177Z" fill="#4C362A"/>
<path d="M131.111 108.177C132.067 102.438 130.141 92.6339 129.742 90.2427L123.937 93.8295C123.538 93.8295 121.067 94.3077 123.937 96.2207C126.806 98.1337 129.118 110.568 128.719 116.546C129.118 116.148 130.154 113.916 131.111 108.177Z" fill="#786357"/>
<rect x="129.564" y="15.6855" width="51.0378" height="5.52148" rx="2.76074" transform="rotate(90 129.564 15.6855)" fill="#D9D9D9"/>
<rect width="15.9155" height="11.1377" rx="5.56886" transform="matrix(4.37114e-08 -1 -1 -4.37114e-08 132.373 78.6348)" fill="#FFE03D"/>
<path fill-rule="evenodd" clip-rule="evenodd" d="M31.5203 15.6855C28.1574 15.6855 25.4312 18.4118 25.4312 21.7747C25.4312 25.1377 28.1574 27.8639 31.5203 27.8639H51.5223V62.3641C51.5223 64.7716 53.4739 66.7233 55.8814 66.7233H112.894C115.302 66.7233 117.253 64.7716 117.253 62.3641V27.8639H135.442C138.805 27.8639 141.531 25.1377 141.531 21.7747C141.531 18.4118 138.805 15.6855 135.442 15.6855H31.5203Z" fill="black"/>
</g>
<defs>
<filter id="filter0_d_63_5436" x="0.231445" y="0.685547" width="167.537" height="242.12" filterUnits="userSpaceOnUse" color-interpolation-filters="sRGB">
<feFlood flood-opacity="0" result="BackgroundImageFix"/>
<feColorMatrix in="SourceAlpha" type="matrix" values="0 0 0 0 0 0 0 0 0 0 0 0 0 0 0 0 0 0 127 0" result="hardAlpha"/>
<feOffset dy="5"/>
<feGaussianBlur stdDeviation="10"/>
<feComposite in2="hardAlpha" operator="out"/>
<feColorMatrix type="matrix" values="0 0 0 0 0.213846 0 0 0 0 0.213846 0 0 0 0 0.213846 0 0 0 0.2 0"/>
<feBlend mode="normal" in2="BackgroundImageFix" result="effect1_dropShadow_63_5436"/>
<feBlend mode="normal" in="SourceGraphic" in2="effect1_dropShadow_63_5436" result="shape"/>
</filter>
<linearGradient id="paint0_linear_63_5436" x1="55.2261" y1="138.792" x2="93.0561" y2="170.228" gradientUnits="userSpaceOnUse">
<stop stop-color="#FFF0ED"/>
<stop offset="1" stop-color="#FFD1C8"/>
</linearGradient>
<linearGradient id="paint1_linear_63_5436" x1="67.4802" y1="169.695" x2="113.132" y2="219.76" gradientUnits="userSpaceOnUse">
<stop stop-color="#00A3FF"/>
<stop offset="1" stop-color="#C9E2FF"/>
</linearGradient>
<linearGradient id="paint2_linear_63_5436" x1="84.1987" y1="112.668" x2="84.1987" y2="120.425" gradientUnits="userSpaceOnUse">
<stop stop-color="#FFB7A9"/>
<stop offset="1" stop-color="#FFE0D9"/>
</linearGradient>
<linearGradient id="paint3_linear_63_5436" x1="136.088" y1="98.4302" x2="136.088" y2="134.662" gradientUnits="userSpaceOnUse">
<stop stop-color="#FFD4CB"/>
<stop offset="1" stop-color="#FFF0ED"/>
</linearGradient>
<linearGradient id="paint4_linear_63_5436" x1="31.9125" y1="98.4302" x2="31.9125" y2="134.662" gradientUnits="userSpaceOnUse">
<stop stop-color="#FFD4CB"/>
<stop offset="1" stop-color="#FFF0ED"/>
</linearGradient>
<linearGradient id="paint5_linear_63_5436" x1="62.4004" y1="62.4017" x2="129.925" y2="124.238" gradientUnits="userSpaceOnUse">
<stop stop-color="#4C362A"/>
<stop offset="1" stop-color="#8B766A"/>
</linearGradient>
</defs>
</svg>
